G04 #@! TF.GenerationSoftware,KiCad,Pcbnew,(5.1.2)-2*
G04 #@! TF.CreationDate,2020-11-17T23:24:33+01:00*
G04 #@! TF.ProjectId,MieleProjectorPCB,4d69656c-6550-4726-9f6a-6563746f7250,rev?*
G04 #@! TF.SameCoordinates,Original*
G04 #@! TF.FileFunction,Soldermask,Top*
G04 #@! TF.FilePolarity,Negative*
%FSLAX46Y46*%
G04 Gerber Fmt 4.6, Leading zero omitted, Abs format (unit mm)*
G04 Created by KiCad (PCBNEW (5.1.2)-2) date 2020-11-17 23:24:33*
%MOMM*%
%LPD*%
G04 APERTURE LIST*
%ADD10C,0.100000*%
G04 APERTURE END LIST*
D10*
G36*
X109884239Y-147811467D02*
G01*
X110198282Y-147873934D01*
X110789926Y-148119001D01*
X111190073Y-148386371D01*
X111245078Y-148423124D01*
X111322392Y-148474784D01*
X111775216Y-148927608D01*
X112130999Y-149460074D01*
X112376066Y-150051718D01*
X112411408Y-150229395D01*
X112501000Y-150679803D01*
X112501000Y-151320197D01*
X112469181Y-151480163D01*
X112376066Y-151948282D01*
X112130999Y-152539926D01*
X111775216Y-153072392D01*
X111322392Y-153525216D01*
X110789926Y-153880999D01*
X110198282Y-154126066D01*
X109884239Y-154188533D01*
X109570197Y-154251000D01*
X108929803Y-154251000D01*
X108615761Y-154188533D01*
X108301718Y-154126066D01*
X107710074Y-153880999D01*
X107177608Y-153525216D01*
X106724784Y-153072392D01*
X106369001Y-152539926D01*
X106123934Y-151948282D01*
X106030819Y-151480163D01*
X105999000Y-151320197D01*
X105999000Y-150679803D01*
X106088592Y-150229395D01*
X106123934Y-150051718D01*
X106369001Y-149460074D01*
X106724784Y-148927608D01*
X107177608Y-148474784D01*
X107254923Y-148423124D01*
X107309927Y-148386371D01*
X107710074Y-148119001D01*
X108301718Y-147873934D01*
X108615761Y-147811467D01*
X108929803Y-147749000D01*
X109570197Y-147749000D01*
X109884239Y-147811467D01*
X109884239Y-147811467D01*
G37*
G36*
X33384239Y-147811467D02*
G01*
X33698282Y-147873934D01*
X34289926Y-148119001D01*
X34690073Y-148386371D01*
X34745078Y-148423124D01*
X34822392Y-148474784D01*
X35275216Y-148927608D01*
X35630999Y-149460074D01*
X35876066Y-150051718D01*
X35911408Y-150229395D01*
X36001000Y-150679803D01*
X36001000Y-151320197D01*
X35969181Y-151480163D01*
X35876066Y-151948282D01*
X35630999Y-152539926D01*
X35275216Y-153072392D01*
X34822392Y-153525216D01*
X34289926Y-153880999D01*
X33698282Y-154126066D01*
X33384239Y-154188533D01*
X33070197Y-154251000D01*
X32429803Y-154251000D01*
X32115761Y-154188533D01*
X31801718Y-154126066D01*
X31210074Y-153880999D01*
X30677608Y-153525216D01*
X30224784Y-153072392D01*
X29869001Y-152539926D01*
X29623934Y-151948282D01*
X29530819Y-151480163D01*
X29499000Y-151320197D01*
X29499000Y-150679803D01*
X29588592Y-150229395D01*
X29623934Y-150051718D01*
X29869001Y-149460074D01*
X30224784Y-148927608D01*
X30677608Y-148474784D01*
X30754923Y-148423124D01*
X30809927Y-148386371D01*
X31210074Y-148119001D01*
X31801718Y-147873934D01*
X32115761Y-147811467D01*
X32429803Y-147749000D01*
X33070197Y-147749000D01*
X33384239Y-147811467D01*
X33384239Y-147811467D01*
G37*
G36*
X39867142Y-152198242D02*
G01*
X40015101Y-152259529D01*
X40148255Y-152348499D01*
X40261501Y-152461745D01*
X40350471Y-152594899D01*
X40411758Y-152742858D01*
X40443000Y-152899925D01*
X40443000Y-153060075D01*
X40411758Y-153217142D01*
X40350471Y-153365101D01*
X40261501Y-153498255D01*
X40148255Y-153611501D01*
X40015101Y-153700471D01*
X39867142Y-153761758D01*
X39710075Y-153793000D01*
X39549925Y-153793000D01*
X39392858Y-153761758D01*
X39244899Y-153700471D01*
X39111745Y-153611501D01*
X38998499Y-153498255D01*
X38909529Y-153365101D01*
X38848242Y-153217142D01*
X38817000Y-153060075D01*
X38817000Y-152899925D01*
X38848242Y-152742858D01*
X38909529Y-152594899D01*
X38998499Y-152461745D01*
X39111745Y-152348499D01*
X39244899Y-152259529D01*
X39392858Y-152198242D01*
X39549925Y-152167000D01*
X39710075Y-152167000D01*
X39867142Y-152198242D01*
X39867142Y-152198242D01*
G37*
G36*
X55107142Y-152198242D02*
G01*
X55255101Y-152259529D01*
X55388255Y-152348499D01*
X55501501Y-152461745D01*
X55590471Y-152594899D01*
X55651758Y-152742858D01*
X55683000Y-152899925D01*
X55683000Y-153060075D01*
X55651758Y-153217142D01*
X55590471Y-153365101D01*
X55501501Y-153498255D01*
X55388255Y-153611501D01*
X55255101Y-153700471D01*
X55107142Y-153761758D01*
X54950075Y-153793000D01*
X54789925Y-153793000D01*
X54632858Y-153761758D01*
X54484899Y-153700471D01*
X54351745Y-153611501D01*
X54238499Y-153498255D01*
X54149529Y-153365101D01*
X54088242Y-153217142D01*
X54057000Y-153060075D01*
X54057000Y-152899925D01*
X54088242Y-152742858D01*
X54149529Y-152594899D01*
X54238499Y-152461745D01*
X54351745Y-152348499D01*
X54484899Y-152259529D01*
X54632858Y-152198242D01*
X54789925Y-152167000D01*
X54950075Y-152167000D01*
X55107142Y-152198242D01*
X55107142Y-152198242D01*
G37*
G36*
X101551000Y-153551000D02*
G01*
X98449000Y-153551000D01*
X98449000Y-150449000D01*
X101551000Y-150449000D01*
X101551000Y-153551000D01*
X101551000Y-153551000D01*
G37*
G36*
X96051000Y-153551000D02*
G01*
X92949000Y-153551000D01*
X92949000Y-150449000D01*
X96051000Y-150449000D01*
X96051000Y-153551000D01*
X96051000Y-153551000D01*
G37*
G36*
X81325562Y-150040681D02*
G01*
X81360481Y-150051274D01*
X81392663Y-150068476D01*
X81420873Y-150091627D01*
X81444024Y-150119837D01*
X81461226Y-150152019D01*
X81471819Y-150186938D01*
X81476000Y-150229395D01*
X81476000Y-151370605D01*
X81471819Y-151413062D01*
X81461226Y-151447981D01*
X81444024Y-151480163D01*
X81420873Y-151508373D01*
X81392663Y-151531524D01*
X81360481Y-151548726D01*
X81325562Y-151559319D01*
X81283105Y-151563500D01*
X79816895Y-151563500D01*
X79774438Y-151559319D01*
X79739519Y-151548726D01*
X79707337Y-151531524D01*
X79679127Y-151508373D01*
X79655976Y-151480163D01*
X79638774Y-151447981D01*
X79628181Y-151413062D01*
X79624000Y-151370605D01*
X79624000Y-150229395D01*
X79628181Y-150186938D01*
X79638774Y-150152019D01*
X79655976Y-150119837D01*
X79679127Y-150091627D01*
X79707337Y-150068476D01*
X79739519Y-150051274D01*
X79774438Y-150040681D01*
X79816895Y-150036500D01*
X81283105Y-150036500D01*
X81325562Y-150040681D01*
X81325562Y-150040681D01*
G37*
G36*
X55107142Y-149658242D02*
G01*
X55255101Y-149719529D01*
X55388255Y-149808499D01*
X55501501Y-149921745D01*
X55590471Y-150054899D01*
X55651758Y-150202858D01*
X55683000Y-150359925D01*
X55683000Y-150520075D01*
X55651758Y-150677142D01*
X55590471Y-150825101D01*
X55501501Y-150958255D01*
X55388255Y-151071501D01*
X55255101Y-151160471D01*
X55107142Y-151221758D01*
X54950075Y-151253000D01*
X54789925Y-151253000D01*
X54632858Y-151221758D01*
X54484899Y-151160471D01*
X54351745Y-151071501D01*
X54238499Y-150958255D01*
X54149529Y-150825101D01*
X54088242Y-150677142D01*
X54057000Y-150520075D01*
X54057000Y-150359925D01*
X54088242Y-150202858D01*
X54149529Y-150054899D01*
X54238499Y-149921745D01*
X54351745Y-149808499D01*
X54484899Y-149719529D01*
X54632858Y-149658242D01*
X54789925Y-149627000D01*
X54950075Y-149627000D01*
X55107142Y-149658242D01*
X55107142Y-149658242D01*
G37*
G36*
X39867142Y-149658242D02*
G01*
X40015101Y-149719529D01*
X40148255Y-149808499D01*
X40261501Y-149921745D01*
X40350471Y-150054899D01*
X40411758Y-150202858D01*
X40443000Y-150359925D01*
X40443000Y-150520075D01*
X40411758Y-150677142D01*
X40350471Y-150825101D01*
X40261501Y-150958255D01*
X40148255Y-151071501D01*
X40015101Y-151160471D01*
X39867142Y-151221758D01*
X39710075Y-151253000D01*
X39549925Y-151253000D01*
X39392858Y-151221758D01*
X39244899Y-151160471D01*
X39111745Y-151071501D01*
X38998499Y-150958255D01*
X38909529Y-150825101D01*
X38848242Y-150677142D01*
X38817000Y-150520075D01*
X38817000Y-150359925D01*
X38848242Y-150202858D01*
X38909529Y-150054899D01*
X38998499Y-149921745D01*
X39111745Y-149808499D01*
X39244899Y-149719529D01*
X39392858Y-149658242D01*
X39549925Y-149627000D01*
X39710075Y-149627000D01*
X39867142Y-149658242D01*
X39867142Y-149658242D01*
G37*
G36*
X90801000Y-151101000D02*
G01*
X88699000Y-151101000D01*
X88699000Y-149499000D01*
X90801000Y-149499000D01*
X90801000Y-151101000D01*
X90801000Y-151101000D01*
G37*
G36*
X58627142Y-148948242D02*
G01*
X58775101Y-149009529D01*
X58908255Y-149098499D01*
X59021501Y-149211745D01*
X59110471Y-149344899D01*
X59171758Y-149492858D01*
X59203000Y-149649925D01*
X59203000Y-149810075D01*
X59171758Y-149967142D01*
X59110471Y-150115101D01*
X59021501Y-150248255D01*
X58908255Y-150361501D01*
X58775101Y-150450471D01*
X58627142Y-150511758D01*
X58470075Y-150543000D01*
X58309925Y-150543000D01*
X58152858Y-150511758D01*
X58004899Y-150450471D01*
X57871745Y-150361501D01*
X57758499Y-150248255D01*
X57669529Y-150115101D01*
X57608242Y-149967142D01*
X57577000Y-149810075D01*
X57577000Y-149649925D01*
X57608242Y-149492858D01*
X57669529Y-149344899D01*
X57758499Y-149211745D01*
X57871745Y-149098499D01*
X58004899Y-149009529D01*
X58152858Y-148948242D01*
X58309925Y-148917000D01*
X58470075Y-148917000D01*
X58627142Y-148948242D01*
X58627142Y-148948242D01*
G37*
G36*
X84501000Y-149951000D02*
G01*
X82399000Y-149951000D01*
X82399000Y-146049000D01*
X84501000Y-146049000D01*
X84501000Y-149951000D01*
X84501000Y-149951000D01*
G37*
G36*
X90801000Y-148801000D02*
G01*
X88699000Y-148801000D01*
X88699000Y-147199000D01*
X90801000Y-147199000D01*
X90801000Y-148801000D01*
X90801000Y-148801000D01*
G37*
G36*
X55107142Y-147118242D02*
G01*
X55255101Y-147179529D01*
X55388255Y-147268499D01*
X55501501Y-147381745D01*
X55590471Y-147514899D01*
X55651758Y-147662858D01*
X55683000Y-147819925D01*
X55683000Y-147980075D01*
X55651758Y-148137142D01*
X55590471Y-148285101D01*
X55501501Y-148418255D01*
X55388255Y-148531501D01*
X55255101Y-148620471D01*
X55107142Y-148681758D01*
X54950075Y-148713000D01*
X54789925Y-148713000D01*
X54632858Y-148681758D01*
X54484899Y-148620471D01*
X54351745Y-148531501D01*
X54238499Y-148418255D01*
X54149529Y-148285101D01*
X54088242Y-148137142D01*
X54057000Y-147980075D01*
X54057000Y-147819925D01*
X54088242Y-147662858D01*
X54149529Y-147514899D01*
X54238499Y-147381745D01*
X54351745Y-147268499D01*
X54484899Y-147179529D01*
X54632858Y-147118242D01*
X54789925Y-147087000D01*
X54950075Y-147087000D01*
X55107142Y-147118242D01*
X55107142Y-147118242D01*
G37*
G36*
X39867142Y-147118242D02*
G01*
X40015101Y-147179529D01*
X40148255Y-147268499D01*
X40261501Y-147381745D01*
X40350471Y-147514899D01*
X40411758Y-147662858D01*
X40443000Y-147819925D01*
X40443000Y-147980075D01*
X40411758Y-148137142D01*
X40350471Y-148285101D01*
X40261501Y-148418255D01*
X40148255Y-148531501D01*
X40015101Y-148620471D01*
X39867142Y-148681758D01*
X39710075Y-148713000D01*
X39549925Y-148713000D01*
X39392858Y-148681758D01*
X39244899Y-148620471D01*
X39111745Y-148531501D01*
X38998499Y-148418255D01*
X38909529Y-148285101D01*
X38848242Y-148137142D01*
X38817000Y-147980075D01*
X38817000Y-147819925D01*
X38848242Y-147662858D01*
X38909529Y-147514899D01*
X38998499Y-147381745D01*
X39111745Y-147268499D01*
X39244899Y-147179529D01*
X39392858Y-147118242D01*
X39549925Y-147087000D01*
X39710075Y-147087000D01*
X39867142Y-147118242D01*
X39867142Y-147118242D01*
G37*
G36*
X81325562Y-147065681D02*
G01*
X81360481Y-147076274D01*
X81392663Y-147093476D01*
X81420873Y-147116627D01*
X81444024Y-147144837D01*
X81461226Y-147177019D01*
X81471819Y-147211938D01*
X81476000Y-147254395D01*
X81476000Y-148395605D01*
X81471819Y-148438062D01*
X81461226Y-148472981D01*
X81444024Y-148505163D01*
X81420873Y-148533373D01*
X81392663Y-148556524D01*
X81360481Y-148573726D01*
X81325562Y-148584319D01*
X81283105Y-148588500D01*
X79816895Y-148588500D01*
X79774438Y-148584319D01*
X79739519Y-148573726D01*
X79707337Y-148556524D01*
X79679127Y-148533373D01*
X79655976Y-148505163D01*
X79638774Y-148472981D01*
X79628181Y-148438062D01*
X79624000Y-148395605D01*
X79624000Y-147254395D01*
X79628181Y-147211938D01*
X79638774Y-147177019D01*
X79655976Y-147144837D01*
X79679127Y-147116627D01*
X79707337Y-147093476D01*
X79739519Y-147076274D01*
X79774438Y-147065681D01*
X79816895Y-147061500D01*
X81283105Y-147061500D01*
X81325562Y-147065681D01*
X81325562Y-147065681D01*
G37*
G36*
X58627142Y-146408242D02*
G01*
X58775101Y-146469529D01*
X58908255Y-146558499D01*
X59021501Y-146671745D01*
X59110471Y-146804899D01*
X59171758Y-146952858D01*
X59203000Y-147109925D01*
X59203000Y-147270075D01*
X59171758Y-147427142D01*
X59110471Y-147575101D01*
X59021501Y-147708255D01*
X58908255Y-147821501D01*
X58775101Y-147910471D01*
X58627142Y-147971758D01*
X58470075Y-148003000D01*
X58309925Y-148003000D01*
X58152858Y-147971758D01*
X58004899Y-147910471D01*
X57871745Y-147821501D01*
X57758499Y-147708255D01*
X57669529Y-147575101D01*
X57608242Y-147427142D01*
X57577000Y-147270075D01*
X57577000Y-147109925D01*
X57608242Y-146952858D01*
X57669529Y-146804899D01*
X57758499Y-146671745D01*
X57871745Y-146558499D01*
X58004899Y-146469529D01*
X58152858Y-146408242D01*
X58309925Y-146377000D01*
X58470075Y-146377000D01*
X58627142Y-146408242D01*
X58627142Y-146408242D01*
G37*
G36*
X95025562Y-146078181D02*
G01*
X95060481Y-146088774D01*
X95092663Y-146105976D01*
X95120873Y-146129127D01*
X95144024Y-146157337D01*
X95161226Y-146189519D01*
X95171819Y-146224438D01*
X95176000Y-146266895D01*
X95176000Y-147408105D01*
X95171819Y-147450562D01*
X95161226Y-147485481D01*
X95144024Y-147517663D01*
X95120873Y-147545873D01*
X95092663Y-147569024D01*
X95060481Y-147586226D01*
X95025562Y-147596819D01*
X94983105Y-147601000D01*
X93516895Y-147601000D01*
X93474438Y-147596819D01*
X93439519Y-147586226D01*
X93407337Y-147569024D01*
X93379127Y-147545873D01*
X93355976Y-147517663D01*
X93338774Y-147485481D01*
X93328181Y-147450562D01*
X93324000Y-147408105D01*
X93324000Y-146266895D01*
X93328181Y-146224438D01*
X93338774Y-146189519D01*
X93355976Y-146157337D01*
X93379127Y-146129127D01*
X93407337Y-146105976D01*
X93439519Y-146088774D01*
X93474438Y-146078181D01*
X93516895Y-146074000D01*
X94983105Y-146074000D01*
X95025562Y-146078181D01*
X95025562Y-146078181D01*
G37*
G36*
X31916536Y-144752800D02*
G01*
X31947738Y-144762265D01*
X31976486Y-144777631D01*
X32001687Y-144798313D01*
X32022369Y-144823514D01*
X32037735Y-144852262D01*
X32047200Y-144883464D01*
X32051000Y-144922046D01*
X32051000Y-146777954D01*
X32047200Y-146816536D01*
X32037735Y-146847738D01*
X32022369Y-146876486D01*
X32001687Y-146901687D01*
X31976486Y-146922369D01*
X31947738Y-146937735D01*
X31916536Y-146947200D01*
X31877954Y-146951000D01*
X29122046Y-146951000D01*
X29083464Y-146947200D01*
X29052262Y-146937735D01*
X29023514Y-146922369D01*
X28998313Y-146901687D01*
X28977631Y-146876486D01*
X28962265Y-146847738D01*
X28952800Y-146816536D01*
X28949000Y-146777954D01*
X28949000Y-144922046D01*
X28952800Y-144883464D01*
X28962265Y-144852262D01*
X28977631Y-144823514D01*
X28998313Y-144798313D01*
X29023514Y-144777631D01*
X29052262Y-144762265D01*
X29083464Y-144752800D01*
X29122046Y-144749000D01*
X31877954Y-144749000D01*
X31916536Y-144752800D01*
X31916536Y-144752800D01*
G37*
G36*
X103109999Y-144074737D02*
G01*
X103119608Y-144077652D01*
X103128472Y-144082390D01*
X103136237Y-144088763D01*
X103142610Y-144096528D01*
X103147348Y-144105392D01*
X103150263Y-144115001D01*
X103151852Y-144131140D01*
X103151852Y-145118860D01*
X103150263Y-145134999D01*
X103147348Y-145144608D01*
X103142610Y-145153472D01*
X103136258Y-145161212D01*
X103136237Y-145161237D01*
X103128427Y-145167640D01*
X103128372Y-145167677D01*
X103118853Y-145175480D01*
X103118878Y-145175511D01*
X103105028Y-145186853D01*
X103089463Y-145205779D01*
X103077889Y-145227377D01*
X103070751Y-145250819D01*
X103068324Y-145275202D01*
X103070700Y-145299591D01*
X103077789Y-145323047D01*
X103089318Y-145344670D01*
X103104843Y-145363628D01*
X103123769Y-145379193D01*
X103126825Y-145381029D01*
X103128514Y-145382418D01*
X103128516Y-145382419D01*
X103134712Y-145387515D01*
X103136274Y-145388800D01*
X103142642Y-145396575D01*
X103145791Y-145402483D01*
X103147367Y-145405438D01*
X103150257Y-145415001D01*
X103150282Y-145415085D01*
X103151852Y-145431113D01*
X103151852Y-146568860D01*
X103150263Y-146584999D01*
X103147348Y-146594608D01*
X103142610Y-146603472D01*
X103136237Y-146611237D01*
X103128472Y-146617610D01*
X103119608Y-146622348D01*
X103109999Y-146625263D01*
X103093860Y-146626852D01*
X101606140Y-146626852D01*
X101590001Y-146625263D01*
X101580392Y-146622348D01*
X101571528Y-146617610D01*
X101563763Y-146611237D01*
X101557390Y-146603472D01*
X101552652Y-146594608D01*
X101549737Y-146584999D01*
X101548148Y-146568860D01*
X101548148Y-145431140D01*
X101549737Y-145415001D01*
X101552652Y-145405392D01*
X101557390Y-145396528D01*
X101563763Y-145388763D01*
X101576737Y-145378116D01*
X101585968Y-145371947D01*
X101603294Y-145354619D01*
X101616907Y-145334244D01*
X101626283Y-145311605D01*
X101631063Y-145287572D01*
X101631062Y-145263068D01*
X101626280Y-145239035D01*
X101616902Y-145216396D01*
X101603287Y-145196022D01*
X101585959Y-145178696D01*
X101576683Y-145171825D01*
X101563800Y-145161274D01*
X101562668Y-145159897D01*
X101557419Y-145153516D01*
X101552674Y-145144661D01*
X101551749Y-145141623D01*
X101549758Y-145135085D01*
X101549758Y-145135082D01*
X101549748Y-145135050D01*
X101548753Y-145125000D01*
X101548753Y-145124935D01*
X101548148Y-145118825D01*
X101548148Y-144131140D01*
X101549737Y-144115001D01*
X101552652Y-144105392D01*
X101557390Y-144096528D01*
X101563763Y-144088763D01*
X101571528Y-144082390D01*
X101580392Y-144077652D01*
X101590001Y-144074737D01*
X101606140Y-144073148D01*
X103093860Y-144073148D01*
X103109999Y-144074737D01*
X103109999Y-144074737D01*
G37*
G36*
X90801000Y-146501000D02*
G01*
X88699000Y-146501000D01*
X88699000Y-144899000D01*
X90801000Y-144899000D01*
X90801000Y-146501000D01*
X90801000Y-146501000D01*
G37*
G36*
X55107142Y-144578242D02*
G01*
X55255101Y-144639529D01*
X55388255Y-144728499D01*
X55501501Y-144841745D01*
X55590471Y-144974899D01*
X55651758Y-145122858D01*
X55683000Y-145279925D01*
X55683000Y-145440075D01*
X55651758Y-145597142D01*
X55590471Y-145745101D01*
X55501501Y-145878255D01*
X55388255Y-145991501D01*
X55255101Y-146080471D01*
X55107142Y-146141758D01*
X54950075Y-146173000D01*
X54789925Y-146173000D01*
X54632858Y-146141758D01*
X54484899Y-146080471D01*
X54351745Y-145991501D01*
X54238499Y-145878255D01*
X54149529Y-145745101D01*
X54088242Y-145597142D01*
X54057000Y-145440075D01*
X54057000Y-145279925D01*
X54088242Y-145122858D01*
X54149529Y-144974899D01*
X54238499Y-144841745D01*
X54351745Y-144728499D01*
X54484899Y-144639529D01*
X54632858Y-144578242D01*
X54789925Y-144547000D01*
X54950075Y-144547000D01*
X55107142Y-144578242D01*
X55107142Y-144578242D01*
G37*
G36*
X39867142Y-144578242D02*
G01*
X40015101Y-144639529D01*
X40148255Y-144728499D01*
X40261501Y-144841745D01*
X40350471Y-144974899D01*
X40411758Y-145122858D01*
X40443000Y-145279925D01*
X40443000Y-145440075D01*
X40411758Y-145597142D01*
X40350471Y-145745101D01*
X40261501Y-145878255D01*
X40148255Y-145991501D01*
X40015101Y-146080471D01*
X39867142Y-146141758D01*
X39710075Y-146173000D01*
X39549925Y-146173000D01*
X39392858Y-146141758D01*
X39244899Y-146080471D01*
X39111745Y-145991501D01*
X38998499Y-145878255D01*
X38909529Y-145745101D01*
X38848242Y-145597142D01*
X38817000Y-145440075D01*
X38817000Y-145279925D01*
X38848242Y-145122858D01*
X38909529Y-144974899D01*
X38998499Y-144841745D01*
X39111745Y-144728499D01*
X39244899Y-144639529D01*
X39392858Y-144578242D01*
X39549925Y-144547000D01*
X39710075Y-144547000D01*
X39867142Y-144578242D01*
X39867142Y-144578242D01*
G37*
G36*
X105925589Y-144638876D02*
G01*
X106024893Y-144658629D01*
X106165206Y-144716748D01*
X106291484Y-144801125D01*
X106398875Y-144908516D01*
X106483252Y-145034794D01*
X106541371Y-145175107D01*
X106571000Y-145324063D01*
X106571000Y-145475937D01*
X106541371Y-145624893D01*
X106483252Y-145765206D01*
X106398875Y-145891484D01*
X106291484Y-145998875D01*
X106165206Y-146083252D01*
X106024893Y-146141371D01*
X105944626Y-146157337D01*
X105875938Y-146171000D01*
X105724062Y-146171000D01*
X105655374Y-146157337D01*
X105575107Y-146141371D01*
X105434794Y-146083252D01*
X105308516Y-145998875D01*
X105201125Y-145891484D01*
X105116748Y-145765206D01*
X105058629Y-145624893D01*
X105029000Y-145475937D01*
X105029000Y-145324063D01*
X105058629Y-145175107D01*
X105116748Y-145034794D01*
X105201125Y-144908516D01*
X105308516Y-144801125D01*
X105434794Y-144716748D01*
X105575107Y-144658629D01*
X105674411Y-144638876D01*
X105724062Y-144629000D01*
X105875938Y-144629000D01*
X105925589Y-144638876D01*
X105925589Y-144638876D01*
G37*
G36*
X111005589Y-144638876D02*
G01*
X111104893Y-144658629D01*
X111245206Y-144716748D01*
X111371484Y-144801125D01*
X111478875Y-144908516D01*
X111563252Y-145034794D01*
X111621371Y-145175107D01*
X111651000Y-145324063D01*
X111651000Y-145475937D01*
X111621371Y-145624893D01*
X111563252Y-145765206D01*
X111478875Y-145891484D01*
X111371484Y-145998875D01*
X111245206Y-146083252D01*
X111104893Y-146141371D01*
X111024626Y-146157337D01*
X110955938Y-146171000D01*
X110804062Y-146171000D01*
X110735374Y-146157337D01*
X110655107Y-146141371D01*
X110514794Y-146083252D01*
X110388516Y-145998875D01*
X110281125Y-145891484D01*
X110196748Y-145765206D01*
X110138629Y-145624893D01*
X110109000Y-145475937D01*
X110109000Y-145324063D01*
X110138629Y-145175107D01*
X110196748Y-145034794D01*
X110281125Y-144908516D01*
X110388516Y-144801125D01*
X110514794Y-144716748D01*
X110655107Y-144658629D01*
X110754411Y-144638876D01*
X110804062Y-144629000D01*
X110955938Y-144629000D01*
X111005589Y-144638876D01*
X111005589Y-144638876D01*
G37*
G36*
X95025562Y-143103181D02*
G01*
X95060481Y-143113774D01*
X95092663Y-143130976D01*
X95120873Y-143154127D01*
X95144024Y-143182337D01*
X95161226Y-143214519D01*
X95171819Y-143249438D01*
X95176000Y-143291895D01*
X95176000Y-144433105D01*
X95171819Y-144475562D01*
X95161226Y-144510481D01*
X95144024Y-144542663D01*
X95120873Y-144570873D01*
X95092663Y-144594024D01*
X95060481Y-144611226D01*
X95025562Y-144621819D01*
X94983105Y-144626000D01*
X93516895Y-144626000D01*
X93474438Y-144621819D01*
X93439519Y-144611226D01*
X93407337Y-144594024D01*
X93379127Y-144570873D01*
X93355976Y-144542663D01*
X93338774Y-144510481D01*
X93328181Y-144475562D01*
X93324000Y-144433105D01*
X93324000Y-143291895D01*
X93328181Y-143249438D01*
X93338774Y-143214519D01*
X93355976Y-143182337D01*
X93379127Y-143154127D01*
X93407337Y-143130976D01*
X93439519Y-143113774D01*
X93474438Y-143103181D01*
X93516895Y-143099000D01*
X94983105Y-143099000D01*
X95025562Y-143103181D01*
X95025562Y-143103181D01*
G37*
G36*
X34119683Y-142852725D02*
G01*
X34150143Y-142861966D01*
X34178223Y-142876974D01*
X34202831Y-142897169D01*
X34223026Y-142921777D01*
X34238034Y-142949857D01*
X34247275Y-142980317D01*
X34251000Y-143018140D01*
X34251000Y-143581860D01*
X34247275Y-143619683D01*
X34238034Y-143650143D01*
X34223026Y-143678223D01*
X34202831Y-143702831D01*
X34178223Y-143723026D01*
X34150143Y-143738034D01*
X34119683Y-143747275D01*
X34081860Y-143751000D01*
X32718140Y-143751000D01*
X32680317Y-143747275D01*
X32649857Y-143738034D01*
X32621777Y-143723026D01*
X32597169Y-143702831D01*
X32576974Y-143678223D01*
X32561966Y-143650143D01*
X32552725Y-143619683D01*
X32549000Y-143581860D01*
X32549000Y-143018140D01*
X32552725Y-142980317D01*
X32561966Y-142949857D01*
X32576974Y-142921777D01*
X32597169Y-142897169D01*
X32621777Y-142876974D01*
X32649857Y-142861966D01*
X32680317Y-142852725D01*
X32718140Y-142849000D01*
X34081860Y-142849000D01*
X34119683Y-142852725D01*
X34119683Y-142852725D01*
G37*
G36*
X55107142Y-142038242D02*
G01*
X55255101Y-142099529D01*
X55388255Y-142188499D01*
X55501501Y-142301745D01*
X55590471Y-142434899D01*
X55651758Y-142582858D01*
X55683000Y-142739925D01*
X55683000Y-142900075D01*
X55651758Y-143057142D01*
X55590471Y-143205101D01*
X55501501Y-143338255D01*
X55388255Y-143451501D01*
X55255101Y-143540471D01*
X55107142Y-143601758D01*
X54950075Y-143633000D01*
X54789925Y-143633000D01*
X54632858Y-143601758D01*
X54484899Y-143540471D01*
X54351745Y-143451501D01*
X54238499Y-143338255D01*
X54149529Y-143205101D01*
X54088242Y-143057142D01*
X54057000Y-142900075D01*
X54057000Y-142739925D01*
X54088242Y-142582858D01*
X54149529Y-142434899D01*
X54238499Y-142301745D01*
X54351745Y-142188499D01*
X54484899Y-142099529D01*
X54632858Y-142038242D01*
X54789925Y-142007000D01*
X54950075Y-142007000D01*
X55107142Y-142038242D01*
X55107142Y-142038242D01*
G37*
G36*
X39867142Y-142038242D02*
G01*
X40015101Y-142099529D01*
X40148255Y-142188499D01*
X40261501Y-142301745D01*
X40350471Y-142434899D01*
X40411758Y-142582858D01*
X40443000Y-142739925D01*
X40443000Y-142900075D01*
X40411758Y-143057142D01*
X40350471Y-143205101D01*
X40261501Y-143338255D01*
X40148255Y-143451501D01*
X40015101Y-143540471D01*
X39867142Y-143601758D01*
X39710075Y-143633000D01*
X39549925Y-143633000D01*
X39392858Y-143601758D01*
X39244899Y-143540471D01*
X39111745Y-143451501D01*
X38998499Y-143338255D01*
X38909529Y-143205101D01*
X38848242Y-143057142D01*
X38817000Y-142900075D01*
X38817000Y-142739925D01*
X38848242Y-142582858D01*
X38909529Y-142434899D01*
X38998499Y-142301745D01*
X39111745Y-142188499D01*
X39244899Y-142099529D01*
X39392858Y-142038242D01*
X39549925Y-142007000D01*
X39710075Y-142007000D01*
X39867142Y-142038242D01*
X39867142Y-142038242D01*
G37*
G36*
X108465589Y-142098876D02*
G01*
X108564893Y-142118629D01*
X108705206Y-142176748D01*
X108831484Y-142261125D01*
X108938875Y-142368516D01*
X109023252Y-142494794D01*
X109081371Y-142635107D01*
X109111000Y-142784063D01*
X109111000Y-142935937D01*
X109081371Y-143084893D01*
X109023252Y-143225206D01*
X108938875Y-143351484D01*
X108831484Y-143458875D01*
X108705206Y-143543252D01*
X108564893Y-143601371D01*
X108472832Y-143619683D01*
X108415938Y-143631000D01*
X108264062Y-143631000D01*
X108207168Y-143619683D01*
X108115107Y-143601371D01*
X107974794Y-143543252D01*
X107848516Y-143458875D01*
X107741125Y-143351484D01*
X107656748Y-143225206D01*
X107598629Y-143084893D01*
X107569000Y-142935937D01*
X107569000Y-142784063D01*
X107598629Y-142635107D01*
X107656748Y-142494794D01*
X107741125Y-142368516D01*
X107848516Y-142261125D01*
X107974794Y-142176748D01*
X108115107Y-142118629D01*
X108214411Y-142098876D01*
X108264062Y-142089000D01*
X108415938Y-142089000D01*
X108465589Y-142098876D01*
X108465589Y-142098876D01*
G37*
G36*
X103550562Y-141078181D02*
G01*
X103585481Y-141088774D01*
X103617663Y-141105976D01*
X103645873Y-141129127D01*
X103669024Y-141157337D01*
X103686226Y-141189519D01*
X103696819Y-141224438D01*
X103701000Y-141266895D01*
X103701000Y-142733105D01*
X103696819Y-142775562D01*
X103686226Y-142810481D01*
X103669024Y-142842663D01*
X103645873Y-142870873D01*
X103617663Y-142894024D01*
X103585481Y-142911226D01*
X103550562Y-142921819D01*
X103508105Y-142926000D01*
X102366895Y-142926000D01*
X102324438Y-142921819D01*
X102289519Y-142911226D01*
X102257337Y-142894024D01*
X102229127Y-142870873D01*
X102205976Y-142842663D01*
X102188774Y-142810481D01*
X102178181Y-142775562D01*
X102174000Y-142733105D01*
X102174000Y-141266895D01*
X102178181Y-141224438D01*
X102188774Y-141189519D01*
X102205976Y-141157337D01*
X102229127Y-141129127D01*
X102257337Y-141105976D01*
X102289519Y-141088774D01*
X102324438Y-141078181D01*
X102366895Y-141074000D01*
X103508105Y-141074000D01*
X103550562Y-141078181D01*
X103550562Y-141078181D01*
G37*
G36*
X100575562Y-141078181D02*
G01*
X100610481Y-141088774D01*
X100642663Y-141105976D01*
X100670873Y-141129127D01*
X100694024Y-141157337D01*
X100711226Y-141189519D01*
X100721819Y-141224438D01*
X100726000Y-141266895D01*
X100726000Y-142733105D01*
X100721819Y-142775562D01*
X100711226Y-142810481D01*
X100694024Y-142842663D01*
X100670873Y-142870873D01*
X100642663Y-142894024D01*
X100610481Y-142911226D01*
X100575562Y-142921819D01*
X100533105Y-142926000D01*
X99391895Y-142926000D01*
X99349438Y-142921819D01*
X99314519Y-142911226D01*
X99282337Y-142894024D01*
X99254127Y-142870873D01*
X99230976Y-142842663D01*
X99213774Y-142810481D01*
X99203181Y-142775562D01*
X99199000Y-142733105D01*
X99199000Y-141266895D01*
X99203181Y-141224438D01*
X99213774Y-141189519D01*
X99230976Y-141157337D01*
X99254127Y-141129127D01*
X99282337Y-141105976D01*
X99314519Y-141088774D01*
X99349438Y-141078181D01*
X99391895Y-141074000D01*
X100533105Y-141074000D01*
X100575562Y-141078181D01*
X100575562Y-141078181D01*
G37*
G36*
X34119683Y-141602725D02*
G01*
X34150143Y-141611966D01*
X34178223Y-141626974D01*
X34202831Y-141647169D01*
X34223026Y-141671777D01*
X34238034Y-141699857D01*
X34247275Y-141730317D01*
X34251000Y-141768140D01*
X34251000Y-142331860D01*
X34247275Y-142369683D01*
X34238034Y-142400143D01*
X34223026Y-142428223D01*
X34202831Y-142452831D01*
X34178223Y-142473026D01*
X34150143Y-142488034D01*
X34119683Y-142497275D01*
X34081860Y-142501000D01*
X32718140Y-142501000D01*
X32680317Y-142497275D01*
X32649857Y-142488034D01*
X32621777Y-142473026D01*
X32597169Y-142452831D01*
X32576974Y-142428223D01*
X32561966Y-142400143D01*
X32552725Y-142369683D01*
X32549000Y-142331860D01*
X32549000Y-141768140D01*
X32552725Y-141730317D01*
X32561966Y-141699857D01*
X32576974Y-141671777D01*
X32597169Y-141647169D01*
X32621777Y-141626974D01*
X32649857Y-141611966D01*
X32680317Y-141602725D01*
X32718140Y-141599000D01*
X34081860Y-141599000D01*
X34119683Y-141602725D01*
X34119683Y-141602725D01*
G37*
G36*
X97414928Y-139201764D02*
G01*
X97436009Y-139208160D01*
X97455445Y-139218548D01*
X97472476Y-139232524D01*
X97486452Y-139249555D01*
X97496840Y-139268991D01*
X97503236Y-139290072D01*
X97506000Y-139318140D01*
X97506000Y-141131860D01*
X97503236Y-141159928D01*
X97496840Y-141181009D01*
X97486452Y-141200445D01*
X97472476Y-141217476D01*
X97455445Y-141231452D01*
X97436009Y-141241840D01*
X97414928Y-141248236D01*
X97386860Y-141251000D01*
X96923140Y-141251000D01*
X96895072Y-141248236D01*
X96873991Y-141241840D01*
X96854555Y-141231452D01*
X96837524Y-141217476D01*
X96823548Y-141200445D01*
X96813160Y-141181009D01*
X96806764Y-141159928D01*
X96804000Y-141131860D01*
X96804000Y-139318140D01*
X96806764Y-139290072D01*
X96813160Y-139268991D01*
X96823548Y-139249555D01*
X96837524Y-139232524D01*
X96854555Y-139218548D01*
X96873991Y-139208160D01*
X96895072Y-139201764D01*
X96923140Y-139199000D01*
X97386860Y-139199000D01*
X97414928Y-139201764D01*
X97414928Y-139201764D01*
G37*
G36*
X96144928Y-139201764D02*
G01*
X96166009Y-139208160D01*
X96185445Y-139218548D01*
X96202476Y-139232524D01*
X96216452Y-139249555D01*
X96226840Y-139268991D01*
X96233236Y-139290072D01*
X96236000Y-139318140D01*
X96236000Y-141131860D01*
X96233236Y-141159928D01*
X96226840Y-141181009D01*
X96216452Y-141200445D01*
X96202476Y-141217476D01*
X96185445Y-141231452D01*
X96166009Y-141241840D01*
X96144928Y-141248236D01*
X96116860Y-141251000D01*
X95653140Y-141251000D01*
X95625072Y-141248236D01*
X95603991Y-141241840D01*
X95584555Y-141231452D01*
X95567524Y-141217476D01*
X95553548Y-141200445D01*
X95543160Y-141181009D01*
X95536764Y-141159928D01*
X95534000Y-141131860D01*
X95534000Y-139318140D01*
X95536764Y-139290072D01*
X95543160Y-139268991D01*
X95553548Y-139249555D01*
X95567524Y-139232524D01*
X95584555Y-139218548D01*
X95603991Y-139208160D01*
X95625072Y-139201764D01*
X95653140Y-139199000D01*
X96116860Y-139199000D01*
X96144928Y-139201764D01*
X96144928Y-139201764D01*
G37*
G36*
X34119683Y-140352725D02*
G01*
X34150143Y-140361966D01*
X34178223Y-140376974D01*
X34202831Y-140397169D01*
X34223026Y-140421777D01*
X34238034Y-140449857D01*
X34247275Y-140480317D01*
X34251000Y-140518140D01*
X34251000Y-141081860D01*
X34247275Y-141119683D01*
X34238034Y-141150143D01*
X34223026Y-141178223D01*
X34202831Y-141202831D01*
X34178223Y-141223026D01*
X34150143Y-141238034D01*
X34119683Y-141247275D01*
X34081860Y-141251000D01*
X32718140Y-141251000D01*
X32680317Y-141247275D01*
X32649857Y-141238034D01*
X32621777Y-141223026D01*
X32597169Y-141202831D01*
X32576974Y-141178223D01*
X32561966Y-141150143D01*
X32552725Y-141119683D01*
X32549000Y-141081860D01*
X32549000Y-140518140D01*
X32552725Y-140480317D01*
X32561966Y-140449857D01*
X32576974Y-140421777D01*
X32597169Y-140397169D01*
X32621777Y-140376974D01*
X32649857Y-140361966D01*
X32680317Y-140352725D01*
X32718140Y-140349000D01*
X34081860Y-140349000D01*
X34119683Y-140352725D01*
X34119683Y-140352725D01*
G37*
G36*
X94874928Y-139201764D02*
G01*
X94896009Y-139208160D01*
X94915445Y-139218548D01*
X94932476Y-139232524D01*
X94946452Y-139249555D01*
X94956840Y-139268991D01*
X94963236Y-139290072D01*
X94966000Y-139318140D01*
X94966000Y-141131860D01*
X94963236Y-141159928D01*
X94956840Y-141181009D01*
X94946452Y-141200445D01*
X94932476Y-141217476D01*
X94915445Y-141231452D01*
X94896009Y-141241840D01*
X94874928Y-141248236D01*
X94846860Y-141251000D01*
X94383140Y-141251000D01*
X94355072Y-141248236D01*
X94333991Y-141241840D01*
X94314555Y-141231452D01*
X94297524Y-141217476D01*
X94283548Y-141200445D01*
X94273160Y-141181009D01*
X94266764Y-141159928D01*
X94264000Y-141131860D01*
X94264000Y-139318140D01*
X94266764Y-139290072D01*
X94273160Y-139268991D01*
X94283548Y-139249555D01*
X94297524Y-139232524D01*
X94314555Y-139218548D01*
X94333991Y-139208160D01*
X94355072Y-139201764D01*
X94383140Y-139199000D01*
X94846860Y-139199000D01*
X94874928Y-139201764D01*
X94874928Y-139201764D01*
G37*
G36*
X93604928Y-139201764D02*
G01*
X93626009Y-139208160D01*
X93645445Y-139218548D01*
X93662476Y-139232524D01*
X93676452Y-139249555D01*
X93686840Y-139268991D01*
X93693236Y-139290072D01*
X93696000Y-139318140D01*
X93696000Y-141131860D01*
X93693236Y-141159928D01*
X93686840Y-141181009D01*
X93676452Y-141200445D01*
X93662476Y-141217476D01*
X93645445Y-141231452D01*
X93626009Y-141241840D01*
X93604928Y-141248236D01*
X93576860Y-141251000D01*
X93113140Y-141251000D01*
X93085072Y-141248236D01*
X93063991Y-141241840D01*
X93044555Y-141231452D01*
X93027524Y-141217476D01*
X93013548Y-141200445D01*
X93003160Y-141181009D01*
X92996764Y-141159928D01*
X92994000Y-141131860D01*
X92994000Y-139318140D01*
X92996764Y-139290072D01*
X93003160Y-139268991D01*
X93013548Y-139249555D01*
X93027524Y-139232524D01*
X93044555Y-139218548D01*
X93063991Y-139208160D01*
X93085072Y-139201764D01*
X93113140Y-139199000D01*
X93576860Y-139199000D01*
X93604928Y-139201764D01*
X93604928Y-139201764D01*
G37*
G36*
X39867142Y-139498242D02*
G01*
X40015101Y-139559529D01*
X40148255Y-139648499D01*
X40261501Y-139761745D01*
X40350471Y-139894899D01*
X40411758Y-140042858D01*
X40443000Y-140199925D01*
X40443000Y-140360075D01*
X40411758Y-140517142D01*
X40350471Y-140665101D01*
X40261501Y-140798255D01*
X40148255Y-140911501D01*
X40015101Y-141000471D01*
X39867142Y-141061758D01*
X39710075Y-141093000D01*
X39549925Y-141093000D01*
X39392858Y-141061758D01*
X39244899Y-141000471D01*
X39111745Y-140911501D01*
X38998499Y-140798255D01*
X38909529Y-140665101D01*
X38848242Y-140517142D01*
X38817000Y-140360075D01*
X38817000Y-140199925D01*
X38848242Y-140042858D01*
X38909529Y-139894899D01*
X38998499Y-139761745D01*
X39111745Y-139648499D01*
X39244899Y-139559529D01*
X39392858Y-139498242D01*
X39549925Y-139467000D01*
X39710075Y-139467000D01*
X39867142Y-139498242D01*
X39867142Y-139498242D01*
G37*
G36*
X55107142Y-139498242D02*
G01*
X55255101Y-139559529D01*
X55388255Y-139648499D01*
X55501501Y-139761745D01*
X55590471Y-139894899D01*
X55651758Y-140042858D01*
X55683000Y-140199925D01*
X55683000Y-140360075D01*
X55651758Y-140517142D01*
X55590471Y-140665101D01*
X55501501Y-140798255D01*
X55388255Y-140911501D01*
X55255101Y-141000471D01*
X55107142Y-141061758D01*
X54950075Y-141093000D01*
X54789925Y-141093000D01*
X54632858Y-141061758D01*
X54484899Y-141000471D01*
X54351745Y-140911501D01*
X54238499Y-140798255D01*
X54149529Y-140665101D01*
X54088242Y-140517142D01*
X54057000Y-140360075D01*
X54057000Y-140199925D01*
X54088242Y-140042858D01*
X54149529Y-139894899D01*
X54238499Y-139761745D01*
X54351745Y-139648499D01*
X54484899Y-139559529D01*
X54632858Y-139498242D01*
X54789925Y-139467000D01*
X54950075Y-139467000D01*
X55107142Y-139498242D01*
X55107142Y-139498242D01*
G37*
G36*
X34119683Y-139102725D02*
G01*
X34150143Y-139111966D01*
X34178223Y-139126974D01*
X34202831Y-139147169D01*
X34223026Y-139171777D01*
X34238034Y-139199857D01*
X34247275Y-139230317D01*
X34251000Y-139268140D01*
X34251000Y-139831860D01*
X34247275Y-139869683D01*
X34238034Y-139900143D01*
X34223026Y-139928223D01*
X34202831Y-139952831D01*
X34178223Y-139973026D01*
X34150143Y-139988034D01*
X34119683Y-139997275D01*
X34081860Y-140001000D01*
X32718140Y-140001000D01*
X32680317Y-139997275D01*
X32649857Y-139988034D01*
X32621777Y-139973026D01*
X32597169Y-139952831D01*
X32576974Y-139928223D01*
X32561966Y-139900143D01*
X32552725Y-139869683D01*
X32549000Y-139831860D01*
X32549000Y-139268140D01*
X32552725Y-139230317D01*
X32561966Y-139199857D01*
X32576974Y-139171777D01*
X32597169Y-139147169D01*
X32621777Y-139126974D01*
X32649857Y-139111966D01*
X32680317Y-139102725D01*
X32718140Y-139099000D01*
X34081860Y-139099000D01*
X34119683Y-139102725D01*
X34119683Y-139102725D01*
G37*
G36*
X96669336Y-136557733D02*
G01*
X96699883Y-136566999D01*
X96728033Y-136582046D01*
X96752706Y-136602294D01*
X96772954Y-136626967D01*
X96788001Y-136655117D01*
X96797267Y-136685664D01*
X96801000Y-136723567D01*
X96801000Y-138776433D01*
X96797267Y-138814336D01*
X96788001Y-138844883D01*
X96772954Y-138873033D01*
X96752706Y-138897706D01*
X96728033Y-138917954D01*
X96699883Y-138933001D01*
X96669336Y-138942267D01*
X96631433Y-138946000D01*
X93868567Y-138946000D01*
X93830664Y-138942267D01*
X93800117Y-138933001D01*
X93771967Y-138917954D01*
X93747294Y-138897706D01*
X93727046Y-138873033D01*
X93711999Y-138844883D01*
X93702733Y-138814336D01*
X93699000Y-138776433D01*
X93699000Y-136723567D01*
X93702733Y-136685664D01*
X93711999Y-136655117D01*
X93727046Y-136626967D01*
X93747294Y-136602294D01*
X93771967Y-136582046D01*
X93800117Y-136566999D01*
X93830664Y-136557733D01*
X93868567Y-136554000D01*
X96631433Y-136554000D01*
X96669336Y-136557733D01*
X96669336Y-136557733D01*
G37*
G36*
X111989632Y-136722711D02*
G01*
X112057528Y-136736216D01*
X112249398Y-136815692D01*
X112422077Y-136931072D01*
X112568928Y-137077923D01*
X112589358Y-137108499D01*
X112684309Y-137250604D01*
X112763784Y-137442473D01*
X112804300Y-137646159D01*
X112804300Y-137853841D01*
X112779142Y-137980317D01*
X112763784Y-138057528D01*
X112684308Y-138249398D01*
X112568928Y-138422077D01*
X112422077Y-138568928D01*
X112249398Y-138684308D01*
X112057528Y-138763784D01*
X111993937Y-138776433D01*
X111853841Y-138804300D01*
X111646159Y-138804300D01*
X111506063Y-138776433D01*
X111442472Y-138763784D01*
X111250602Y-138684308D01*
X111077923Y-138568928D01*
X110931072Y-138422077D01*
X110815692Y-138249398D01*
X110736216Y-138057528D01*
X110720858Y-137980317D01*
X110695700Y-137853841D01*
X110695700Y-137646159D01*
X110736216Y-137442473D01*
X110815691Y-137250604D01*
X110910642Y-137108499D01*
X110931072Y-137077923D01*
X111077923Y-136931072D01*
X111250602Y-136815692D01*
X111442472Y-136736216D01*
X111510368Y-136722711D01*
X111646159Y-136695700D01*
X111853841Y-136695700D01*
X111989632Y-136722711D01*
X111989632Y-136722711D01*
G37*
G36*
X102789630Y-136722711D02*
G01*
X102857526Y-136736216D01*
X103049396Y-136815692D01*
X103222075Y-136931072D01*
X103368926Y-137077923D01*
X103389356Y-137108499D01*
X103484307Y-137250604D01*
X103563782Y-137442473D01*
X103604298Y-137646159D01*
X103604298Y-137853841D01*
X103579140Y-137980317D01*
X103563782Y-138057528D01*
X103484306Y-138249398D01*
X103368926Y-138422077D01*
X103222075Y-138568928D01*
X103049396Y-138684308D01*
X102857526Y-138763784D01*
X102793935Y-138776433D01*
X102653839Y-138804300D01*
X102446157Y-138804300D01*
X102306061Y-138776433D01*
X102242470Y-138763784D01*
X102050600Y-138684308D01*
X101877921Y-138568928D01*
X101731070Y-138422077D01*
X101615690Y-138249398D01*
X101536214Y-138057528D01*
X101520856Y-137980317D01*
X101495698Y-137853841D01*
X101495698Y-137646159D01*
X101536214Y-137442473D01*
X101615689Y-137250604D01*
X101710640Y-137108499D01*
X101731070Y-137077923D01*
X101877921Y-136931072D01*
X102050600Y-136815692D01*
X102242470Y-136736216D01*
X102310366Y-136722711D01*
X102446157Y-136695700D01*
X102653839Y-136695700D01*
X102789630Y-136722711D01*
X102789630Y-136722711D01*
G37*
G36*
X34119683Y-137852725D02*
G01*
X34150143Y-137861966D01*
X34178223Y-137876974D01*
X34202831Y-137897169D01*
X34223026Y-137921777D01*
X34238034Y-137949857D01*
X34247275Y-137980317D01*
X34251000Y-138018140D01*
X34251000Y-138581860D01*
X34247275Y-138619683D01*
X34238034Y-138650143D01*
X34223026Y-138678223D01*
X34202831Y-138702831D01*
X34178223Y-138723026D01*
X34150143Y-138738034D01*
X34119683Y-138747275D01*
X34081860Y-138751000D01*
X32718140Y-138751000D01*
X32680317Y-138747275D01*
X32649857Y-138738034D01*
X32621777Y-138723026D01*
X32597169Y-138702831D01*
X32576974Y-138678223D01*
X32561966Y-138650143D01*
X32552725Y-138619683D01*
X32549000Y-138581860D01*
X32549000Y-138018140D01*
X32552725Y-137980317D01*
X32561966Y-137949857D01*
X32576974Y-137921777D01*
X32597169Y-137897169D01*
X32621777Y-137876974D01*
X32649857Y-137861966D01*
X32680317Y-137852725D01*
X32718140Y-137849000D01*
X34081860Y-137849000D01*
X34119683Y-137852725D01*
X34119683Y-137852725D01*
G37*
G36*
X55107142Y-136958242D02*
G01*
X55255101Y-137019529D01*
X55388255Y-137108499D01*
X55501501Y-137221745D01*
X55590471Y-137354899D01*
X55651758Y-137502858D01*
X55683000Y-137659925D01*
X55683000Y-137820075D01*
X55651758Y-137977142D01*
X55590471Y-138125101D01*
X55501501Y-138258255D01*
X55388255Y-138371501D01*
X55255101Y-138460471D01*
X55107142Y-138521758D01*
X54950075Y-138553000D01*
X54789925Y-138553000D01*
X54632858Y-138521758D01*
X54484899Y-138460471D01*
X54351745Y-138371501D01*
X54238499Y-138258255D01*
X54149529Y-138125101D01*
X54088242Y-137977142D01*
X54057000Y-137820075D01*
X54057000Y-137659925D01*
X54088242Y-137502858D01*
X54149529Y-137354899D01*
X54238499Y-137221745D01*
X54351745Y-137108499D01*
X54484899Y-137019529D01*
X54632858Y-136958242D01*
X54789925Y-136927000D01*
X54950075Y-136927000D01*
X55107142Y-136958242D01*
X55107142Y-136958242D01*
G37*
G36*
X39867142Y-136958242D02*
G01*
X40015101Y-137019529D01*
X40148255Y-137108499D01*
X40261501Y-137221745D01*
X40350471Y-137354899D01*
X40411758Y-137502858D01*
X40443000Y-137659925D01*
X40443000Y-137820075D01*
X40411758Y-137977142D01*
X40350471Y-138125101D01*
X40261501Y-138258255D01*
X40148255Y-138371501D01*
X40015101Y-138460471D01*
X39867142Y-138521758D01*
X39710075Y-138553000D01*
X39549925Y-138553000D01*
X39392858Y-138521758D01*
X39244899Y-138460471D01*
X39111745Y-138371501D01*
X38998499Y-138258255D01*
X38909529Y-138125101D01*
X38848242Y-137977142D01*
X38817000Y-137820075D01*
X38817000Y-137659925D01*
X38848242Y-137502858D01*
X38909529Y-137354899D01*
X38998499Y-137221745D01*
X39111745Y-137108499D01*
X39244899Y-137019529D01*
X39392858Y-136958242D01*
X39549925Y-136927000D01*
X39710075Y-136927000D01*
X39867142Y-136958242D01*
X39867142Y-136958242D01*
G37*
G36*
X72951000Y-138201000D02*
G01*
X69549000Y-138201000D01*
X69549000Y-137599000D01*
X72951000Y-137599000D01*
X72951000Y-138201000D01*
X72951000Y-138201000D01*
G37*
G36*
X92121000Y-138121000D02*
G01*
X89479000Y-138121000D01*
X89479000Y-135349000D01*
X92121000Y-135349000D01*
X92121000Y-138121000D01*
X92121000Y-138121000D01*
G37*
G36*
X72951000Y-137201000D02*
G01*
X69549000Y-137201000D01*
X69549000Y-135799000D01*
X72951000Y-135799000D01*
X72951000Y-137201000D01*
X72951000Y-137201000D01*
G37*
G36*
X31916536Y-134652800D02*
G01*
X31947738Y-134662265D01*
X31976486Y-134677631D01*
X32001687Y-134698313D01*
X32022369Y-134723514D01*
X32037735Y-134752262D01*
X32047200Y-134783464D01*
X32051000Y-134822046D01*
X32051000Y-136677954D01*
X32047200Y-136716536D01*
X32037735Y-136747738D01*
X32022369Y-136776486D01*
X32001687Y-136801687D01*
X31976486Y-136822369D01*
X31947738Y-136837735D01*
X31916536Y-136847200D01*
X31877954Y-136851000D01*
X29122046Y-136851000D01*
X29083464Y-136847200D01*
X29052262Y-136837735D01*
X29023514Y-136822369D01*
X28998313Y-136801687D01*
X28977631Y-136776486D01*
X28962265Y-136747738D01*
X28952800Y-136716536D01*
X28949000Y-136677954D01*
X28949000Y-134822046D01*
X28952800Y-134783464D01*
X28962265Y-134752262D01*
X28977631Y-134723514D01*
X28998313Y-134698313D01*
X29023514Y-134677631D01*
X29052262Y-134662265D01*
X29083464Y-134652800D01*
X29122046Y-134649000D01*
X31877954Y-134649000D01*
X31916536Y-134652800D01*
X31916536Y-134652800D01*
G37*
G36*
X88400562Y-134678181D02*
G01*
X88435481Y-134688774D01*
X88467663Y-134705976D01*
X88495873Y-134729127D01*
X88519024Y-134757337D01*
X88536226Y-134789519D01*
X88546819Y-134824438D01*
X88551000Y-134866895D01*
X88551000Y-136333105D01*
X88546819Y-136375562D01*
X88536226Y-136410481D01*
X88519024Y-136442663D01*
X88495873Y-136470873D01*
X88467663Y-136494024D01*
X88435481Y-136511226D01*
X88400562Y-136521819D01*
X88358105Y-136526000D01*
X87216895Y-136526000D01*
X87174438Y-136521819D01*
X87139519Y-136511226D01*
X87107337Y-136494024D01*
X87079127Y-136470873D01*
X87055976Y-136442663D01*
X87038774Y-136410481D01*
X87028181Y-136375562D01*
X87024000Y-136333105D01*
X87024000Y-134866895D01*
X87028181Y-134824438D01*
X87038774Y-134789519D01*
X87055976Y-134757337D01*
X87079127Y-134729127D01*
X87107337Y-134705976D01*
X87139519Y-134688774D01*
X87174438Y-134678181D01*
X87216895Y-134674000D01*
X88358105Y-134674000D01*
X88400562Y-134678181D01*
X88400562Y-134678181D01*
G37*
G36*
X85425562Y-134678181D02*
G01*
X85460481Y-134688774D01*
X85492663Y-134705976D01*
X85520873Y-134729127D01*
X85544024Y-134757337D01*
X85561226Y-134789519D01*
X85571819Y-134824438D01*
X85576000Y-134866895D01*
X85576000Y-136333105D01*
X85571819Y-136375562D01*
X85561226Y-136410481D01*
X85544024Y-136442663D01*
X85520873Y-136470873D01*
X85492663Y-136494024D01*
X85460481Y-136511226D01*
X85425562Y-136521819D01*
X85383105Y-136526000D01*
X84241895Y-136526000D01*
X84199438Y-136521819D01*
X84164519Y-136511226D01*
X84132337Y-136494024D01*
X84104127Y-136470873D01*
X84080976Y-136442663D01*
X84063774Y-136410481D01*
X84053181Y-136375562D01*
X84049000Y-136333105D01*
X84049000Y-134866895D01*
X84053181Y-134824438D01*
X84063774Y-134789519D01*
X84080976Y-134757337D01*
X84104127Y-134729127D01*
X84132337Y-134705976D01*
X84164519Y-134688774D01*
X84199438Y-134678181D01*
X84241895Y-134674000D01*
X85383105Y-134674000D01*
X85425562Y-134678181D01*
X85425562Y-134678181D01*
G37*
G36*
X97414928Y-134251764D02*
G01*
X97436009Y-134258160D01*
X97455445Y-134268548D01*
X97472476Y-134282524D01*
X97486452Y-134299555D01*
X97496840Y-134318991D01*
X97503236Y-134340072D01*
X97506000Y-134368140D01*
X97506000Y-136181860D01*
X97503236Y-136209928D01*
X97496840Y-136231009D01*
X97486452Y-136250445D01*
X97472476Y-136267476D01*
X97455445Y-136281452D01*
X97436009Y-136291840D01*
X97414928Y-136298236D01*
X97386860Y-136301000D01*
X96923140Y-136301000D01*
X96895072Y-136298236D01*
X96873991Y-136291840D01*
X96854555Y-136281452D01*
X96837524Y-136267476D01*
X96823548Y-136250445D01*
X96813160Y-136231009D01*
X96806764Y-136209928D01*
X96804000Y-136181860D01*
X96804000Y-134368140D01*
X96806764Y-134340072D01*
X96813160Y-134318991D01*
X96823548Y-134299555D01*
X96837524Y-134282524D01*
X96854555Y-134268548D01*
X96873991Y-134258160D01*
X96895072Y-134251764D01*
X96923140Y-134249000D01*
X97386860Y-134249000D01*
X97414928Y-134251764D01*
X97414928Y-134251764D01*
G37*
G36*
X96144928Y-134251764D02*
G01*
X96166009Y-134258160D01*
X96185445Y-134268548D01*
X96202476Y-134282524D01*
X96216452Y-134299555D01*
X96226840Y-134318991D01*
X96233236Y-134340072D01*
X96236000Y-134368140D01*
X96236000Y-136181860D01*
X96233236Y-136209928D01*
X96226840Y-136231009D01*
X96216452Y-136250445D01*
X96202476Y-136267476D01*
X96185445Y-136281452D01*
X96166009Y-136291840D01*
X96144928Y-136298236D01*
X96116860Y-136301000D01*
X95653140Y-136301000D01*
X95625072Y-136298236D01*
X95603991Y-136291840D01*
X95584555Y-136281452D01*
X95567524Y-136267476D01*
X95553548Y-136250445D01*
X95543160Y-136231009D01*
X95536764Y-136209928D01*
X95534000Y-136181860D01*
X95534000Y-134368140D01*
X95536764Y-134340072D01*
X95543160Y-134318991D01*
X95553548Y-134299555D01*
X95567524Y-134282524D01*
X95584555Y-134268548D01*
X95603991Y-134258160D01*
X95625072Y-134251764D01*
X95653140Y-134249000D01*
X96116860Y-134249000D01*
X96144928Y-134251764D01*
X96144928Y-134251764D01*
G37*
G36*
X94874928Y-134251764D02*
G01*
X94896009Y-134258160D01*
X94915445Y-134268548D01*
X94932476Y-134282524D01*
X94946452Y-134299555D01*
X94956840Y-134318991D01*
X94963236Y-134340072D01*
X94966000Y-134368140D01*
X94966000Y-136181860D01*
X94963236Y-136209928D01*
X94956840Y-136231009D01*
X94946452Y-136250445D01*
X94932476Y-136267476D01*
X94915445Y-136281452D01*
X94896009Y-136291840D01*
X94874928Y-136298236D01*
X94846860Y-136301000D01*
X94383140Y-136301000D01*
X94355072Y-136298236D01*
X94333991Y-136291840D01*
X94314555Y-136281452D01*
X94297524Y-136267476D01*
X94283548Y-136250445D01*
X94273160Y-136231009D01*
X94266764Y-136209928D01*
X94264000Y-136181860D01*
X94264000Y-134368140D01*
X94266764Y-134340072D01*
X94273160Y-134318991D01*
X94283548Y-134299555D01*
X94297524Y-134282524D01*
X94314555Y-134268548D01*
X94333991Y-134258160D01*
X94355072Y-134251764D01*
X94383140Y-134249000D01*
X94846860Y-134249000D01*
X94874928Y-134251764D01*
X94874928Y-134251764D01*
G37*
G36*
X93604928Y-134251764D02*
G01*
X93626009Y-134258160D01*
X93645445Y-134268548D01*
X93662476Y-134282524D01*
X93676452Y-134299555D01*
X93686840Y-134318991D01*
X93693236Y-134340072D01*
X93696000Y-134368140D01*
X93696000Y-136181860D01*
X93693236Y-136209928D01*
X93686840Y-136231009D01*
X93676452Y-136250445D01*
X93662476Y-136267476D01*
X93645445Y-136281452D01*
X93626009Y-136291840D01*
X93604928Y-136298236D01*
X93576860Y-136301000D01*
X93113140Y-136301000D01*
X93085072Y-136298236D01*
X93063991Y-136291840D01*
X93044555Y-136281452D01*
X93027524Y-136267476D01*
X93013548Y-136250445D01*
X93003160Y-136231009D01*
X92996764Y-136209928D01*
X92994000Y-136181860D01*
X92994000Y-134368140D01*
X92996764Y-134340072D01*
X93003160Y-134318991D01*
X93013548Y-134299555D01*
X93027524Y-134282524D01*
X93044555Y-134268548D01*
X93063991Y-134258160D01*
X93085072Y-134251764D01*
X93113140Y-134249000D01*
X93576860Y-134249000D01*
X93604928Y-134251764D01*
X93604928Y-134251764D01*
G37*
G36*
X39867142Y-134418242D02*
G01*
X40015101Y-134479529D01*
X40148255Y-134568499D01*
X40261501Y-134681745D01*
X40350471Y-134814899D01*
X40411758Y-134962858D01*
X40443000Y-135119925D01*
X40443000Y-135280075D01*
X40411758Y-135437142D01*
X40350471Y-135585101D01*
X40261501Y-135718255D01*
X40148255Y-135831501D01*
X40015101Y-135920471D01*
X39867142Y-135981758D01*
X39710075Y-136013000D01*
X39549925Y-136013000D01*
X39392858Y-135981758D01*
X39244899Y-135920471D01*
X39111745Y-135831501D01*
X38998499Y-135718255D01*
X38909529Y-135585101D01*
X38848242Y-135437142D01*
X38817000Y-135280075D01*
X38817000Y-135119925D01*
X38848242Y-134962858D01*
X38909529Y-134814899D01*
X38998499Y-134681745D01*
X39111745Y-134568499D01*
X39244899Y-134479529D01*
X39392858Y-134418242D01*
X39549925Y-134387000D01*
X39710075Y-134387000D01*
X39867142Y-134418242D01*
X39867142Y-134418242D01*
G37*
G36*
X55107142Y-134418242D02*
G01*
X55255101Y-134479529D01*
X55388255Y-134568499D01*
X55501501Y-134681745D01*
X55590471Y-134814899D01*
X55651758Y-134962858D01*
X55683000Y-135119925D01*
X55683000Y-135280075D01*
X55651758Y-135437142D01*
X55590471Y-135585101D01*
X55501501Y-135718255D01*
X55388255Y-135831501D01*
X55255101Y-135920471D01*
X55107142Y-135981758D01*
X54950075Y-136013000D01*
X54789925Y-136013000D01*
X54632858Y-135981758D01*
X54484899Y-135920471D01*
X54351745Y-135831501D01*
X54238499Y-135718255D01*
X54149529Y-135585101D01*
X54088242Y-135437142D01*
X54057000Y-135280075D01*
X54057000Y-135119925D01*
X54088242Y-134962858D01*
X54149529Y-134814899D01*
X54238499Y-134681745D01*
X54351745Y-134568499D01*
X54484899Y-134479529D01*
X54632858Y-134418242D01*
X54789925Y-134387000D01*
X54950075Y-134387000D01*
X55107142Y-134418242D01*
X55107142Y-134418242D01*
G37*
G36*
X72951000Y-135401000D02*
G01*
X69549000Y-135401000D01*
X69549000Y-134799000D01*
X72951000Y-134799000D01*
X72951000Y-135401000D01*
X72951000Y-135401000D01*
G37*
G36*
X91486000Y-134816000D02*
G01*
X90114000Y-134816000D01*
X90114000Y-133952000D01*
X91486000Y-133952000D01*
X91486000Y-134816000D01*
X91486000Y-134816000D01*
G37*
G36*
X39867142Y-131878242D02*
G01*
X40015101Y-131939529D01*
X40148255Y-132028499D01*
X40261501Y-132141745D01*
X40350471Y-132274899D01*
X40411758Y-132422858D01*
X40443000Y-132579925D01*
X40443000Y-132740075D01*
X40411758Y-132897142D01*
X40350471Y-133045101D01*
X40261501Y-133178255D01*
X40148255Y-133291501D01*
X40015101Y-133380471D01*
X39867142Y-133441758D01*
X39710075Y-133473000D01*
X39549925Y-133473000D01*
X39392858Y-133441758D01*
X39244899Y-133380471D01*
X39111745Y-133291501D01*
X38998499Y-133178255D01*
X38909529Y-133045101D01*
X38848242Y-132897142D01*
X38817000Y-132740075D01*
X38817000Y-132579925D01*
X38848242Y-132422858D01*
X38909529Y-132274899D01*
X38998499Y-132141745D01*
X39111745Y-132028499D01*
X39244899Y-131939529D01*
X39392858Y-131878242D01*
X39549925Y-131847000D01*
X39710075Y-131847000D01*
X39867142Y-131878242D01*
X39867142Y-131878242D01*
G37*
G36*
X55107142Y-131878242D02*
G01*
X55255101Y-131939529D01*
X55388255Y-132028499D01*
X55501501Y-132141745D01*
X55590471Y-132274899D01*
X55651758Y-132422858D01*
X55683000Y-132579925D01*
X55683000Y-132740075D01*
X55651758Y-132897142D01*
X55590471Y-133045101D01*
X55501501Y-133178255D01*
X55388255Y-133291501D01*
X55255101Y-133380471D01*
X55107142Y-133441758D01*
X54950075Y-133473000D01*
X54789925Y-133473000D01*
X54632858Y-133441758D01*
X54484899Y-133380471D01*
X54351745Y-133291501D01*
X54238499Y-133178255D01*
X54149529Y-133045101D01*
X54088242Y-132897142D01*
X54057000Y-132740075D01*
X54057000Y-132579925D01*
X54088242Y-132422858D01*
X54149529Y-132274899D01*
X54238499Y-132141745D01*
X54351745Y-132028499D01*
X54484899Y-131939529D01*
X54632858Y-131878242D01*
X54789925Y-131847000D01*
X54950075Y-131847000D01*
X55107142Y-131878242D01*
X55107142Y-131878242D01*
G37*
G36*
X88476000Y-133301000D02*
G01*
X85924000Y-133301000D01*
X85924000Y-128299000D01*
X88476000Y-128299000D01*
X88476000Y-133301000D01*
X88476000Y-133301000D01*
G37*
G36*
X92076000Y-133301000D02*
G01*
X89524000Y-133301000D01*
X89524000Y-128299000D01*
X92076000Y-128299000D01*
X92076000Y-133301000D01*
X92076000Y-133301000D01*
G37*
G36*
X49775562Y-131728181D02*
G01*
X49810481Y-131738774D01*
X49842663Y-131755976D01*
X49870873Y-131779127D01*
X49894024Y-131807337D01*
X49911226Y-131839519D01*
X49921819Y-131874438D01*
X49926000Y-131916895D01*
X49926000Y-133058105D01*
X49921819Y-133100562D01*
X49911226Y-133135481D01*
X49894024Y-133167663D01*
X49870873Y-133195873D01*
X49842663Y-133219024D01*
X49810481Y-133236226D01*
X49775562Y-133246819D01*
X49733105Y-133251000D01*
X48266895Y-133251000D01*
X48224438Y-133246819D01*
X48189519Y-133236226D01*
X48157337Y-133219024D01*
X48129127Y-133195873D01*
X48105976Y-133167663D01*
X48088774Y-133135481D01*
X48078181Y-133100562D01*
X48074000Y-133058105D01*
X48074000Y-131916895D01*
X48078181Y-131874438D01*
X48088774Y-131839519D01*
X48105976Y-131807337D01*
X48129127Y-131779127D01*
X48157337Y-131755976D01*
X48189519Y-131738774D01*
X48224438Y-131728181D01*
X48266895Y-131724000D01*
X49733105Y-131724000D01*
X49775562Y-131728181D01*
X49775562Y-131728181D01*
G37*
G36*
X45775562Y-131728181D02*
G01*
X45810481Y-131738774D01*
X45842663Y-131755976D01*
X45870873Y-131779127D01*
X45894024Y-131807337D01*
X45911226Y-131839519D01*
X45921819Y-131874438D01*
X45926000Y-131916895D01*
X45926000Y-133058105D01*
X45921819Y-133100562D01*
X45911226Y-133135481D01*
X45894024Y-133167663D01*
X45870873Y-133195873D01*
X45842663Y-133219024D01*
X45810481Y-133236226D01*
X45775562Y-133246819D01*
X45733105Y-133251000D01*
X44266895Y-133251000D01*
X44224438Y-133246819D01*
X44189519Y-133236226D01*
X44157337Y-133219024D01*
X44129127Y-133195873D01*
X44105976Y-133167663D01*
X44088774Y-133135481D01*
X44078181Y-133100562D01*
X44074000Y-133058105D01*
X44074000Y-131916895D01*
X44078181Y-131874438D01*
X44088774Y-131839519D01*
X44105976Y-131807337D01*
X44129127Y-131779127D01*
X44157337Y-131755976D01*
X44189519Y-131738774D01*
X44224438Y-131728181D01*
X44266895Y-131724000D01*
X45733105Y-131724000D01*
X45775562Y-131728181D01*
X45775562Y-131728181D01*
G37*
G36*
X96575562Y-130928181D02*
G01*
X96610481Y-130938774D01*
X96642663Y-130955976D01*
X96670873Y-130979127D01*
X96694024Y-131007337D01*
X96711226Y-131039519D01*
X96721819Y-131074438D01*
X96726000Y-131116895D01*
X96726000Y-132258105D01*
X96721819Y-132300562D01*
X96711226Y-132335481D01*
X96694024Y-132367663D01*
X96670873Y-132395873D01*
X96642663Y-132419024D01*
X96610481Y-132436226D01*
X96575562Y-132446819D01*
X96533105Y-132451000D01*
X95066895Y-132451000D01*
X95024438Y-132446819D01*
X94989519Y-132436226D01*
X94957337Y-132419024D01*
X94929127Y-132395873D01*
X94905976Y-132367663D01*
X94888774Y-132335481D01*
X94878181Y-132300562D01*
X94874000Y-132258105D01*
X94874000Y-131116895D01*
X94878181Y-131074438D01*
X94888774Y-131039519D01*
X94905976Y-131007337D01*
X94929127Y-130979127D01*
X94957337Y-130955976D01*
X94989519Y-130938774D01*
X95024438Y-130928181D01*
X95066895Y-130924000D01*
X96533105Y-130924000D01*
X96575562Y-130928181D01*
X96575562Y-130928181D01*
G37*
G36*
X99175562Y-130928181D02*
G01*
X99210481Y-130938774D01*
X99242663Y-130955976D01*
X99270873Y-130979127D01*
X99294024Y-131007337D01*
X99311226Y-131039519D01*
X99321819Y-131074438D01*
X99326000Y-131116895D01*
X99326000Y-132258105D01*
X99321819Y-132300562D01*
X99311226Y-132335481D01*
X99294024Y-132367663D01*
X99270873Y-132395873D01*
X99242663Y-132419024D01*
X99210481Y-132436226D01*
X99175562Y-132446819D01*
X99133105Y-132451000D01*
X97666895Y-132451000D01*
X97624438Y-132446819D01*
X97589519Y-132436226D01*
X97557337Y-132419024D01*
X97529127Y-132395873D01*
X97505976Y-132367663D01*
X97488774Y-132335481D01*
X97478181Y-132300562D01*
X97474000Y-132258105D01*
X97474000Y-131116895D01*
X97478181Y-131074438D01*
X97488774Y-131039519D01*
X97505976Y-131007337D01*
X97529127Y-130979127D01*
X97557337Y-130955976D01*
X97589519Y-130938774D01*
X97624438Y-130928181D01*
X97666895Y-130924000D01*
X99133105Y-130924000D01*
X99175562Y-130928181D01*
X99175562Y-130928181D01*
G37*
G36*
X55107142Y-129338242D02*
G01*
X55255101Y-129399529D01*
X55388255Y-129488499D01*
X55501501Y-129601745D01*
X55590471Y-129734899D01*
X55651758Y-129882858D01*
X55683000Y-130039925D01*
X55683000Y-130200075D01*
X55651758Y-130357142D01*
X55590471Y-130505101D01*
X55501501Y-130638255D01*
X55388255Y-130751501D01*
X55255101Y-130840471D01*
X55107142Y-130901758D01*
X54950075Y-130933000D01*
X54789925Y-130933000D01*
X54632858Y-130901758D01*
X54484899Y-130840471D01*
X54351745Y-130751501D01*
X54238499Y-130638255D01*
X54149529Y-130505101D01*
X54088242Y-130357142D01*
X54057000Y-130200075D01*
X54057000Y-130039925D01*
X54088242Y-129882858D01*
X54149529Y-129734899D01*
X54238499Y-129601745D01*
X54351745Y-129488499D01*
X54484899Y-129399529D01*
X54632858Y-129338242D01*
X54789925Y-129307000D01*
X54950075Y-129307000D01*
X55107142Y-129338242D01*
X55107142Y-129338242D01*
G37*
G36*
X39867142Y-129338242D02*
G01*
X40015101Y-129399529D01*
X40148255Y-129488499D01*
X40261501Y-129601745D01*
X40350471Y-129734899D01*
X40411758Y-129882858D01*
X40443000Y-130039925D01*
X40443000Y-130200075D01*
X40411758Y-130357142D01*
X40350471Y-130505101D01*
X40261501Y-130638255D01*
X40148255Y-130751501D01*
X40015101Y-130840471D01*
X39867142Y-130901758D01*
X39710075Y-130933000D01*
X39549925Y-130933000D01*
X39392858Y-130901758D01*
X39244899Y-130840471D01*
X39111745Y-130751501D01*
X38998499Y-130638255D01*
X38909529Y-130505101D01*
X38848242Y-130357142D01*
X38817000Y-130200075D01*
X38817000Y-130039925D01*
X38848242Y-129882858D01*
X38909529Y-129734899D01*
X38998499Y-129601745D01*
X39111745Y-129488499D01*
X39244899Y-129399529D01*
X39392858Y-129338242D01*
X39549925Y-129307000D01*
X39710075Y-129307000D01*
X39867142Y-129338242D01*
X39867142Y-129338242D01*
G37*
G36*
X111989632Y-128722712D02*
G01*
X112057528Y-128736217D01*
X112249398Y-128815693D01*
X112422077Y-128931073D01*
X112568928Y-129077924D01*
X112684308Y-129250603D01*
X112763784Y-129442473D01*
X112766397Y-129455608D01*
X112804300Y-129646160D01*
X112804300Y-129853842D01*
X112798528Y-129882858D01*
X112763784Y-130057529D01*
X112721139Y-130160481D01*
X112686535Y-130244024D01*
X112684308Y-130249399D01*
X112568928Y-130422078D01*
X112422077Y-130568929D01*
X112249398Y-130684309D01*
X112057528Y-130763785D01*
X111989632Y-130777290D01*
X111853841Y-130804301D01*
X111646159Y-130804301D01*
X111510368Y-130777290D01*
X111442472Y-130763785D01*
X111250602Y-130684309D01*
X111077923Y-130568929D01*
X110931072Y-130422078D01*
X110815692Y-130249399D01*
X110813466Y-130244024D01*
X110778861Y-130160481D01*
X110736216Y-130057529D01*
X110701472Y-129882858D01*
X110695700Y-129853842D01*
X110695700Y-129646160D01*
X110733603Y-129455608D01*
X110736216Y-129442473D01*
X110815692Y-129250603D01*
X110931072Y-129077924D01*
X111077923Y-128931073D01*
X111250602Y-128815693D01*
X111442472Y-128736217D01*
X111510368Y-128722712D01*
X111646159Y-128695701D01*
X111853841Y-128695701D01*
X111989632Y-128722712D01*
X111989632Y-128722712D01*
G37*
G36*
X102789630Y-128722712D02*
G01*
X102857526Y-128736217D01*
X103049396Y-128815693D01*
X103222075Y-128931073D01*
X103368926Y-129077924D01*
X103484306Y-129250603D01*
X103563782Y-129442473D01*
X103566395Y-129455608D01*
X103604298Y-129646160D01*
X103604298Y-129853842D01*
X103598526Y-129882858D01*
X103563782Y-130057529D01*
X103521137Y-130160481D01*
X103486533Y-130244024D01*
X103484306Y-130249399D01*
X103368926Y-130422078D01*
X103222075Y-130568929D01*
X103049396Y-130684309D01*
X102857526Y-130763785D01*
X102789630Y-130777290D01*
X102653839Y-130804301D01*
X102446157Y-130804301D01*
X102310366Y-130777290D01*
X102242470Y-130763785D01*
X102050600Y-130684309D01*
X101877921Y-130568929D01*
X101731070Y-130422078D01*
X101615690Y-130249399D01*
X101613464Y-130244024D01*
X101578859Y-130160481D01*
X101536214Y-130057529D01*
X101501470Y-129882858D01*
X101495698Y-129853842D01*
X101495698Y-129646160D01*
X101533601Y-129455608D01*
X101536214Y-129442473D01*
X101615690Y-129250603D01*
X101731070Y-129077924D01*
X101877921Y-128931073D01*
X102050600Y-128815693D01*
X102242470Y-128736217D01*
X102310366Y-128722712D01*
X102446157Y-128695701D01*
X102653839Y-128695701D01*
X102789630Y-128722712D01*
X102789630Y-128722712D01*
G37*
G36*
X45775562Y-128753181D02*
G01*
X45810481Y-128763774D01*
X45842663Y-128780976D01*
X45870873Y-128804127D01*
X45894024Y-128832337D01*
X45911226Y-128864519D01*
X45921819Y-128899438D01*
X45926000Y-128941895D01*
X45926000Y-130083105D01*
X45921819Y-130125562D01*
X45911226Y-130160481D01*
X45894024Y-130192663D01*
X45870873Y-130220873D01*
X45842663Y-130244024D01*
X45810481Y-130261226D01*
X45775562Y-130271819D01*
X45733105Y-130276000D01*
X44266895Y-130276000D01*
X44224438Y-130271819D01*
X44189519Y-130261226D01*
X44157337Y-130244024D01*
X44129127Y-130220873D01*
X44105976Y-130192663D01*
X44088774Y-130160481D01*
X44078181Y-130125562D01*
X44074000Y-130083105D01*
X44074000Y-128941895D01*
X44078181Y-128899438D01*
X44088774Y-128864519D01*
X44105976Y-128832337D01*
X44129127Y-128804127D01*
X44157337Y-128780976D01*
X44189519Y-128763774D01*
X44224438Y-128753181D01*
X44266895Y-128749000D01*
X45733105Y-128749000D01*
X45775562Y-128753181D01*
X45775562Y-128753181D01*
G37*
G36*
X49775562Y-128753181D02*
G01*
X49810481Y-128763774D01*
X49842663Y-128780976D01*
X49870873Y-128804127D01*
X49894024Y-128832337D01*
X49911226Y-128864519D01*
X49921819Y-128899438D01*
X49926000Y-128941895D01*
X49926000Y-130083105D01*
X49921819Y-130125562D01*
X49911226Y-130160481D01*
X49894024Y-130192663D01*
X49870873Y-130220873D01*
X49842663Y-130244024D01*
X49810481Y-130261226D01*
X49775562Y-130271819D01*
X49733105Y-130276000D01*
X48266895Y-130276000D01*
X48224438Y-130271819D01*
X48189519Y-130261226D01*
X48157337Y-130244024D01*
X48129127Y-130220873D01*
X48105976Y-130192663D01*
X48088774Y-130160481D01*
X48078181Y-130125562D01*
X48074000Y-130083105D01*
X48074000Y-128941895D01*
X48078181Y-128899438D01*
X48088774Y-128864519D01*
X48105976Y-128832337D01*
X48129127Y-128804127D01*
X48157337Y-128780976D01*
X48189519Y-128763774D01*
X48224438Y-128753181D01*
X48266895Y-128749000D01*
X49733105Y-128749000D01*
X49775562Y-128753181D01*
X49775562Y-128753181D01*
G37*
G36*
X96575562Y-127953181D02*
G01*
X96610481Y-127963774D01*
X96642663Y-127980976D01*
X96670873Y-128004127D01*
X96694024Y-128032337D01*
X96711226Y-128064519D01*
X96721819Y-128099438D01*
X96726000Y-128141895D01*
X96726000Y-129283105D01*
X96721819Y-129325562D01*
X96711226Y-129360481D01*
X96694024Y-129392663D01*
X96670873Y-129420873D01*
X96642663Y-129444024D01*
X96610481Y-129461226D01*
X96575562Y-129471819D01*
X96533105Y-129476000D01*
X95066895Y-129476000D01*
X95024438Y-129471819D01*
X94989519Y-129461226D01*
X94957337Y-129444024D01*
X94929127Y-129420873D01*
X94905976Y-129392663D01*
X94888774Y-129360481D01*
X94878181Y-129325562D01*
X94874000Y-129283105D01*
X94874000Y-128141895D01*
X94878181Y-128099438D01*
X94888774Y-128064519D01*
X94905976Y-128032337D01*
X94929127Y-128004127D01*
X94957337Y-127980976D01*
X94989519Y-127963774D01*
X95024438Y-127953181D01*
X95066895Y-127949000D01*
X96533105Y-127949000D01*
X96575562Y-127953181D01*
X96575562Y-127953181D01*
G37*
G36*
X99175562Y-127953181D02*
G01*
X99210481Y-127963774D01*
X99242663Y-127980976D01*
X99270873Y-128004127D01*
X99294024Y-128032337D01*
X99311226Y-128064519D01*
X99321819Y-128099438D01*
X99326000Y-128141895D01*
X99326000Y-129283105D01*
X99321819Y-129325562D01*
X99311226Y-129360481D01*
X99294024Y-129392663D01*
X99270873Y-129420873D01*
X99242663Y-129444024D01*
X99210481Y-129461226D01*
X99175562Y-129471819D01*
X99133105Y-129476000D01*
X97666895Y-129476000D01*
X97624438Y-129471819D01*
X97589519Y-129461226D01*
X97557337Y-129444024D01*
X97529127Y-129420873D01*
X97505976Y-129392663D01*
X97488774Y-129360481D01*
X97478181Y-129325562D01*
X97474000Y-129283105D01*
X97474000Y-128141895D01*
X97478181Y-128099438D01*
X97488774Y-128064519D01*
X97505976Y-128032337D01*
X97529127Y-128004127D01*
X97557337Y-127980976D01*
X97589519Y-127963774D01*
X97624438Y-127953181D01*
X97666895Y-127949000D01*
X99133105Y-127949000D01*
X99175562Y-127953181D01*
X99175562Y-127953181D01*
G37*
G36*
X39867142Y-126798242D02*
G01*
X40015101Y-126859529D01*
X40148255Y-126948499D01*
X40261501Y-127061745D01*
X40350471Y-127194899D01*
X40411758Y-127342858D01*
X40443000Y-127499925D01*
X40443000Y-127660075D01*
X40411758Y-127817142D01*
X40350471Y-127965101D01*
X40261501Y-128098255D01*
X40148255Y-128211501D01*
X40015101Y-128300471D01*
X39867142Y-128361758D01*
X39710075Y-128393000D01*
X39549925Y-128393000D01*
X39392858Y-128361758D01*
X39244899Y-128300471D01*
X39111745Y-128211501D01*
X38998499Y-128098255D01*
X38909529Y-127965101D01*
X38848242Y-127817142D01*
X38817000Y-127660075D01*
X38817000Y-127499925D01*
X38848242Y-127342858D01*
X38909529Y-127194899D01*
X38998499Y-127061745D01*
X39111745Y-126948499D01*
X39244899Y-126859529D01*
X39392858Y-126798242D01*
X39549925Y-126767000D01*
X39710075Y-126767000D01*
X39867142Y-126798242D01*
X39867142Y-126798242D01*
G37*
G36*
X55107142Y-126798242D02*
G01*
X55255101Y-126859529D01*
X55388255Y-126948499D01*
X55501501Y-127061745D01*
X55590471Y-127194899D01*
X55651758Y-127342858D01*
X55683000Y-127499925D01*
X55683000Y-127660075D01*
X55651758Y-127817142D01*
X55590471Y-127965101D01*
X55501501Y-128098255D01*
X55388255Y-128211501D01*
X55255101Y-128300471D01*
X55107142Y-128361758D01*
X54950075Y-128393000D01*
X54789925Y-128393000D01*
X54632858Y-128361758D01*
X54484899Y-128300471D01*
X54351745Y-128211501D01*
X54238499Y-128098255D01*
X54149529Y-127965101D01*
X54088242Y-127817142D01*
X54057000Y-127660075D01*
X54057000Y-127499925D01*
X54088242Y-127342858D01*
X54149529Y-127194899D01*
X54238499Y-127061745D01*
X54351745Y-126948499D01*
X54484899Y-126859529D01*
X54632858Y-126798242D01*
X54789925Y-126767000D01*
X54950075Y-126767000D01*
X55107142Y-126798242D01*
X55107142Y-126798242D01*
G37*
G36*
X55107142Y-124258242D02*
G01*
X55255101Y-124319529D01*
X55388255Y-124408499D01*
X55501501Y-124521745D01*
X55590471Y-124654899D01*
X55651758Y-124802858D01*
X55683000Y-124959925D01*
X55683000Y-125120075D01*
X55651758Y-125277142D01*
X55590471Y-125425101D01*
X55501501Y-125558255D01*
X55388255Y-125671501D01*
X55255101Y-125760471D01*
X55107142Y-125821758D01*
X54950075Y-125853000D01*
X54789925Y-125853000D01*
X54632858Y-125821758D01*
X54484899Y-125760471D01*
X54351745Y-125671501D01*
X54238499Y-125558255D01*
X54149529Y-125425101D01*
X54088242Y-125277142D01*
X54057000Y-125120075D01*
X54057000Y-124959925D01*
X54088242Y-124802858D01*
X54149529Y-124654899D01*
X54238499Y-124521745D01*
X54351745Y-124408499D01*
X54484899Y-124319529D01*
X54632858Y-124258242D01*
X54789925Y-124227000D01*
X54950075Y-124227000D01*
X55107142Y-124258242D01*
X55107142Y-124258242D01*
G37*
G36*
X39867142Y-124258242D02*
G01*
X40015101Y-124319529D01*
X40148255Y-124408499D01*
X40261501Y-124521745D01*
X40350471Y-124654899D01*
X40411758Y-124802858D01*
X40443000Y-124959925D01*
X40443000Y-125120075D01*
X40411758Y-125277142D01*
X40350471Y-125425101D01*
X40261501Y-125558255D01*
X40148255Y-125671501D01*
X40015101Y-125760471D01*
X39867142Y-125821758D01*
X39710075Y-125853000D01*
X39549925Y-125853000D01*
X39392858Y-125821758D01*
X39244899Y-125760471D01*
X39111745Y-125671501D01*
X38998499Y-125558255D01*
X38909529Y-125425101D01*
X38848242Y-125277142D01*
X38817000Y-125120075D01*
X38817000Y-124959925D01*
X38848242Y-124802858D01*
X38909529Y-124654899D01*
X38998499Y-124521745D01*
X39111745Y-124408499D01*
X39244899Y-124319529D01*
X39392858Y-124258242D01*
X39549925Y-124227000D01*
X39710075Y-124227000D01*
X39867142Y-124258242D01*
X39867142Y-124258242D01*
G37*
G36*
X109774462Y-118789631D02*
G01*
X110198282Y-118873934D01*
X110789926Y-119119001D01*
X111322392Y-119474784D01*
X111775216Y-119927608D01*
X112130999Y-120460074D01*
X112376066Y-121051718D01*
X112376066Y-121051719D01*
X112501000Y-121679803D01*
X112501000Y-122320197D01*
X112438533Y-122634239D01*
X112376066Y-122948282D01*
X112130999Y-123539926D01*
X111775216Y-124072392D01*
X111322392Y-124525216D01*
X110789926Y-124880999D01*
X110198282Y-125126066D01*
X109884239Y-125188533D01*
X109570197Y-125251000D01*
X108929803Y-125251000D01*
X108615761Y-125188533D01*
X108301718Y-125126066D01*
X107710074Y-124880999D01*
X107177608Y-124525216D01*
X106724784Y-124072392D01*
X106369001Y-123539926D01*
X106123934Y-122948282D01*
X106061467Y-122634239D01*
X105999000Y-122320197D01*
X105999000Y-121679803D01*
X106123934Y-121051719D01*
X106123934Y-121051718D01*
X106369001Y-120460074D01*
X106724784Y-119927608D01*
X107177608Y-119474784D01*
X107710074Y-119119001D01*
X108301718Y-118873934D01*
X108725538Y-118789631D01*
X108929803Y-118749000D01*
X109570197Y-118749000D01*
X109774462Y-118789631D01*
X109774462Y-118789631D01*
G37*
G36*
X33274462Y-118789631D02*
G01*
X33698282Y-118873934D01*
X34289926Y-119119001D01*
X34822392Y-119474784D01*
X35275216Y-119927608D01*
X35630999Y-120460074D01*
X35876066Y-121051718D01*
X35876066Y-121051719D01*
X36001000Y-121679803D01*
X36001000Y-122320197D01*
X35938533Y-122634239D01*
X35876066Y-122948282D01*
X35630999Y-123539926D01*
X35275216Y-124072392D01*
X34822392Y-124525216D01*
X34289926Y-124880999D01*
X33698282Y-125126066D01*
X33384239Y-125188533D01*
X33070197Y-125251000D01*
X32429803Y-125251000D01*
X32115761Y-125188533D01*
X31801718Y-125126066D01*
X31210074Y-124880999D01*
X30677608Y-124525216D01*
X30224784Y-124072392D01*
X29869001Y-123539926D01*
X29623934Y-122948282D01*
X29561467Y-122634239D01*
X29499000Y-122320197D01*
X29499000Y-121679803D01*
X29623934Y-121051719D01*
X29623934Y-121051718D01*
X29869001Y-120460074D01*
X30224784Y-119927608D01*
X30677608Y-119474784D01*
X31210074Y-119119001D01*
X31801718Y-118873934D01*
X32225538Y-118789631D01*
X32429803Y-118749000D01*
X33070197Y-118749000D01*
X33274462Y-118789631D01*
X33274462Y-118789631D01*
G37*
G36*
X103475562Y-123328181D02*
G01*
X103510481Y-123338774D01*
X103542663Y-123355976D01*
X103570873Y-123379127D01*
X103594024Y-123407337D01*
X103611226Y-123439519D01*
X103621819Y-123474438D01*
X103626000Y-123516895D01*
X103626000Y-124658105D01*
X103621819Y-124700562D01*
X103611226Y-124735481D01*
X103594024Y-124767663D01*
X103570873Y-124795873D01*
X103542663Y-124819024D01*
X103510481Y-124836226D01*
X103475562Y-124846819D01*
X103433105Y-124851000D01*
X101966895Y-124851000D01*
X101924438Y-124846819D01*
X101889519Y-124836226D01*
X101857337Y-124819024D01*
X101829127Y-124795873D01*
X101805976Y-124767663D01*
X101788774Y-124735481D01*
X101778181Y-124700562D01*
X101774000Y-124658105D01*
X101774000Y-123516895D01*
X101778181Y-123474438D01*
X101788774Y-123439519D01*
X101805976Y-123407337D01*
X101829127Y-123379127D01*
X101857337Y-123355976D01*
X101889519Y-123338774D01*
X101924438Y-123328181D01*
X101966895Y-123324000D01*
X103433105Y-123324000D01*
X103475562Y-123328181D01*
X103475562Y-123328181D01*
G37*
G36*
X98371934Y-121402671D02*
G01*
X98401877Y-121411754D01*
X98429465Y-121426500D01*
X98453651Y-121446349D01*
X98473500Y-121470535D01*
X98488246Y-121498123D01*
X98497329Y-121528066D01*
X98501000Y-121565340D01*
X98501000Y-123834660D01*
X98497329Y-123871934D01*
X98488246Y-123901877D01*
X98473500Y-123929465D01*
X98453651Y-123953651D01*
X98429465Y-123973500D01*
X98401877Y-123988246D01*
X98371934Y-123997329D01*
X98334660Y-124001000D01*
X94565340Y-124001000D01*
X94528066Y-123997329D01*
X94498123Y-123988246D01*
X94470535Y-123973500D01*
X94446349Y-123953651D01*
X94426500Y-123929465D01*
X94411754Y-123901877D01*
X94402671Y-123871934D01*
X94399000Y-123834660D01*
X94399000Y-121565340D01*
X94402671Y-121528066D01*
X94411754Y-121498123D01*
X94426500Y-121470535D01*
X94446349Y-121446349D01*
X94470535Y-121426500D01*
X94498123Y-121411754D01*
X94528066Y-121402671D01*
X94565340Y-121399000D01*
X98334660Y-121399000D01*
X98371934Y-121402671D01*
X98371934Y-121402671D01*
G37*
G36*
X92271934Y-121402671D02*
G01*
X92301877Y-121411754D01*
X92329465Y-121426500D01*
X92353651Y-121446349D01*
X92373500Y-121470535D01*
X92388246Y-121498123D01*
X92397329Y-121528066D01*
X92401000Y-121565340D01*
X92401000Y-123834660D01*
X92397329Y-123871934D01*
X92388246Y-123901877D01*
X92373500Y-123929465D01*
X92353651Y-123953651D01*
X92329465Y-123973500D01*
X92301877Y-123988246D01*
X92271934Y-123997329D01*
X92234660Y-124001000D01*
X88465340Y-124001000D01*
X88428066Y-123997329D01*
X88398123Y-123988246D01*
X88370535Y-123973500D01*
X88346349Y-123953651D01*
X88326500Y-123929465D01*
X88311754Y-123901877D01*
X88302671Y-123871934D01*
X88299000Y-123834660D01*
X88299000Y-121565340D01*
X88302671Y-121528066D01*
X88311754Y-121498123D01*
X88326500Y-121470535D01*
X88346349Y-121446349D01*
X88370535Y-121426500D01*
X88398123Y-121411754D01*
X88428066Y-121402671D01*
X88465340Y-121399000D01*
X92234660Y-121399000D01*
X92271934Y-121402671D01*
X92271934Y-121402671D01*
G37*
G36*
X103475562Y-120353181D02*
G01*
X103510481Y-120363774D01*
X103542663Y-120380976D01*
X103570873Y-120404127D01*
X103594024Y-120432337D01*
X103611226Y-120464519D01*
X103621819Y-120499438D01*
X103626000Y-120541895D01*
X103626000Y-121683105D01*
X103621819Y-121725562D01*
X103611226Y-121760481D01*
X103594024Y-121792663D01*
X103570873Y-121820873D01*
X103542663Y-121844024D01*
X103510481Y-121861226D01*
X103475562Y-121871819D01*
X103433105Y-121876000D01*
X101966895Y-121876000D01*
X101924438Y-121871819D01*
X101889519Y-121861226D01*
X101857337Y-121844024D01*
X101829127Y-121820873D01*
X101805976Y-121792663D01*
X101788774Y-121760481D01*
X101778181Y-121725562D01*
X101774000Y-121683105D01*
X101774000Y-120541895D01*
X101778181Y-120499438D01*
X101788774Y-120464519D01*
X101805976Y-120432337D01*
X101829127Y-120404127D01*
X101857337Y-120380976D01*
X101889519Y-120363774D01*
X101924438Y-120353181D01*
X101966895Y-120349000D01*
X103433105Y-120349000D01*
X103475562Y-120353181D01*
X103475562Y-120353181D01*
G37*
G36*
X86651000Y-121551000D02*
G01*
X83549000Y-121551000D01*
X83549000Y-118449000D01*
X86651000Y-118449000D01*
X86651000Y-121551000D01*
X86651000Y-121551000D01*
G37*
G36*
X46100562Y-118578181D02*
G01*
X46135481Y-118588774D01*
X46167663Y-118605976D01*
X46195873Y-118629127D01*
X46219024Y-118657337D01*
X46236226Y-118689519D01*
X46246819Y-118724438D01*
X46251000Y-118766895D01*
X46251000Y-120233105D01*
X46246819Y-120275562D01*
X46236226Y-120310481D01*
X46219024Y-120342663D01*
X46195873Y-120370873D01*
X46167663Y-120394024D01*
X46135481Y-120411226D01*
X46100562Y-120421819D01*
X46058105Y-120426000D01*
X44916895Y-120426000D01*
X44874438Y-120421819D01*
X44839519Y-120411226D01*
X44807337Y-120394024D01*
X44779127Y-120370873D01*
X44755976Y-120342663D01*
X44738774Y-120310481D01*
X44728181Y-120275562D01*
X44724000Y-120233105D01*
X44724000Y-118766895D01*
X44728181Y-118724438D01*
X44738774Y-118689519D01*
X44755976Y-118657337D01*
X44779127Y-118629127D01*
X44807337Y-118605976D01*
X44839519Y-118588774D01*
X44874438Y-118578181D01*
X44916895Y-118574000D01*
X46058105Y-118574000D01*
X46100562Y-118578181D01*
X46100562Y-118578181D01*
G37*
G36*
X62100562Y-118578181D02*
G01*
X62135481Y-118588774D01*
X62167663Y-118605976D01*
X62195873Y-118629127D01*
X62219024Y-118657337D01*
X62236226Y-118689519D01*
X62246819Y-118724438D01*
X62251000Y-118766895D01*
X62251000Y-120233105D01*
X62246819Y-120275562D01*
X62236226Y-120310481D01*
X62219024Y-120342663D01*
X62195873Y-120370873D01*
X62167663Y-120394024D01*
X62135481Y-120411226D01*
X62100562Y-120421819D01*
X62058105Y-120426000D01*
X60916895Y-120426000D01*
X60874438Y-120421819D01*
X60839519Y-120411226D01*
X60807337Y-120394024D01*
X60779127Y-120370873D01*
X60755976Y-120342663D01*
X60738774Y-120310481D01*
X60728181Y-120275562D01*
X60724000Y-120233105D01*
X60724000Y-118766895D01*
X60728181Y-118724438D01*
X60738774Y-118689519D01*
X60755976Y-118657337D01*
X60779127Y-118629127D01*
X60807337Y-118605976D01*
X60839519Y-118588774D01*
X60874438Y-118578181D01*
X60916895Y-118574000D01*
X62058105Y-118574000D01*
X62100562Y-118578181D01*
X62100562Y-118578181D01*
G37*
G36*
X59125562Y-118578181D02*
G01*
X59160481Y-118588774D01*
X59192663Y-118605976D01*
X59220873Y-118629127D01*
X59244024Y-118657337D01*
X59261226Y-118689519D01*
X59271819Y-118724438D01*
X59276000Y-118766895D01*
X59276000Y-120233105D01*
X59271819Y-120275562D01*
X59261226Y-120310481D01*
X59244024Y-120342663D01*
X59220873Y-120370873D01*
X59192663Y-120394024D01*
X59160481Y-120411226D01*
X59125562Y-120421819D01*
X59083105Y-120426000D01*
X57941895Y-120426000D01*
X57899438Y-120421819D01*
X57864519Y-120411226D01*
X57832337Y-120394024D01*
X57804127Y-120370873D01*
X57780976Y-120342663D01*
X57763774Y-120310481D01*
X57753181Y-120275562D01*
X57749000Y-120233105D01*
X57749000Y-118766895D01*
X57753181Y-118724438D01*
X57763774Y-118689519D01*
X57780976Y-118657337D01*
X57804127Y-118629127D01*
X57832337Y-118605976D01*
X57864519Y-118588774D01*
X57899438Y-118578181D01*
X57941895Y-118574000D01*
X59083105Y-118574000D01*
X59125562Y-118578181D01*
X59125562Y-118578181D01*
G37*
G36*
X43125562Y-118578181D02*
G01*
X43160481Y-118588774D01*
X43192663Y-118605976D01*
X43220873Y-118629127D01*
X43244024Y-118657337D01*
X43261226Y-118689519D01*
X43271819Y-118724438D01*
X43276000Y-118766895D01*
X43276000Y-120233105D01*
X43271819Y-120275562D01*
X43261226Y-120310481D01*
X43244024Y-120342663D01*
X43220873Y-120370873D01*
X43192663Y-120394024D01*
X43160481Y-120411226D01*
X43125562Y-120421819D01*
X43083105Y-120426000D01*
X41941895Y-120426000D01*
X41899438Y-120421819D01*
X41864519Y-120411226D01*
X41832337Y-120394024D01*
X41804127Y-120370873D01*
X41780976Y-120342663D01*
X41763774Y-120310481D01*
X41753181Y-120275562D01*
X41749000Y-120233105D01*
X41749000Y-118766895D01*
X41753181Y-118724438D01*
X41763774Y-118689519D01*
X41780976Y-118657337D01*
X41804127Y-118629127D01*
X41832337Y-118605976D01*
X41864519Y-118588774D01*
X41899438Y-118578181D01*
X41941895Y-118574000D01*
X43083105Y-118574000D01*
X43125562Y-118578181D01*
X43125562Y-118578181D01*
G37*
G36*
X63860721Y-111810174D02*
G01*
X63960995Y-111851709D01*
X63960996Y-111851710D01*
X64051242Y-111912010D01*
X64127990Y-111988758D01*
X64127991Y-111988760D01*
X64188291Y-112079005D01*
X64229826Y-112179279D01*
X64251000Y-112285730D01*
X64251000Y-112394270D01*
X64229826Y-112500721D01*
X64188291Y-112600995D01*
X64188290Y-112600996D01*
X64127990Y-112691242D01*
X64051242Y-112767990D01*
X64005812Y-112798345D01*
X63960995Y-112828291D01*
X63860721Y-112869826D01*
X63754270Y-112891000D01*
X63645730Y-112891000D01*
X63539279Y-112869826D01*
X63439005Y-112828291D01*
X63394188Y-112798345D01*
X63348758Y-112767990D01*
X63272010Y-112691242D01*
X63211710Y-112600996D01*
X63211709Y-112600995D01*
X63170174Y-112500721D01*
X63149000Y-112394270D01*
X63149000Y-112285730D01*
X63170174Y-112179279D01*
X63211709Y-112079005D01*
X63272009Y-111988760D01*
X63272010Y-111988758D01*
X63348758Y-111912010D01*
X63439004Y-111851710D01*
X63439005Y-111851709D01*
X63539279Y-111810174D01*
X63645730Y-111789000D01*
X63754270Y-111789000D01*
X63860721Y-111810174D01*
X63860721Y-111810174D01*
G37*
G36*
X73860721Y-111810174D02*
G01*
X73960995Y-111851709D01*
X73960996Y-111851710D01*
X74051242Y-111912010D01*
X74127990Y-111988758D01*
X74127991Y-111988760D01*
X74188291Y-112079005D01*
X74229826Y-112179279D01*
X74251000Y-112285730D01*
X74251000Y-112394270D01*
X74229826Y-112500721D01*
X74188291Y-112600995D01*
X74188290Y-112600996D01*
X74127990Y-112691242D01*
X74051242Y-112767990D01*
X74005812Y-112798345D01*
X73960995Y-112828291D01*
X73860721Y-112869826D01*
X73754270Y-112891000D01*
X73645730Y-112891000D01*
X73539279Y-112869826D01*
X73439005Y-112828291D01*
X73394188Y-112798345D01*
X73348758Y-112767990D01*
X73272010Y-112691242D01*
X73211710Y-112600996D01*
X73211709Y-112600995D01*
X73170174Y-112500721D01*
X73149000Y-112394270D01*
X73149000Y-112285730D01*
X73170174Y-112179279D01*
X73211709Y-112079005D01*
X73272009Y-111988760D01*
X73272010Y-111988758D01*
X73348758Y-111912010D01*
X73439004Y-111851710D01*
X73439005Y-111851709D01*
X73539279Y-111810174D01*
X73645730Y-111789000D01*
X73754270Y-111789000D01*
X73860721Y-111810174D01*
X73860721Y-111810174D01*
G37*
G36*
X33384239Y-104811467D02*
G01*
X33698282Y-104873934D01*
X34289926Y-105119001D01*
X34579523Y-105312504D01*
X34822391Y-105474783D01*
X35275217Y-105927609D01*
X35332790Y-106013774D01*
X35630999Y-106460074D01*
X35876066Y-107051718D01*
X35876066Y-107051719D01*
X36001000Y-107679803D01*
X36001000Y-108320197D01*
X35938533Y-108634239D01*
X35876066Y-108948282D01*
X35630999Y-109539926D01*
X35275216Y-110072392D01*
X34822392Y-110525216D01*
X34289926Y-110880999D01*
X33698282Y-111126066D01*
X33384239Y-111188533D01*
X33070197Y-111251000D01*
X32429803Y-111251000D01*
X32115761Y-111188533D01*
X31801718Y-111126066D01*
X31210074Y-110880999D01*
X30677608Y-110525216D01*
X30224784Y-110072392D01*
X29869001Y-109539926D01*
X29623934Y-108948282D01*
X29561467Y-108634239D01*
X29499000Y-108320197D01*
X29499000Y-107679803D01*
X29623934Y-107051719D01*
X29623934Y-107051718D01*
X29869001Y-106460074D01*
X30167210Y-106013774D01*
X30224783Y-105927609D01*
X30677609Y-105474783D01*
X30920477Y-105312504D01*
X31210074Y-105119001D01*
X31801718Y-104873934D01*
X32115761Y-104811467D01*
X32429803Y-104749000D01*
X33070197Y-104749000D01*
X33384239Y-104811467D01*
X33384239Y-104811467D01*
G37*
G36*
X109884239Y-104811467D02*
G01*
X110198282Y-104873934D01*
X110789926Y-105119001D01*
X111079523Y-105312504D01*
X111322391Y-105474783D01*
X111775217Y-105927609D01*
X111832790Y-106013774D01*
X112130999Y-106460074D01*
X112376066Y-107051718D01*
X112376066Y-107051719D01*
X112501000Y-107679803D01*
X112501000Y-108320197D01*
X112438533Y-108634239D01*
X112376066Y-108948282D01*
X112130999Y-109539926D01*
X111775216Y-110072392D01*
X111322392Y-110525216D01*
X110789926Y-110880999D01*
X110198282Y-111126066D01*
X109884239Y-111188533D01*
X109570197Y-111251000D01*
X108929803Y-111251000D01*
X108615761Y-111188533D01*
X108301718Y-111126066D01*
X107710074Y-110880999D01*
X107177608Y-110525216D01*
X106724784Y-110072392D01*
X106369001Y-109539926D01*
X106123934Y-108948282D01*
X106061467Y-108634239D01*
X105999000Y-108320197D01*
X105999000Y-107679803D01*
X106123934Y-107051719D01*
X106123934Y-107051718D01*
X106369001Y-106460074D01*
X106667210Y-106013774D01*
X106724783Y-105927609D01*
X107177609Y-105474783D01*
X107420477Y-105312504D01*
X107710074Y-105119001D01*
X108301718Y-104873934D01*
X108615761Y-104811467D01*
X108929803Y-104749000D01*
X109570197Y-104749000D01*
X109884239Y-104811467D01*
X109884239Y-104811467D01*
G37*
G36*
X78875562Y-108928181D02*
G01*
X78910481Y-108938774D01*
X78942663Y-108955976D01*
X78970873Y-108979127D01*
X78994024Y-109007337D01*
X79011226Y-109039519D01*
X79021819Y-109074438D01*
X79026000Y-109116895D01*
X79026000Y-110583105D01*
X79021819Y-110625562D01*
X79011226Y-110660481D01*
X78994024Y-110692663D01*
X78970873Y-110720873D01*
X78942663Y-110744024D01*
X78910481Y-110761226D01*
X78875562Y-110771819D01*
X78833105Y-110776000D01*
X77691895Y-110776000D01*
X77649438Y-110771819D01*
X77614519Y-110761226D01*
X77582337Y-110744024D01*
X77554127Y-110720873D01*
X77530976Y-110692663D01*
X77513774Y-110660481D01*
X77503181Y-110625562D01*
X77499000Y-110583105D01*
X77499000Y-109116895D01*
X77503181Y-109074438D01*
X77513774Y-109039519D01*
X77530976Y-109007337D01*
X77554127Y-108979127D01*
X77582337Y-108955976D01*
X77614519Y-108938774D01*
X77649438Y-108928181D01*
X77691895Y-108924000D01*
X78833105Y-108924000D01*
X78875562Y-108928181D01*
X78875562Y-108928181D01*
G37*
G36*
X85375562Y-108928181D02*
G01*
X85410481Y-108938774D01*
X85442663Y-108955976D01*
X85470873Y-108979127D01*
X85494024Y-109007337D01*
X85511226Y-109039519D01*
X85521819Y-109074438D01*
X85526000Y-109116895D01*
X85526000Y-110583105D01*
X85521819Y-110625562D01*
X85511226Y-110660481D01*
X85494024Y-110692663D01*
X85470873Y-110720873D01*
X85442663Y-110744024D01*
X85410481Y-110761226D01*
X85375562Y-110771819D01*
X85333105Y-110776000D01*
X84191895Y-110776000D01*
X84149438Y-110771819D01*
X84114519Y-110761226D01*
X84082337Y-110744024D01*
X84054127Y-110720873D01*
X84030976Y-110692663D01*
X84013774Y-110660481D01*
X84003181Y-110625562D01*
X83999000Y-110583105D01*
X83999000Y-109116895D01*
X84003181Y-109074438D01*
X84013774Y-109039519D01*
X84030976Y-109007337D01*
X84054127Y-108979127D01*
X84082337Y-108955976D01*
X84114519Y-108938774D01*
X84149438Y-108928181D01*
X84191895Y-108924000D01*
X85333105Y-108924000D01*
X85375562Y-108928181D01*
X85375562Y-108928181D01*
G37*
G36*
X88350562Y-108928181D02*
G01*
X88385481Y-108938774D01*
X88417663Y-108955976D01*
X88445873Y-108979127D01*
X88469024Y-109007337D01*
X88486226Y-109039519D01*
X88496819Y-109074438D01*
X88501000Y-109116895D01*
X88501000Y-110583105D01*
X88496819Y-110625562D01*
X88486226Y-110660481D01*
X88469024Y-110692663D01*
X88445873Y-110720873D01*
X88417663Y-110744024D01*
X88385481Y-110761226D01*
X88350562Y-110771819D01*
X88308105Y-110776000D01*
X87166895Y-110776000D01*
X87124438Y-110771819D01*
X87089519Y-110761226D01*
X87057337Y-110744024D01*
X87029127Y-110720873D01*
X87005976Y-110692663D01*
X86988774Y-110660481D01*
X86978181Y-110625562D01*
X86974000Y-110583105D01*
X86974000Y-109116895D01*
X86978181Y-109074438D01*
X86988774Y-109039519D01*
X87005976Y-109007337D01*
X87029127Y-108979127D01*
X87057337Y-108955976D01*
X87089519Y-108938774D01*
X87124438Y-108928181D01*
X87166895Y-108924000D01*
X88308105Y-108924000D01*
X88350562Y-108928181D01*
X88350562Y-108928181D01*
G37*
G36*
X81850562Y-108928181D02*
G01*
X81885481Y-108938774D01*
X81917663Y-108955976D01*
X81945873Y-108979127D01*
X81969024Y-109007337D01*
X81986226Y-109039519D01*
X81996819Y-109074438D01*
X82001000Y-109116895D01*
X82001000Y-110583105D01*
X81996819Y-110625562D01*
X81986226Y-110660481D01*
X81969024Y-110692663D01*
X81945873Y-110720873D01*
X81917663Y-110744024D01*
X81885481Y-110761226D01*
X81850562Y-110771819D01*
X81808105Y-110776000D01*
X80666895Y-110776000D01*
X80624438Y-110771819D01*
X80589519Y-110761226D01*
X80557337Y-110744024D01*
X80529127Y-110720873D01*
X80505976Y-110692663D01*
X80488774Y-110660481D01*
X80478181Y-110625562D01*
X80474000Y-110583105D01*
X80474000Y-109116895D01*
X80478181Y-109074438D01*
X80488774Y-109039519D01*
X80505976Y-109007337D01*
X80529127Y-108979127D01*
X80557337Y-108955976D01*
X80589519Y-108938774D01*
X80624438Y-108928181D01*
X80666895Y-108924000D01*
X81808105Y-108924000D01*
X81850562Y-108928181D01*
X81850562Y-108928181D01*
G37*
G36*
X47025562Y-108978181D02*
G01*
X47060481Y-108988774D01*
X47092663Y-109005976D01*
X47120873Y-109029127D01*
X47144024Y-109057337D01*
X47161226Y-109089519D01*
X47171819Y-109124438D01*
X47176000Y-109166895D01*
X47176000Y-110308105D01*
X47171819Y-110350562D01*
X47161226Y-110385481D01*
X47144024Y-110417663D01*
X47120873Y-110445873D01*
X47092663Y-110469024D01*
X47060481Y-110486226D01*
X47025562Y-110496819D01*
X46983105Y-110501000D01*
X45516895Y-110501000D01*
X45474438Y-110496819D01*
X45439519Y-110486226D01*
X45407337Y-110469024D01*
X45379127Y-110445873D01*
X45355976Y-110417663D01*
X45338774Y-110385481D01*
X45328181Y-110350562D01*
X45324000Y-110308105D01*
X45324000Y-109166895D01*
X45328181Y-109124438D01*
X45338774Y-109089519D01*
X45355976Y-109057337D01*
X45379127Y-109029127D01*
X45407337Y-109005976D01*
X45439519Y-108988774D01*
X45474438Y-108978181D01*
X45516895Y-108974000D01*
X46983105Y-108974000D01*
X47025562Y-108978181D01*
X47025562Y-108978181D01*
G37*
G36*
X50775562Y-108978181D02*
G01*
X50810481Y-108988774D01*
X50842663Y-109005976D01*
X50870873Y-109029127D01*
X50894024Y-109057337D01*
X50911226Y-109089519D01*
X50921819Y-109124438D01*
X50926000Y-109166895D01*
X50926000Y-110308105D01*
X50921819Y-110350562D01*
X50911226Y-110385481D01*
X50894024Y-110417663D01*
X50870873Y-110445873D01*
X50842663Y-110469024D01*
X50810481Y-110486226D01*
X50775562Y-110496819D01*
X50733105Y-110501000D01*
X49266895Y-110501000D01*
X49224438Y-110496819D01*
X49189519Y-110486226D01*
X49157337Y-110469024D01*
X49129127Y-110445873D01*
X49105976Y-110417663D01*
X49088774Y-110385481D01*
X49078181Y-110350562D01*
X49074000Y-110308105D01*
X49074000Y-109166895D01*
X49078181Y-109124438D01*
X49088774Y-109089519D01*
X49105976Y-109057337D01*
X49129127Y-109029127D01*
X49157337Y-109005976D01*
X49189519Y-108988774D01*
X49224438Y-108978181D01*
X49266895Y-108974000D01*
X50733105Y-108974000D01*
X50775562Y-108978181D01*
X50775562Y-108978181D01*
G37*
G36*
X73299205Y-102647632D02*
G01*
X73346518Y-102661985D01*
X73346521Y-102661986D01*
X73390124Y-102685292D01*
X73428343Y-102716657D01*
X73459708Y-102754876D01*
X73483014Y-102798479D01*
X73483015Y-102798482D01*
X73497368Y-102845795D01*
X73501000Y-102882673D01*
X73501000Y-107507327D01*
X73497368Y-107544205D01*
X73485435Y-107583540D01*
X73483014Y-107591521D01*
X73459708Y-107635124D01*
X73428346Y-107673340D01*
X73410482Y-107688000D01*
X73390123Y-107704708D01*
X73375537Y-107712504D01*
X73346520Y-107728014D01*
X73346517Y-107728015D01*
X73299204Y-107742368D01*
X73250000Y-107747214D01*
X73200795Y-107742368D01*
X73153482Y-107728015D01*
X73153479Y-107728014D01*
X73109876Y-107704708D01*
X73071660Y-107673346D01*
X73052244Y-107649686D01*
X73040292Y-107635123D01*
X73030764Y-107617297D01*
X73012709Y-107583519D01*
X73010237Y-107577551D01*
X72996623Y-107557177D01*
X72979295Y-107539851D01*
X72958921Y-107526238D01*
X72936281Y-107516861D01*
X72912248Y-107512082D01*
X72887744Y-107512082D01*
X72863711Y-107516864D01*
X72841072Y-107526242D01*
X72820698Y-107539856D01*
X72803372Y-107557184D01*
X72789759Y-107577558D01*
X72787286Y-107583529D01*
X72759708Y-107635124D01*
X72728346Y-107673340D01*
X72710482Y-107688000D01*
X72690123Y-107704708D01*
X72675537Y-107712504D01*
X72646520Y-107728014D01*
X72646517Y-107728015D01*
X72599204Y-107742368D01*
X72550000Y-107747214D01*
X72500795Y-107742368D01*
X72453482Y-107728015D01*
X72453479Y-107728014D01*
X72409876Y-107704708D01*
X72371660Y-107673346D01*
X72352244Y-107649686D01*
X72340292Y-107635123D01*
X72330764Y-107617297D01*
X72312709Y-107583519D01*
X72310237Y-107577551D01*
X72296623Y-107557177D01*
X72279295Y-107539851D01*
X72258921Y-107526238D01*
X72236281Y-107516861D01*
X72212248Y-107512082D01*
X72187744Y-107512082D01*
X72163711Y-107516864D01*
X72141072Y-107526242D01*
X72120698Y-107539856D01*
X72103372Y-107557184D01*
X72089759Y-107577558D01*
X72087286Y-107583529D01*
X72059708Y-107635124D01*
X72028346Y-107673340D01*
X72010482Y-107688000D01*
X71990123Y-107704708D01*
X71975537Y-107712504D01*
X71946520Y-107728014D01*
X71946517Y-107728015D01*
X71899204Y-107742368D01*
X71850000Y-107747214D01*
X71800795Y-107742368D01*
X71753482Y-107728015D01*
X71753479Y-107728014D01*
X71709876Y-107704708D01*
X71671660Y-107673346D01*
X71652244Y-107649686D01*
X71640292Y-107635123D01*
X71630764Y-107617297D01*
X71612709Y-107583519D01*
X71610237Y-107577551D01*
X71596623Y-107557177D01*
X71579295Y-107539851D01*
X71558921Y-107526238D01*
X71536281Y-107516861D01*
X71512248Y-107512082D01*
X71487744Y-107512082D01*
X71463711Y-107516864D01*
X71441072Y-107526242D01*
X71420698Y-107539856D01*
X71403372Y-107557184D01*
X71389759Y-107577558D01*
X71387286Y-107583529D01*
X71359708Y-107635124D01*
X71328346Y-107673340D01*
X71310482Y-107688000D01*
X71290123Y-107704708D01*
X71275537Y-107712504D01*
X71246520Y-107728014D01*
X71246517Y-107728015D01*
X71199204Y-107742368D01*
X71150000Y-107747214D01*
X71100795Y-107742368D01*
X71053482Y-107728015D01*
X71053479Y-107728014D01*
X71009876Y-107704708D01*
X70971660Y-107673346D01*
X70952244Y-107649686D01*
X70940292Y-107635123D01*
X70930764Y-107617297D01*
X70912709Y-107583519D01*
X70910237Y-107577551D01*
X70896623Y-107557177D01*
X70879295Y-107539851D01*
X70858921Y-107526238D01*
X70836281Y-107516861D01*
X70812248Y-107512082D01*
X70787744Y-107512082D01*
X70763711Y-107516864D01*
X70741072Y-107526242D01*
X70720698Y-107539856D01*
X70703372Y-107557184D01*
X70689759Y-107577558D01*
X70687286Y-107583529D01*
X70659708Y-107635124D01*
X70628346Y-107673340D01*
X70610482Y-107688000D01*
X70590123Y-107704708D01*
X70575537Y-107712504D01*
X70546520Y-107728014D01*
X70546517Y-107728015D01*
X70499204Y-107742368D01*
X70450000Y-107747214D01*
X70400795Y-107742368D01*
X70353482Y-107728015D01*
X70353479Y-107728014D01*
X70309876Y-107704708D01*
X70271660Y-107673346D01*
X70252244Y-107649686D01*
X70240292Y-107635123D01*
X70230764Y-107617297D01*
X70212709Y-107583519D01*
X70210237Y-107577551D01*
X70196623Y-107557177D01*
X70179295Y-107539851D01*
X70158921Y-107526238D01*
X70136281Y-107516861D01*
X70112248Y-107512082D01*
X70087744Y-107512082D01*
X70063711Y-107516864D01*
X70041072Y-107526242D01*
X70020698Y-107539856D01*
X70003372Y-107557184D01*
X69989759Y-107577558D01*
X69987286Y-107583529D01*
X69959708Y-107635124D01*
X69928346Y-107673340D01*
X69910482Y-107688000D01*
X69890123Y-107704708D01*
X69875537Y-107712504D01*
X69846520Y-107728014D01*
X69846517Y-107728015D01*
X69799204Y-107742368D01*
X69750000Y-107747214D01*
X69700795Y-107742368D01*
X69653482Y-107728015D01*
X69653479Y-107728014D01*
X69609876Y-107704708D01*
X69571660Y-107673346D01*
X69552244Y-107649686D01*
X69540292Y-107635123D01*
X69530764Y-107617297D01*
X69512709Y-107583519D01*
X69510237Y-107577551D01*
X69496623Y-107557177D01*
X69479295Y-107539851D01*
X69458921Y-107526238D01*
X69436281Y-107516861D01*
X69412248Y-107512082D01*
X69387744Y-107512082D01*
X69363711Y-107516864D01*
X69341072Y-107526242D01*
X69320698Y-107539856D01*
X69303372Y-107557184D01*
X69289759Y-107577558D01*
X69287286Y-107583529D01*
X69259708Y-107635124D01*
X69228346Y-107673340D01*
X69210482Y-107688000D01*
X69190123Y-107704708D01*
X69175537Y-107712504D01*
X69146520Y-107728014D01*
X69146517Y-107728015D01*
X69099204Y-107742368D01*
X69050000Y-107747214D01*
X69000795Y-107742368D01*
X68953482Y-107728015D01*
X68953479Y-107728014D01*
X68909876Y-107704708D01*
X68871660Y-107673346D01*
X68852244Y-107649686D01*
X68840292Y-107635123D01*
X68830764Y-107617297D01*
X68812709Y-107583519D01*
X68810237Y-107577551D01*
X68796623Y-107557177D01*
X68779295Y-107539851D01*
X68758921Y-107526238D01*
X68736281Y-107516861D01*
X68712248Y-107512082D01*
X68687744Y-107512082D01*
X68663711Y-107516864D01*
X68641072Y-107526242D01*
X68620698Y-107539856D01*
X68603372Y-107557184D01*
X68589759Y-107577558D01*
X68587286Y-107583529D01*
X68559708Y-107635124D01*
X68528346Y-107673340D01*
X68510482Y-107688000D01*
X68490123Y-107704708D01*
X68475537Y-107712504D01*
X68446520Y-107728014D01*
X68446517Y-107728015D01*
X68399204Y-107742368D01*
X68350000Y-107747214D01*
X68300795Y-107742368D01*
X68253482Y-107728015D01*
X68253479Y-107728014D01*
X68209876Y-107704708D01*
X68171660Y-107673346D01*
X68152244Y-107649686D01*
X68140292Y-107635123D01*
X68130764Y-107617297D01*
X68112709Y-107583519D01*
X68110237Y-107577551D01*
X68096623Y-107557177D01*
X68079295Y-107539851D01*
X68058921Y-107526238D01*
X68036281Y-107516861D01*
X68012248Y-107512082D01*
X67987744Y-107512082D01*
X67963711Y-107516864D01*
X67941072Y-107526242D01*
X67920698Y-107539856D01*
X67903372Y-107557184D01*
X67889759Y-107577558D01*
X67887286Y-107583529D01*
X67859708Y-107635124D01*
X67828346Y-107673340D01*
X67810482Y-107688000D01*
X67790123Y-107704708D01*
X67775537Y-107712504D01*
X67746520Y-107728014D01*
X67746517Y-107728015D01*
X67699204Y-107742368D01*
X67650000Y-107747214D01*
X67600795Y-107742368D01*
X67553482Y-107728015D01*
X67553479Y-107728014D01*
X67509876Y-107704708D01*
X67471660Y-107673346D01*
X67452244Y-107649686D01*
X67440292Y-107635123D01*
X67430764Y-107617297D01*
X67412709Y-107583519D01*
X67410237Y-107577551D01*
X67396623Y-107557177D01*
X67379295Y-107539851D01*
X67358921Y-107526238D01*
X67336281Y-107516861D01*
X67312248Y-107512082D01*
X67287744Y-107512082D01*
X67263711Y-107516864D01*
X67241072Y-107526242D01*
X67220698Y-107539856D01*
X67203372Y-107557184D01*
X67189759Y-107577558D01*
X67187286Y-107583529D01*
X67159708Y-107635124D01*
X67128346Y-107673340D01*
X67110482Y-107688000D01*
X67090123Y-107704708D01*
X67075537Y-107712504D01*
X67046520Y-107728014D01*
X67046517Y-107728015D01*
X66999204Y-107742368D01*
X66950000Y-107747214D01*
X66900795Y-107742368D01*
X66853482Y-107728015D01*
X66853479Y-107728014D01*
X66809876Y-107704708D01*
X66771660Y-107673346D01*
X66752244Y-107649686D01*
X66740292Y-107635123D01*
X66730764Y-107617297D01*
X66712709Y-107583519D01*
X66710237Y-107577551D01*
X66696623Y-107557177D01*
X66679295Y-107539851D01*
X66658921Y-107526238D01*
X66636281Y-107516861D01*
X66612248Y-107512082D01*
X66587744Y-107512082D01*
X66563711Y-107516864D01*
X66541072Y-107526242D01*
X66520698Y-107539856D01*
X66503372Y-107557184D01*
X66489759Y-107577558D01*
X66487286Y-107583529D01*
X66459708Y-107635124D01*
X66428343Y-107673343D01*
X66390124Y-107704708D01*
X66346521Y-107728014D01*
X66346518Y-107728015D01*
X66299205Y-107742368D01*
X66250000Y-107747214D01*
X66200796Y-107742368D01*
X66153483Y-107728015D01*
X66153480Y-107728014D01*
X66109877Y-107704708D01*
X66071658Y-107673343D01*
X66040293Y-107635124D01*
X66012721Y-107583540D01*
X66010249Y-107577570D01*
X65996638Y-107557194D01*
X65979314Y-107539864D01*
X65958941Y-107526247D01*
X65936304Y-107516867D01*
X65912271Y-107512083D01*
X65887767Y-107512079D01*
X65863733Y-107516856D01*
X65841093Y-107526230D01*
X65820717Y-107539841D01*
X65803387Y-107557165D01*
X65789770Y-107577538D01*
X65787293Y-107583516D01*
X65759708Y-107635124D01*
X65728346Y-107673340D01*
X65710482Y-107688000D01*
X65690123Y-107704708D01*
X65675537Y-107712504D01*
X65646520Y-107728014D01*
X65646517Y-107728015D01*
X65599204Y-107742368D01*
X65550000Y-107747214D01*
X65500795Y-107742368D01*
X65453482Y-107728015D01*
X65453479Y-107728014D01*
X65409876Y-107704708D01*
X65371660Y-107673346D01*
X65352244Y-107649686D01*
X65340292Y-107635123D01*
X65330764Y-107617297D01*
X65312709Y-107583519D01*
X65310237Y-107577551D01*
X65296623Y-107557177D01*
X65279295Y-107539851D01*
X65258921Y-107526238D01*
X65236281Y-107516861D01*
X65212248Y-107512082D01*
X65187744Y-107512082D01*
X65163711Y-107516864D01*
X65141072Y-107526242D01*
X65120698Y-107539856D01*
X65103372Y-107557184D01*
X65089759Y-107577558D01*
X65087286Y-107583529D01*
X65059708Y-107635124D01*
X65028346Y-107673340D01*
X65010482Y-107688000D01*
X64990123Y-107704708D01*
X64975537Y-107712504D01*
X64946520Y-107728014D01*
X64946517Y-107728015D01*
X64899204Y-107742368D01*
X64850000Y-107747214D01*
X64800795Y-107742368D01*
X64753482Y-107728015D01*
X64753479Y-107728014D01*
X64709876Y-107704708D01*
X64671660Y-107673346D01*
X64652244Y-107649686D01*
X64640292Y-107635123D01*
X64630764Y-107617297D01*
X64612709Y-107583519D01*
X64610237Y-107577551D01*
X64596623Y-107557177D01*
X64579295Y-107539851D01*
X64558921Y-107526238D01*
X64536281Y-107516861D01*
X64512248Y-107512082D01*
X64487744Y-107512082D01*
X64463711Y-107516864D01*
X64441072Y-107526242D01*
X64420698Y-107539856D01*
X64403372Y-107557184D01*
X64389759Y-107577558D01*
X64387286Y-107583529D01*
X64359708Y-107635124D01*
X64328346Y-107673340D01*
X64310482Y-107688000D01*
X64290123Y-107704708D01*
X64275537Y-107712504D01*
X64246520Y-107728014D01*
X64246517Y-107728015D01*
X64199204Y-107742368D01*
X64150000Y-107747214D01*
X64100795Y-107742368D01*
X64053482Y-107728015D01*
X64053479Y-107728014D01*
X64009876Y-107704708D01*
X63971660Y-107673346D01*
X63952244Y-107649686D01*
X63940292Y-107635123D01*
X63916987Y-107591521D01*
X63916986Y-107591520D01*
X63912754Y-107577570D01*
X63902632Y-107544204D01*
X63899000Y-107507326D01*
X63899001Y-102882673D01*
X63902633Y-102845795D01*
X63916986Y-102798482D01*
X63916987Y-102798479D01*
X63940293Y-102754876D01*
X63971658Y-102716657D01*
X64009877Y-102685292D01*
X64053480Y-102661986D01*
X64053483Y-102661985D01*
X64100796Y-102647632D01*
X64150000Y-102642786D01*
X64199205Y-102647632D01*
X64246518Y-102661985D01*
X64246521Y-102661986D01*
X64290124Y-102685292D01*
X64328343Y-102716657D01*
X64359708Y-102754876D01*
X64387293Y-102806484D01*
X64389770Y-102812462D01*
X64403387Y-102832835D01*
X64420717Y-102850159D01*
X64441093Y-102863770D01*
X64463733Y-102873144D01*
X64487767Y-102877921D01*
X64512271Y-102877917D01*
X64536304Y-102873133D01*
X64558941Y-102863753D01*
X64579314Y-102850136D01*
X64596638Y-102832806D01*
X64610249Y-102812430D01*
X64612721Y-102806460D01*
X64640293Y-102754876D01*
X64671658Y-102716657D01*
X64709877Y-102685292D01*
X64753480Y-102661986D01*
X64753483Y-102661985D01*
X64800796Y-102647632D01*
X64850000Y-102642786D01*
X64899205Y-102647632D01*
X64946518Y-102661985D01*
X64946521Y-102661986D01*
X64990124Y-102685292D01*
X65028343Y-102716657D01*
X65059708Y-102754876D01*
X65087293Y-102806484D01*
X65089770Y-102812462D01*
X65103387Y-102832835D01*
X65120717Y-102850159D01*
X65141093Y-102863770D01*
X65163733Y-102873144D01*
X65187767Y-102877921D01*
X65212271Y-102877917D01*
X65236304Y-102873133D01*
X65258941Y-102863753D01*
X65279314Y-102850136D01*
X65296638Y-102832806D01*
X65310249Y-102812430D01*
X65312721Y-102806460D01*
X65340293Y-102754876D01*
X65371658Y-102716657D01*
X65409877Y-102685292D01*
X65453480Y-102661986D01*
X65453483Y-102661985D01*
X65500796Y-102647632D01*
X65550000Y-102642786D01*
X65599205Y-102647632D01*
X65646518Y-102661985D01*
X65646521Y-102661986D01*
X65690124Y-102685292D01*
X65728343Y-102716657D01*
X65759708Y-102754876D01*
X65787284Y-102806466D01*
X65789757Y-102812439D01*
X65803370Y-102832814D01*
X65820696Y-102850142D01*
X65841070Y-102863757D01*
X65863708Y-102873136D01*
X65887741Y-102877917D01*
X65912245Y-102877919D01*
X65936278Y-102873140D01*
X65958918Y-102863764D01*
X65979293Y-102850151D01*
X65996621Y-102832825D01*
X66010236Y-102812451D01*
X66012709Y-102806482D01*
X66027331Y-102779127D01*
X66040292Y-102754877D01*
X66057000Y-102734518D01*
X66071660Y-102716654D01*
X66109876Y-102685292D01*
X66153479Y-102661986D01*
X66153482Y-102661985D01*
X66200795Y-102647632D01*
X66250000Y-102642786D01*
X66299204Y-102647632D01*
X66346517Y-102661985D01*
X66346520Y-102661986D01*
X66368320Y-102673638D01*
X66390123Y-102685292D01*
X66410482Y-102702000D01*
X66428346Y-102716660D01*
X66459708Y-102754876D01*
X66487293Y-102806484D01*
X66489770Y-102812462D01*
X66503387Y-102832835D01*
X66520717Y-102850159D01*
X66541093Y-102863770D01*
X66563733Y-102873144D01*
X66587767Y-102877921D01*
X66612271Y-102877917D01*
X66636304Y-102873133D01*
X66658941Y-102863753D01*
X66679314Y-102850136D01*
X66696638Y-102832806D01*
X66710249Y-102812430D01*
X66712721Y-102806460D01*
X66740293Y-102754876D01*
X66771658Y-102716657D01*
X66809877Y-102685292D01*
X66853480Y-102661986D01*
X66853483Y-102661985D01*
X66900796Y-102647632D01*
X66950000Y-102642786D01*
X66999205Y-102647632D01*
X67046518Y-102661985D01*
X67046521Y-102661986D01*
X67090124Y-102685292D01*
X67128343Y-102716657D01*
X67159708Y-102754876D01*
X67187293Y-102806484D01*
X67189770Y-102812462D01*
X67203387Y-102832835D01*
X67220717Y-102850159D01*
X67241093Y-102863770D01*
X67263733Y-102873144D01*
X67287767Y-102877921D01*
X67312271Y-102877917D01*
X67336304Y-102873133D01*
X67358941Y-102863753D01*
X67379314Y-102850136D01*
X67396638Y-102832806D01*
X67410249Y-102812430D01*
X67412721Y-102806460D01*
X67440293Y-102754876D01*
X67471658Y-102716657D01*
X67509877Y-102685292D01*
X67553480Y-102661986D01*
X67553483Y-102661985D01*
X67600796Y-102647632D01*
X67650000Y-102642786D01*
X67699205Y-102647632D01*
X67746518Y-102661985D01*
X67746521Y-102661986D01*
X67790124Y-102685292D01*
X67828343Y-102716657D01*
X67859708Y-102754876D01*
X67887293Y-102806484D01*
X67889770Y-102812462D01*
X67903387Y-102832835D01*
X67920717Y-102850159D01*
X67941093Y-102863770D01*
X67963733Y-102873144D01*
X67987767Y-102877921D01*
X68012271Y-102877917D01*
X68036304Y-102873133D01*
X68058941Y-102863753D01*
X68079314Y-102850136D01*
X68096638Y-102832806D01*
X68110249Y-102812430D01*
X68112721Y-102806460D01*
X68140293Y-102754876D01*
X68171658Y-102716657D01*
X68209877Y-102685292D01*
X68253480Y-102661986D01*
X68253483Y-102661985D01*
X68300796Y-102647632D01*
X68350000Y-102642786D01*
X68399205Y-102647632D01*
X68446518Y-102661985D01*
X68446521Y-102661986D01*
X68490124Y-102685292D01*
X68528343Y-102716657D01*
X68559708Y-102754876D01*
X68587293Y-102806484D01*
X68589770Y-102812462D01*
X68603387Y-102832835D01*
X68620717Y-102850159D01*
X68641093Y-102863770D01*
X68663733Y-102873144D01*
X68687767Y-102877921D01*
X68712271Y-102877917D01*
X68736304Y-102873133D01*
X68758941Y-102863753D01*
X68779314Y-102850136D01*
X68796638Y-102832806D01*
X68810249Y-102812430D01*
X68812721Y-102806460D01*
X68840293Y-102754876D01*
X68871658Y-102716657D01*
X68909877Y-102685292D01*
X68953480Y-102661986D01*
X68953483Y-102661985D01*
X69000796Y-102647632D01*
X69050000Y-102642786D01*
X69099205Y-102647632D01*
X69146518Y-102661985D01*
X69146521Y-102661986D01*
X69190124Y-102685292D01*
X69228343Y-102716657D01*
X69259708Y-102754876D01*
X69287293Y-102806484D01*
X69289770Y-102812462D01*
X69303387Y-102832835D01*
X69320717Y-102850159D01*
X69341093Y-102863770D01*
X69363733Y-102873144D01*
X69387767Y-102877921D01*
X69412271Y-102877917D01*
X69436304Y-102873133D01*
X69458941Y-102863753D01*
X69479314Y-102850136D01*
X69496638Y-102832806D01*
X69510249Y-102812430D01*
X69512721Y-102806460D01*
X69540293Y-102754876D01*
X69571658Y-102716657D01*
X69609877Y-102685292D01*
X69653480Y-102661986D01*
X69653483Y-102661985D01*
X69700796Y-102647632D01*
X69750000Y-102642786D01*
X69799205Y-102647632D01*
X69846518Y-102661985D01*
X69846521Y-102661986D01*
X69890124Y-102685292D01*
X69928343Y-102716657D01*
X69959708Y-102754876D01*
X69987293Y-102806484D01*
X69989770Y-102812462D01*
X70003387Y-102832835D01*
X70020717Y-102850159D01*
X70041093Y-102863770D01*
X70063733Y-102873144D01*
X70087767Y-102877921D01*
X70112271Y-102877917D01*
X70136304Y-102873133D01*
X70158941Y-102863753D01*
X70179314Y-102850136D01*
X70196638Y-102832806D01*
X70210249Y-102812430D01*
X70212721Y-102806460D01*
X70240293Y-102754876D01*
X70271658Y-102716657D01*
X70309877Y-102685292D01*
X70353480Y-102661986D01*
X70353483Y-102661985D01*
X70400796Y-102647632D01*
X70450000Y-102642786D01*
X70499205Y-102647632D01*
X70546518Y-102661985D01*
X70546521Y-102661986D01*
X70590124Y-102685292D01*
X70628343Y-102716657D01*
X70659708Y-102754876D01*
X70687293Y-102806484D01*
X70689770Y-102812462D01*
X70703387Y-102832835D01*
X70720717Y-102850159D01*
X70741093Y-102863770D01*
X70763733Y-102873144D01*
X70787767Y-102877921D01*
X70812271Y-102877917D01*
X70836304Y-102873133D01*
X70858941Y-102863753D01*
X70879314Y-102850136D01*
X70896638Y-102832806D01*
X70910249Y-102812430D01*
X70912721Y-102806460D01*
X70940293Y-102754876D01*
X70971658Y-102716657D01*
X71009877Y-102685292D01*
X71053480Y-102661986D01*
X71053483Y-102661985D01*
X71100796Y-102647632D01*
X71150000Y-102642786D01*
X71199205Y-102647632D01*
X71246518Y-102661985D01*
X71246521Y-102661986D01*
X71290124Y-102685292D01*
X71328343Y-102716657D01*
X71359708Y-102754876D01*
X71387293Y-102806484D01*
X71389770Y-102812462D01*
X71403387Y-102832835D01*
X71420717Y-102850159D01*
X71441093Y-102863770D01*
X71463733Y-102873144D01*
X71487767Y-102877921D01*
X71512271Y-102877917D01*
X71536304Y-102873133D01*
X71558941Y-102863753D01*
X71579314Y-102850136D01*
X71596638Y-102832806D01*
X71610249Y-102812430D01*
X71612721Y-102806460D01*
X71640293Y-102754876D01*
X71671658Y-102716657D01*
X71709877Y-102685292D01*
X71753480Y-102661986D01*
X71753483Y-102661985D01*
X71800796Y-102647632D01*
X71850000Y-102642786D01*
X71899205Y-102647632D01*
X71946518Y-102661985D01*
X71946521Y-102661986D01*
X71990124Y-102685292D01*
X72028343Y-102716657D01*
X72059708Y-102754876D01*
X72087293Y-102806484D01*
X72089770Y-102812462D01*
X72103387Y-102832835D01*
X72120717Y-102850159D01*
X72141093Y-102863770D01*
X72163733Y-102873144D01*
X72187767Y-102877921D01*
X72212271Y-102877917D01*
X72236304Y-102873133D01*
X72258941Y-102863753D01*
X72279314Y-102850136D01*
X72296638Y-102832806D01*
X72310249Y-102812430D01*
X72312721Y-102806460D01*
X72340293Y-102754876D01*
X72371658Y-102716657D01*
X72409877Y-102685292D01*
X72453480Y-102661986D01*
X72453483Y-102661985D01*
X72500796Y-102647632D01*
X72550000Y-102642786D01*
X72599205Y-102647632D01*
X72646518Y-102661985D01*
X72646521Y-102661986D01*
X72690124Y-102685292D01*
X72728343Y-102716657D01*
X72759708Y-102754876D01*
X72787293Y-102806484D01*
X72789770Y-102812462D01*
X72803387Y-102832835D01*
X72820717Y-102850159D01*
X72841093Y-102863770D01*
X72863733Y-102873144D01*
X72887767Y-102877921D01*
X72912271Y-102877917D01*
X72936304Y-102873133D01*
X72958941Y-102863753D01*
X72979314Y-102850136D01*
X72996638Y-102832806D01*
X73010249Y-102812430D01*
X73012721Y-102806460D01*
X73040293Y-102754876D01*
X73071658Y-102716657D01*
X73109877Y-102685292D01*
X73153480Y-102661986D01*
X73153483Y-102661985D01*
X73200796Y-102647632D01*
X73250000Y-102642786D01*
X73299205Y-102647632D01*
X73299205Y-102647632D01*
G37*
G36*
X47025562Y-106003181D02*
G01*
X47060481Y-106013774D01*
X47092663Y-106030976D01*
X47120873Y-106054127D01*
X47144024Y-106082337D01*
X47161226Y-106114519D01*
X47171819Y-106149438D01*
X47176000Y-106191895D01*
X47176000Y-107333105D01*
X47171819Y-107375562D01*
X47161226Y-107410481D01*
X47144024Y-107442663D01*
X47120873Y-107470873D01*
X47092663Y-107494024D01*
X47060481Y-107511226D01*
X47025562Y-107521819D01*
X46983105Y-107526000D01*
X45516895Y-107526000D01*
X45474438Y-107521819D01*
X45439519Y-107511226D01*
X45407337Y-107494024D01*
X45379127Y-107470873D01*
X45355976Y-107442663D01*
X45338774Y-107410481D01*
X45328181Y-107375562D01*
X45324000Y-107333105D01*
X45324000Y-106191895D01*
X45328181Y-106149438D01*
X45338774Y-106114519D01*
X45355976Y-106082337D01*
X45379127Y-106054127D01*
X45407337Y-106030976D01*
X45439519Y-106013774D01*
X45474438Y-106003181D01*
X45516895Y-105999000D01*
X46983105Y-105999000D01*
X47025562Y-106003181D01*
X47025562Y-106003181D01*
G37*
G36*
X50775562Y-106003181D02*
G01*
X50810481Y-106013774D01*
X50842663Y-106030976D01*
X50870873Y-106054127D01*
X50894024Y-106082337D01*
X50911226Y-106114519D01*
X50921819Y-106149438D01*
X50926000Y-106191895D01*
X50926000Y-107333105D01*
X50921819Y-107375562D01*
X50911226Y-107410481D01*
X50894024Y-107442663D01*
X50870873Y-107470873D01*
X50842663Y-107494024D01*
X50810481Y-107511226D01*
X50775562Y-107521819D01*
X50733105Y-107526000D01*
X49266895Y-107526000D01*
X49224438Y-107521819D01*
X49189519Y-107511226D01*
X49157337Y-107494024D01*
X49129127Y-107470873D01*
X49105976Y-107442663D01*
X49088774Y-107410481D01*
X49078181Y-107375562D01*
X49074000Y-107333105D01*
X49074000Y-106191895D01*
X49078181Y-106149438D01*
X49088774Y-106114519D01*
X49105976Y-106082337D01*
X49129127Y-106054127D01*
X49157337Y-106030976D01*
X49189519Y-106013774D01*
X49224438Y-106003181D01*
X49266895Y-105999000D01*
X50733105Y-105999000D01*
X50775562Y-106003181D01*
X50775562Y-106003181D01*
G37*
G36*
X43275562Y-102728181D02*
G01*
X43310481Y-102738774D01*
X43342663Y-102755976D01*
X43370873Y-102779127D01*
X43394024Y-102807337D01*
X43411226Y-102839519D01*
X43421819Y-102874438D01*
X43426000Y-102916895D01*
X43426000Y-104058105D01*
X43421819Y-104100562D01*
X43411226Y-104135481D01*
X43394024Y-104167663D01*
X43370873Y-104195873D01*
X43342663Y-104219024D01*
X43310481Y-104236226D01*
X43275562Y-104246819D01*
X43233105Y-104251000D01*
X41766895Y-104251000D01*
X41724438Y-104246819D01*
X41689519Y-104236226D01*
X41657337Y-104219024D01*
X41629127Y-104195873D01*
X41605976Y-104167663D01*
X41588774Y-104135481D01*
X41578181Y-104100562D01*
X41574000Y-104058105D01*
X41574000Y-102916895D01*
X41578181Y-102874438D01*
X41588774Y-102839519D01*
X41605976Y-102807337D01*
X41629127Y-102779127D01*
X41657337Y-102755976D01*
X41689519Y-102738774D01*
X41724438Y-102728181D01*
X41766895Y-102724000D01*
X43233105Y-102724000D01*
X43275562Y-102728181D01*
X43275562Y-102728181D01*
G37*
G36*
X47025562Y-102728181D02*
G01*
X47060481Y-102738774D01*
X47092663Y-102755976D01*
X47120873Y-102779127D01*
X47144024Y-102807337D01*
X47161226Y-102839519D01*
X47171819Y-102874438D01*
X47176000Y-102916895D01*
X47176000Y-104058105D01*
X47171819Y-104100562D01*
X47161226Y-104135481D01*
X47144024Y-104167663D01*
X47120873Y-104195873D01*
X47092663Y-104219024D01*
X47060481Y-104236226D01*
X47025562Y-104246819D01*
X46983105Y-104251000D01*
X45516895Y-104251000D01*
X45474438Y-104246819D01*
X45439519Y-104236226D01*
X45407337Y-104219024D01*
X45379127Y-104195873D01*
X45355976Y-104167663D01*
X45338774Y-104135481D01*
X45328181Y-104100562D01*
X45324000Y-104058105D01*
X45324000Y-102916895D01*
X45328181Y-102874438D01*
X45338774Y-102839519D01*
X45355976Y-102807337D01*
X45379127Y-102779127D01*
X45407337Y-102755976D01*
X45439519Y-102738774D01*
X45474438Y-102728181D01*
X45516895Y-102724000D01*
X46983105Y-102724000D01*
X47025562Y-102728181D01*
X47025562Y-102728181D01*
G37*
G36*
X50775562Y-102728181D02*
G01*
X50810481Y-102738774D01*
X50842663Y-102755976D01*
X50870873Y-102779127D01*
X50894024Y-102807337D01*
X50911226Y-102839519D01*
X50921819Y-102874438D01*
X50926000Y-102916895D01*
X50926000Y-104058105D01*
X50921819Y-104100562D01*
X50911226Y-104135481D01*
X50894024Y-104167663D01*
X50870873Y-104195873D01*
X50842663Y-104219024D01*
X50810481Y-104236226D01*
X50775562Y-104246819D01*
X50733105Y-104251000D01*
X49266895Y-104251000D01*
X49224438Y-104246819D01*
X49189519Y-104236226D01*
X49157337Y-104219024D01*
X49129127Y-104195873D01*
X49105976Y-104167663D01*
X49088774Y-104135481D01*
X49078181Y-104100562D01*
X49074000Y-104058105D01*
X49074000Y-102916895D01*
X49078181Y-102874438D01*
X49088774Y-102839519D01*
X49105976Y-102807337D01*
X49129127Y-102779127D01*
X49157337Y-102755976D01*
X49189519Y-102738774D01*
X49224438Y-102728181D01*
X49266895Y-102724000D01*
X50733105Y-102724000D01*
X50775562Y-102728181D01*
X50775562Y-102728181D01*
G37*
G36*
X50775562Y-99753181D02*
G01*
X50810481Y-99763774D01*
X50842663Y-99780976D01*
X50870873Y-99804127D01*
X50894024Y-99832337D01*
X50911226Y-99864519D01*
X50921819Y-99899438D01*
X50926000Y-99941895D01*
X50926000Y-101083105D01*
X50921819Y-101125562D01*
X50911226Y-101160481D01*
X50894024Y-101192663D01*
X50870873Y-101220873D01*
X50842663Y-101244024D01*
X50810481Y-101261226D01*
X50775562Y-101271819D01*
X50733105Y-101276000D01*
X49266895Y-101276000D01*
X49224438Y-101271819D01*
X49189519Y-101261226D01*
X49157337Y-101244024D01*
X49129127Y-101220873D01*
X49105976Y-101192663D01*
X49088774Y-101160481D01*
X49078181Y-101125562D01*
X49074000Y-101083105D01*
X49074000Y-99941895D01*
X49078181Y-99899438D01*
X49088774Y-99864519D01*
X49105976Y-99832337D01*
X49129127Y-99804127D01*
X49157337Y-99780976D01*
X49189519Y-99763774D01*
X49224438Y-99753181D01*
X49266895Y-99749000D01*
X50733105Y-99749000D01*
X50775562Y-99753181D01*
X50775562Y-99753181D01*
G37*
G36*
X47025562Y-99753181D02*
G01*
X47060481Y-99763774D01*
X47092663Y-99780976D01*
X47120873Y-99804127D01*
X47144024Y-99832337D01*
X47161226Y-99864519D01*
X47171819Y-99899438D01*
X47176000Y-99941895D01*
X47176000Y-101083105D01*
X47171819Y-101125562D01*
X47161226Y-101160481D01*
X47144024Y-101192663D01*
X47120873Y-101220873D01*
X47092663Y-101244024D01*
X47060481Y-101261226D01*
X47025562Y-101271819D01*
X46983105Y-101276000D01*
X45516895Y-101276000D01*
X45474438Y-101271819D01*
X45439519Y-101261226D01*
X45407337Y-101244024D01*
X45379127Y-101220873D01*
X45355976Y-101192663D01*
X45338774Y-101160481D01*
X45328181Y-101125562D01*
X45324000Y-101083105D01*
X45324000Y-99941895D01*
X45328181Y-99899438D01*
X45338774Y-99864519D01*
X45355976Y-99832337D01*
X45379127Y-99804127D01*
X45407337Y-99780976D01*
X45439519Y-99763774D01*
X45474438Y-99753181D01*
X45516895Y-99749000D01*
X46983105Y-99749000D01*
X47025562Y-99753181D01*
X47025562Y-99753181D01*
G37*
G36*
X43275562Y-99753181D02*
G01*
X43310481Y-99763774D01*
X43342663Y-99780976D01*
X43370873Y-99804127D01*
X43394024Y-99832337D01*
X43411226Y-99864519D01*
X43421819Y-99899438D01*
X43426000Y-99941895D01*
X43426000Y-101083105D01*
X43421819Y-101125562D01*
X43411226Y-101160481D01*
X43394024Y-101192663D01*
X43370873Y-101220873D01*
X43342663Y-101244024D01*
X43310481Y-101261226D01*
X43275562Y-101271819D01*
X43233105Y-101276000D01*
X41766895Y-101276000D01*
X41724438Y-101271819D01*
X41689519Y-101261226D01*
X41657337Y-101244024D01*
X41629127Y-101220873D01*
X41605976Y-101192663D01*
X41588774Y-101160481D01*
X41578181Y-101125562D01*
X41574000Y-101083105D01*
X41574000Y-99941895D01*
X41578181Y-99899438D01*
X41588774Y-99864519D01*
X41605976Y-99832337D01*
X41629127Y-99804127D01*
X41657337Y-99780976D01*
X41689519Y-99763774D01*
X41724438Y-99753181D01*
X41766895Y-99749000D01*
X43233105Y-99749000D01*
X43275562Y-99753181D01*
X43275562Y-99753181D01*
G37*
G36*
X33384239Y-75811467D02*
G01*
X33698282Y-75873934D01*
X34289926Y-76119001D01*
X34822392Y-76474784D01*
X35275216Y-76927608D01*
X35630999Y-77460074D01*
X35876066Y-78051718D01*
X35876066Y-78051719D01*
X36001000Y-78679803D01*
X36001000Y-79320197D01*
X35938533Y-79634239D01*
X35876066Y-79948282D01*
X35630999Y-80539926D01*
X35275216Y-81072392D01*
X34822392Y-81525216D01*
X34289926Y-81880999D01*
X33698282Y-82126066D01*
X33384239Y-82188533D01*
X33070197Y-82251000D01*
X32429803Y-82251000D01*
X32115761Y-82188533D01*
X31801718Y-82126066D01*
X31210074Y-81880999D01*
X30677608Y-81525216D01*
X30224784Y-81072392D01*
X29869001Y-80539926D01*
X29623934Y-79948282D01*
X29561467Y-79634239D01*
X29499000Y-79320197D01*
X29499000Y-78679803D01*
X29623934Y-78051719D01*
X29623934Y-78051718D01*
X29869001Y-77460074D01*
X30224784Y-76927608D01*
X30677608Y-76474784D01*
X31210074Y-76119001D01*
X31801718Y-75873934D01*
X32115761Y-75811467D01*
X32429803Y-75749000D01*
X33070197Y-75749000D01*
X33384239Y-75811467D01*
X33384239Y-75811467D01*
G37*
G36*
X109884239Y-75811467D02*
G01*
X110198282Y-75873934D01*
X110789926Y-76119001D01*
X111322392Y-76474784D01*
X111775216Y-76927608D01*
X112130999Y-77460074D01*
X112376066Y-78051718D01*
X112376066Y-78051719D01*
X112501000Y-78679803D01*
X112501000Y-79320197D01*
X112438533Y-79634239D01*
X112376066Y-79948282D01*
X112130999Y-80539926D01*
X111775216Y-81072392D01*
X111322392Y-81525216D01*
X110789926Y-81880999D01*
X110198282Y-82126066D01*
X109884239Y-82188533D01*
X109570197Y-82251000D01*
X108929803Y-82251000D01*
X108615761Y-82188533D01*
X108301718Y-82126066D01*
X107710074Y-81880999D01*
X107177608Y-81525216D01*
X106724784Y-81072392D01*
X106369001Y-80539926D01*
X106123934Y-79948282D01*
X106061467Y-79634239D01*
X105999000Y-79320197D01*
X105999000Y-78679803D01*
X106123934Y-78051719D01*
X106123934Y-78051718D01*
X106369001Y-77460074D01*
X106724784Y-76927608D01*
X107177608Y-76474784D01*
X107710074Y-76119001D01*
X108301718Y-75873934D01*
X108615761Y-75811467D01*
X108929803Y-75749000D01*
X109570197Y-75749000D01*
X109884239Y-75811467D01*
X109884239Y-75811467D01*
G37*
M02*
