G04 #@! TF.GenerationSoftware,KiCad,Pcbnew,(5.1.2)-2*
G04 #@! TF.CreationDate,2020-11-17T23:24:33+01:00*
G04 #@! TF.ProjectId,MieleProjectorPCB,4d69656c-6550-4726-9f6a-6563746f7250,rev?*
G04 #@! TF.SameCoordinates,Original*
G04 #@! TF.FileFunction,Paste,Bot*
G04 #@! TF.FilePolarity,Positive*
%FSLAX46Y46*%
G04 Gerber Fmt 4.6, Leading zero omitted, Abs format (unit mm)*
G04 Created by KiCad (PCBNEW (5.1.2)-2) date 2020-11-17 23:24:33*
%MOMM*%
%LPD*%
G04 APERTURE LIST*
%ADD10C,2.000000*%
%ADD11C,0.100000*%
%ADD12C,0.800000*%
%ADD13C,2.100000*%
G04 APERTURE END LIST*
D10*
X43250000Y-122750000D03*
D11*
G36*
X44250000Y-124250000D02*
G01*
X42250000Y-124250000D01*
X42250000Y-121250000D01*
X44250000Y-121250000D01*
X44250000Y-124250000D01*
X44250000Y-124250000D01*
G37*
D10*
X50750000Y-122750000D03*
D11*
G36*
X51750000Y-124250000D02*
G01*
X49750000Y-124250000D01*
X49750000Y-121250000D01*
X51750000Y-121250000D01*
X51750000Y-124250000D01*
X51750000Y-124250000D01*
G37*
D10*
X43250000Y-136750000D03*
D11*
G36*
X44250000Y-138250000D02*
G01*
X42250000Y-138250000D01*
X42250000Y-135250000D01*
X44250000Y-135250000D01*
X44250000Y-138250000D01*
X44250000Y-138250000D01*
G37*
D10*
X50750000Y-136750000D03*
D11*
G36*
X51750000Y-138250000D02*
G01*
X49750000Y-138250000D01*
X49750000Y-135250000D01*
X51750000Y-135250000D01*
X51750000Y-138250000D01*
X51750000Y-138250000D01*
G37*
D10*
X91000000Y-123250000D03*
D11*
G36*
X92000000Y-124750000D02*
G01*
X90000000Y-124750000D01*
X90000000Y-121750000D01*
X92000000Y-121750000D01*
X92000000Y-124750000D01*
X92000000Y-124750000D01*
G37*
D10*
X98500000Y-123250000D03*
D11*
G36*
X99500000Y-124750000D02*
G01*
X97500000Y-124750000D01*
X97500000Y-121750000D01*
X99500000Y-121750000D01*
X99500000Y-124750000D01*
X99500000Y-124750000D01*
G37*
D10*
X91000000Y-137250000D03*
D11*
G36*
X92000000Y-138750000D02*
G01*
X90000000Y-138750000D01*
X90000000Y-135750000D01*
X92000000Y-135750000D01*
X92000000Y-138750000D01*
X92000000Y-138750000D01*
G37*
D10*
X98500000Y-137250000D03*
D11*
G36*
X99500000Y-138750000D02*
G01*
X97500000Y-138750000D01*
X97500000Y-135750000D01*
X99500000Y-135750000D01*
X99500000Y-138750000D01*
X99500000Y-138750000D01*
G37*
G36*
X34019603Y-99900963D02*
G01*
X34039018Y-99903843D01*
X34058057Y-99908612D01*
X34076537Y-99915224D01*
X34094279Y-99923616D01*
X34111114Y-99933706D01*
X34126879Y-99945398D01*
X34141421Y-99958579D01*
X34154602Y-99973121D01*
X34166294Y-99988886D01*
X34176384Y-100005721D01*
X34184776Y-100023463D01*
X34191388Y-100041943D01*
X34196157Y-100060982D01*
X34199037Y-100080397D01*
X34200000Y-100100000D01*
X34200000Y-100500000D01*
X34199037Y-100519603D01*
X34196157Y-100539018D01*
X34191388Y-100558057D01*
X34184776Y-100576537D01*
X34176384Y-100594279D01*
X34166294Y-100611114D01*
X34154602Y-100626879D01*
X34141421Y-100641421D01*
X34126879Y-100654602D01*
X34111114Y-100666294D01*
X34094279Y-100676384D01*
X34076537Y-100684776D01*
X34058057Y-100691388D01*
X34039018Y-100696157D01*
X34019603Y-100699037D01*
X34000000Y-100700000D01*
X32800000Y-100700000D01*
X32780397Y-100699037D01*
X32760982Y-100696157D01*
X32741943Y-100691388D01*
X32723463Y-100684776D01*
X32705721Y-100676384D01*
X32688886Y-100666294D01*
X32673121Y-100654602D01*
X32658579Y-100641421D01*
X32645398Y-100626879D01*
X32633706Y-100611114D01*
X32623616Y-100594279D01*
X32615224Y-100576537D01*
X32608612Y-100558057D01*
X32603843Y-100539018D01*
X32600963Y-100519603D01*
X32600000Y-100500000D01*
X32600000Y-100100000D01*
X32600963Y-100080397D01*
X32603843Y-100060982D01*
X32608612Y-100041943D01*
X32615224Y-100023463D01*
X32623616Y-100005721D01*
X32633706Y-99988886D01*
X32645398Y-99973121D01*
X32658579Y-99958579D01*
X32673121Y-99945398D01*
X32688886Y-99933706D01*
X32705721Y-99923616D01*
X32723463Y-99915224D01*
X32741943Y-99908612D01*
X32760982Y-99903843D01*
X32780397Y-99900963D01*
X32800000Y-99900000D01*
X34000000Y-99900000D01*
X34019603Y-99900963D01*
X34019603Y-99900963D01*
G37*
D12*
X33400000Y-100300000D03*
D11*
G36*
X34019603Y-98650963D02*
G01*
X34039018Y-98653843D01*
X34058057Y-98658612D01*
X34076537Y-98665224D01*
X34094279Y-98673616D01*
X34111114Y-98683706D01*
X34126879Y-98695398D01*
X34141421Y-98708579D01*
X34154602Y-98723121D01*
X34166294Y-98738886D01*
X34176384Y-98755721D01*
X34184776Y-98773463D01*
X34191388Y-98791943D01*
X34196157Y-98810982D01*
X34199037Y-98830397D01*
X34200000Y-98850000D01*
X34200000Y-99250000D01*
X34199037Y-99269603D01*
X34196157Y-99289018D01*
X34191388Y-99308057D01*
X34184776Y-99326537D01*
X34176384Y-99344279D01*
X34166294Y-99361114D01*
X34154602Y-99376879D01*
X34141421Y-99391421D01*
X34126879Y-99404602D01*
X34111114Y-99416294D01*
X34094279Y-99426384D01*
X34076537Y-99434776D01*
X34058057Y-99441388D01*
X34039018Y-99446157D01*
X34019603Y-99449037D01*
X34000000Y-99450000D01*
X32800000Y-99450000D01*
X32780397Y-99449037D01*
X32760982Y-99446157D01*
X32741943Y-99441388D01*
X32723463Y-99434776D01*
X32705721Y-99426384D01*
X32688886Y-99416294D01*
X32673121Y-99404602D01*
X32658579Y-99391421D01*
X32645398Y-99376879D01*
X32633706Y-99361114D01*
X32623616Y-99344279D01*
X32615224Y-99326537D01*
X32608612Y-99308057D01*
X32603843Y-99289018D01*
X32600963Y-99269603D01*
X32600000Y-99250000D01*
X32600000Y-98850000D01*
X32600963Y-98830397D01*
X32603843Y-98810982D01*
X32608612Y-98791943D01*
X32615224Y-98773463D01*
X32623616Y-98755721D01*
X32633706Y-98738886D01*
X32645398Y-98723121D01*
X32658579Y-98708579D01*
X32673121Y-98695398D01*
X32688886Y-98683706D01*
X32705721Y-98673616D01*
X32723463Y-98665224D01*
X32741943Y-98658612D01*
X32760982Y-98653843D01*
X32780397Y-98650963D01*
X32800000Y-98650000D01*
X34000000Y-98650000D01*
X34019603Y-98650963D01*
X34019603Y-98650963D01*
G37*
D12*
X33400000Y-99050000D03*
D11*
G36*
X34019603Y-97400963D02*
G01*
X34039018Y-97403843D01*
X34058057Y-97408612D01*
X34076537Y-97415224D01*
X34094279Y-97423616D01*
X34111114Y-97433706D01*
X34126879Y-97445398D01*
X34141421Y-97458579D01*
X34154602Y-97473121D01*
X34166294Y-97488886D01*
X34176384Y-97505721D01*
X34184776Y-97523463D01*
X34191388Y-97541943D01*
X34196157Y-97560982D01*
X34199037Y-97580397D01*
X34200000Y-97600000D01*
X34200000Y-98000000D01*
X34199037Y-98019603D01*
X34196157Y-98039018D01*
X34191388Y-98058057D01*
X34184776Y-98076537D01*
X34176384Y-98094279D01*
X34166294Y-98111114D01*
X34154602Y-98126879D01*
X34141421Y-98141421D01*
X34126879Y-98154602D01*
X34111114Y-98166294D01*
X34094279Y-98176384D01*
X34076537Y-98184776D01*
X34058057Y-98191388D01*
X34039018Y-98196157D01*
X34019603Y-98199037D01*
X34000000Y-98200000D01*
X32800000Y-98200000D01*
X32780397Y-98199037D01*
X32760982Y-98196157D01*
X32741943Y-98191388D01*
X32723463Y-98184776D01*
X32705721Y-98176384D01*
X32688886Y-98166294D01*
X32673121Y-98154602D01*
X32658579Y-98141421D01*
X32645398Y-98126879D01*
X32633706Y-98111114D01*
X32623616Y-98094279D01*
X32615224Y-98076537D01*
X32608612Y-98058057D01*
X32603843Y-98039018D01*
X32600963Y-98019603D01*
X32600000Y-98000000D01*
X32600000Y-97600000D01*
X32600963Y-97580397D01*
X32603843Y-97560982D01*
X32608612Y-97541943D01*
X32615224Y-97523463D01*
X32623616Y-97505721D01*
X32633706Y-97488886D01*
X32645398Y-97473121D01*
X32658579Y-97458579D01*
X32673121Y-97445398D01*
X32688886Y-97433706D01*
X32705721Y-97423616D01*
X32723463Y-97415224D01*
X32741943Y-97408612D01*
X32760982Y-97403843D01*
X32780397Y-97400963D01*
X32800000Y-97400000D01*
X34000000Y-97400000D01*
X34019603Y-97400963D01*
X34019603Y-97400963D01*
G37*
D12*
X33400000Y-97800000D03*
D11*
G36*
X34019603Y-96150963D02*
G01*
X34039018Y-96153843D01*
X34058057Y-96158612D01*
X34076537Y-96165224D01*
X34094279Y-96173616D01*
X34111114Y-96183706D01*
X34126879Y-96195398D01*
X34141421Y-96208579D01*
X34154602Y-96223121D01*
X34166294Y-96238886D01*
X34176384Y-96255721D01*
X34184776Y-96273463D01*
X34191388Y-96291943D01*
X34196157Y-96310982D01*
X34199037Y-96330397D01*
X34200000Y-96350000D01*
X34200000Y-96750000D01*
X34199037Y-96769603D01*
X34196157Y-96789018D01*
X34191388Y-96808057D01*
X34184776Y-96826537D01*
X34176384Y-96844279D01*
X34166294Y-96861114D01*
X34154602Y-96876879D01*
X34141421Y-96891421D01*
X34126879Y-96904602D01*
X34111114Y-96916294D01*
X34094279Y-96926384D01*
X34076537Y-96934776D01*
X34058057Y-96941388D01*
X34039018Y-96946157D01*
X34019603Y-96949037D01*
X34000000Y-96950000D01*
X32800000Y-96950000D01*
X32780397Y-96949037D01*
X32760982Y-96946157D01*
X32741943Y-96941388D01*
X32723463Y-96934776D01*
X32705721Y-96926384D01*
X32688886Y-96916294D01*
X32673121Y-96904602D01*
X32658579Y-96891421D01*
X32645398Y-96876879D01*
X32633706Y-96861114D01*
X32623616Y-96844279D01*
X32615224Y-96826537D01*
X32608612Y-96808057D01*
X32603843Y-96789018D01*
X32600963Y-96769603D01*
X32600000Y-96750000D01*
X32600000Y-96350000D01*
X32600963Y-96330397D01*
X32603843Y-96310982D01*
X32608612Y-96291943D01*
X32615224Y-96273463D01*
X32623616Y-96255721D01*
X32633706Y-96238886D01*
X32645398Y-96223121D01*
X32658579Y-96208579D01*
X32673121Y-96195398D01*
X32688886Y-96183706D01*
X32705721Y-96173616D01*
X32723463Y-96165224D01*
X32741943Y-96158612D01*
X32760982Y-96153843D01*
X32780397Y-96150963D01*
X32800000Y-96150000D01*
X34000000Y-96150000D01*
X34019603Y-96150963D01*
X34019603Y-96150963D01*
G37*
D12*
X33400000Y-96550000D03*
D11*
G36*
X34019603Y-94900963D02*
G01*
X34039018Y-94903843D01*
X34058057Y-94908612D01*
X34076537Y-94915224D01*
X34094279Y-94923616D01*
X34111114Y-94933706D01*
X34126879Y-94945398D01*
X34141421Y-94958579D01*
X34154602Y-94973121D01*
X34166294Y-94988886D01*
X34176384Y-95005721D01*
X34184776Y-95023463D01*
X34191388Y-95041943D01*
X34196157Y-95060982D01*
X34199037Y-95080397D01*
X34200000Y-95100000D01*
X34200000Y-95500000D01*
X34199037Y-95519603D01*
X34196157Y-95539018D01*
X34191388Y-95558057D01*
X34184776Y-95576537D01*
X34176384Y-95594279D01*
X34166294Y-95611114D01*
X34154602Y-95626879D01*
X34141421Y-95641421D01*
X34126879Y-95654602D01*
X34111114Y-95666294D01*
X34094279Y-95676384D01*
X34076537Y-95684776D01*
X34058057Y-95691388D01*
X34039018Y-95696157D01*
X34019603Y-95699037D01*
X34000000Y-95700000D01*
X32800000Y-95700000D01*
X32780397Y-95699037D01*
X32760982Y-95696157D01*
X32741943Y-95691388D01*
X32723463Y-95684776D01*
X32705721Y-95676384D01*
X32688886Y-95666294D01*
X32673121Y-95654602D01*
X32658579Y-95641421D01*
X32645398Y-95626879D01*
X32633706Y-95611114D01*
X32623616Y-95594279D01*
X32615224Y-95576537D01*
X32608612Y-95558057D01*
X32603843Y-95539018D01*
X32600963Y-95519603D01*
X32600000Y-95500000D01*
X32600000Y-95100000D01*
X32600963Y-95080397D01*
X32603843Y-95060982D01*
X32608612Y-95041943D01*
X32615224Y-95023463D01*
X32623616Y-95005721D01*
X32633706Y-94988886D01*
X32645398Y-94973121D01*
X32658579Y-94958579D01*
X32673121Y-94945398D01*
X32688886Y-94933706D01*
X32705721Y-94923616D01*
X32723463Y-94915224D01*
X32741943Y-94908612D01*
X32760982Y-94903843D01*
X32780397Y-94900963D01*
X32800000Y-94900000D01*
X34000000Y-94900000D01*
X34019603Y-94900963D01*
X34019603Y-94900963D01*
G37*
D12*
X33400000Y-95300000D03*
D11*
G36*
X31774504Y-101801204D02*
G01*
X31798773Y-101804804D01*
X31822571Y-101810765D01*
X31845671Y-101819030D01*
X31867849Y-101829520D01*
X31888893Y-101842133D01*
X31908598Y-101856747D01*
X31926777Y-101873223D01*
X31943253Y-101891402D01*
X31957867Y-101911107D01*
X31970480Y-101932151D01*
X31980970Y-101954329D01*
X31989235Y-101977429D01*
X31995196Y-102001227D01*
X31998796Y-102025496D01*
X32000000Y-102050000D01*
X32000000Y-103650000D01*
X31998796Y-103674504D01*
X31995196Y-103698773D01*
X31989235Y-103722571D01*
X31980970Y-103745671D01*
X31970480Y-103767849D01*
X31957867Y-103788893D01*
X31943253Y-103808598D01*
X31926777Y-103826777D01*
X31908598Y-103843253D01*
X31888893Y-103857867D01*
X31867849Y-103870480D01*
X31845671Y-103880970D01*
X31822571Y-103889235D01*
X31798773Y-103895196D01*
X31774504Y-103898796D01*
X31750000Y-103900000D01*
X29250000Y-103900000D01*
X29225496Y-103898796D01*
X29201227Y-103895196D01*
X29177429Y-103889235D01*
X29154329Y-103880970D01*
X29132151Y-103870480D01*
X29111107Y-103857867D01*
X29091402Y-103843253D01*
X29073223Y-103826777D01*
X29056747Y-103808598D01*
X29042133Y-103788893D01*
X29029520Y-103767849D01*
X29019030Y-103745671D01*
X29010765Y-103722571D01*
X29004804Y-103698773D01*
X29001204Y-103674504D01*
X29000000Y-103650000D01*
X29000000Y-102050000D01*
X29001204Y-102025496D01*
X29004804Y-102001227D01*
X29010765Y-101977429D01*
X29019030Y-101954329D01*
X29029520Y-101932151D01*
X29042133Y-101911107D01*
X29056747Y-101891402D01*
X29073223Y-101873223D01*
X29091402Y-101856747D01*
X29111107Y-101842133D01*
X29132151Y-101829520D01*
X29154329Y-101819030D01*
X29177429Y-101810765D01*
X29201227Y-101804804D01*
X29225496Y-101801204D01*
X29250000Y-101800000D01*
X31750000Y-101800000D01*
X31774504Y-101801204D01*
X31774504Y-101801204D01*
G37*
D13*
X30500000Y-102850000D03*
D11*
G36*
X31774504Y-91701204D02*
G01*
X31798773Y-91704804D01*
X31822571Y-91710765D01*
X31845671Y-91719030D01*
X31867849Y-91729520D01*
X31888893Y-91742133D01*
X31908598Y-91756747D01*
X31926777Y-91773223D01*
X31943253Y-91791402D01*
X31957867Y-91811107D01*
X31970480Y-91832151D01*
X31980970Y-91854329D01*
X31989235Y-91877429D01*
X31995196Y-91901227D01*
X31998796Y-91925496D01*
X32000000Y-91950000D01*
X32000000Y-93550000D01*
X31998796Y-93574504D01*
X31995196Y-93598773D01*
X31989235Y-93622571D01*
X31980970Y-93645671D01*
X31970480Y-93667849D01*
X31957867Y-93688893D01*
X31943253Y-93708598D01*
X31926777Y-93726777D01*
X31908598Y-93743253D01*
X31888893Y-93757867D01*
X31867849Y-93770480D01*
X31845671Y-93780970D01*
X31822571Y-93789235D01*
X31798773Y-93795196D01*
X31774504Y-93798796D01*
X31750000Y-93800000D01*
X29250000Y-93800000D01*
X29225496Y-93798796D01*
X29201227Y-93795196D01*
X29177429Y-93789235D01*
X29154329Y-93780970D01*
X29132151Y-93770480D01*
X29111107Y-93757867D01*
X29091402Y-93743253D01*
X29073223Y-93726777D01*
X29056747Y-93708598D01*
X29042133Y-93688893D01*
X29029520Y-93667849D01*
X29019030Y-93645671D01*
X29010765Y-93622571D01*
X29004804Y-93598773D01*
X29001204Y-93574504D01*
X29000000Y-93550000D01*
X29000000Y-91950000D01*
X29001204Y-91925496D01*
X29004804Y-91901227D01*
X29010765Y-91877429D01*
X29019030Y-91854329D01*
X29029520Y-91832151D01*
X29042133Y-91811107D01*
X29056747Y-91791402D01*
X29073223Y-91773223D01*
X29091402Y-91756747D01*
X29111107Y-91742133D01*
X29132151Y-91729520D01*
X29154329Y-91719030D01*
X29177429Y-91710765D01*
X29201227Y-91704804D01*
X29225496Y-91701204D01*
X29250000Y-91700000D01*
X31750000Y-91700000D01*
X31774504Y-91701204D01*
X31774504Y-91701204D01*
G37*
D13*
X30500000Y-92750000D03*
D11*
G36*
X34019603Y-131600963D02*
G01*
X34039018Y-131603843D01*
X34058057Y-131608612D01*
X34076537Y-131615224D01*
X34094279Y-131623616D01*
X34111114Y-131633706D01*
X34126879Y-131645398D01*
X34141421Y-131658579D01*
X34154602Y-131673121D01*
X34166294Y-131688886D01*
X34176384Y-131705721D01*
X34184776Y-131723463D01*
X34191388Y-131741943D01*
X34196157Y-131760982D01*
X34199037Y-131780397D01*
X34200000Y-131800000D01*
X34200000Y-132200000D01*
X34199037Y-132219603D01*
X34196157Y-132239018D01*
X34191388Y-132258057D01*
X34184776Y-132276537D01*
X34176384Y-132294279D01*
X34166294Y-132311114D01*
X34154602Y-132326879D01*
X34141421Y-132341421D01*
X34126879Y-132354602D01*
X34111114Y-132366294D01*
X34094279Y-132376384D01*
X34076537Y-132384776D01*
X34058057Y-132391388D01*
X34039018Y-132396157D01*
X34019603Y-132399037D01*
X34000000Y-132400000D01*
X32800000Y-132400000D01*
X32780397Y-132399037D01*
X32760982Y-132396157D01*
X32741943Y-132391388D01*
X32723463Y-132384776D01*
X32705721Y-132376384D01*
X32688886Y-132366294D01*
X32673121Y-132354602D01*
X32658579Y-132341421D01*
X32645398Y-132326879D01*
X32633706Y-132311114D01*
X32623616Y-132294279D01*
X32615224Y-132276537D01*
X32608612Y-132258057D01*
X32603843Y-132239018D01*
X32600963Y-132219603D01*
X32600000Y-132200000D01*
X32600000Y-131800000D01*
X32600963Y-131780397D01*
X32603843Y-131760982D01*
X32608612Y-131741943D01*
X32615224Y-131723463D01*
X32623616Y-131705721D01*
X32633706Y-131688886D01*
X32645398Y-131673121D01*
X32658579Y-131658579D01*
X32673121Y-131645398D01*
X32688886Y-131633706D01*
X32705721Y-131623616D01*
X32723463Y-131615224D01*
X32741943Y-131608612D01*
X32760982Y-131603843D01*
X32780397Y-131600963D01*
X32800000Y-131600000D01*
X34000000Y-131600000D01*
X34019603Y-131600963D01*
X34019603Y-131600963D01*
G37*
D12*
X33400000Y-132000000D03*
D11*
G36*
X34019603Y-130350963D02*
G01*
X34039018Y-130353843D01*
X34058057Y-130358612D01*
X34076537Y-130365224D01*
X34094279Y-130373616D01*
X34111114Y-130383706D01*
X34126879Y-130395398D01*
X34141421Y-130408579D01*
X34154602Y-130423121D01*
X34166294Y-130438886D01*
X34176384Y-130455721D01*
X34184776Y-130473463D01*
X34191388Y-130491943D01*
X34196157Y-130510982D01*
X34199037Y-130530397D01*
X34200000Y-130550000D01*
X34200000Y-130950000D01*
X34199037Y-130969603D01*
X34196157Y-130989018D01*
X34191388Y-131008057D01*
X34184776Y-131026537D01*
X34176384Y-131044279D01*
X34166294Y-131061114D01*
X34154602Y-131076879D01*
X34141421Y-131091421D01*
X34126879Y-131104602D01*
X34111114Y-131116294D01*
X34094279Y-131126384D01*
X34076537Y-131134776D01*
X34058057Y-131141388D01*
X34039018Y-131146157D01*
X34019603Y-131149037D01*
X34000000Y-131150000D01*
X32800000Y-131150000D01*
X32780397Y-131149037D01*
X32760982Y-131146157D01*
X32741943Y-131141388D01*
X32723463Y-131134776D01*
X32705721Y-131126384D01*
X32688886Y-131116294D01*
X32673121Y-131104602D01*
X32658579Y-131091421D01*
X32645398Y-131076879D01*
X32633706Y-131061114D01*
X32623616Y-131044279D01*
X32615224Y-131026537D01*
X32608612Y-131008057D01*
X32603843Y-130989018D01*
X32600963Y-130969603D01*
X32600000Y-130950000D01*
X32600000Y-130550000D01*
X32600963Y-130530397D01*
X32603843Y-130510982D01*
X32608612Y-130491943D01*
X32615224Y-130473463D01*
X32623616Y-130455721D01*
X32633706Y-130438886D01*
X32645398Y-130423121D01*
X32658579Y-130408579D01*
X32673121Y-130395398D01*
X32688886Y-130383706D01*
X32705721Y-130373616D01*
X32723463Y-130365224D01*
X32741943Y-130358612D01*
X32760982Y-130353843D01*
X32780397Y-130350963D01*
X32800000Y-130350000D01*
X34000000Y-130350000D01*
X34019603Y-130350963D01*
X34019603Y-130350963D01*
G37*
D12*
X33400000Y-130750000D03*
D11*
G36*
X34019603Y-129100963D02*
G01*
X34039018Y-129103843D01*
X34058057Y-129108612D01*
X34076537Y-129115224D01*
X34094279Y-129123616D01*
X34111114Y-129133706D01*
X34126879Y-129145398D01*
X34141421Y-129158579D01*
X34154602Y-129173121D01*
X34166294Y-129188886D01*
X34176384Y-129205721D01*
X34184776Y-129223463D01*
X34191388Y-129241943D01*
X34196157Y-129260982D01*
X34199037Y-129280397D01*
X34200000Y-129300000D01*
X34200000Y-129700000D01*
X34199037Y-129719603D01*
X34196157Y-129739018D01*
X34191388Y-129758057D01*
X34184776Y-129776537D01*
X34176384Y-129794279D01*
X34166294Y-129811114D01*
X34154602Y-129826879D01*
X34141421Y-129841421D01*
X34126879Y-129854602D01*
X34111114Y-129866294D01*
X34094279Y-129876384D01*
X34076537Y-129884776D01*
X34058057Y-129891388D01*
X34039018Y-129896157D01*
X34019603Y-129899037D01*
X34000000Y-129900000D01*
X32800000Y-129900000D01*
X32780397Y-129899037D01*
X32760982Y-129896157D01*
X32741943Y-129891388D01*
X32723463Y-129884776D01*
X32705721Y-129876384D01*
X32688886Y-129866294D01*
X32673121Y-129854602D01*
X32658579Y-129841421D01*
X32645398Y-129826879D01*
X32633706Y-129811114D01*
X32623616Y-129794279D01*
X32615224Y-129776537D01*
X32608612Y-129758057D01*
X32603843Y-129739018D01*
X32600963Y-129719603D01*
X32600000Y-129700000D01*
X32600000Y-129300000D01*
X32600963Y-129280397D01*
X32603843Y-129260982D01*
X32608612Y-129241943D01*
X32615224Y-129223463D01*
X32623616Y-129205721D01*
X32633706Y-129188886D01*
X32645398Y-129173121D01*
X32658579Y-129158579D01*
X32673121Y-129145398D01*
X32688886Y-129133706D01*
X32705721Y-129123616D01*
X32723463Y-129115224D01*
X32741943Y-129108612D01*
X32760982Y-129103843D01*
X32780397Y-129100963D01*
X32800000Y-129100000D01*
X34000000Y-129100000D01*
X34019603Y-129100963D01*
X34019603Y-129100963D01*
G37*
D12*
X33400000Y-129500000D03*
D11*
G36*
X31774504Y-133501204D02*
G01*
X31798773Y-133504804D01*
X31822571Y-133510765D01*
X31845671Y-133519030D01*
X31867849Y-133529520D01*
X31888893Y-133542133D01*
X31908598Y-133556747D01*
X31926777Y-133573223D01*
X31943253Y-133591402D01*
X31957867Y-133611107D01*
X31970480Y-133632151D01*
X31980970Y-133654329D01*
X31989235Y-133677429D01*
X31995196Y-133701227D01*
X31998796Y-133725496D01*
X32000000Y-133750000D01*
X32000000Y-135350000D01*
X31998796Y-135374504D01*
X31995196Y-135398773D01*
X31989235Y-135422571D01*
X31980970Y-135445671D01*
X31970480Y-135467849D01*
X31957867Y-135488893D01*
X31943253Y-135508598D01*
X31926777Y-135526777D01*
X31908598Y-135543253D01*
X31888893Y-135557867D01*
X31867849Y-135570480D01*
X31845671Y-135580970D01*
X31822571Y-135589235D01*
X31798773Y-135595196D01*
X31774504Y-135598796D01*
X31750000Y-135600000D01*
X29250000Y-135600000D01*
X29225496Y-135598796D01*
X29201227Y-135595196D01*
X29177429Y-135589235D01*
X29154329Y-135580970D01*
X29132151Y-135570480D01*
X29111107Y-135557867D01*
X29091402Y-135543253D01*
X29073223Y-135526777D01*
X29056747Y-135508598D01*
X29042133Y-135488893D01*
X29029520Y-135467849D01*
X29019030Y-135445671D01*
X29010765Y-135422571D01*
X29004804Y-135398773D01*
X29001204Y-135374504D01*
X29000000Y-135350000D01*
X29000000Y-133750000D01*
X29001204Y-133725496D01*
X29004804Y-133701227D01*
X29010765Y-133677429D01*
X29019030Y-133654329D01*
X29029520Y-133632151D01*
X29042133Y-133611107D01*
X29056747Y-133591402D01*
X29073223Y-133573223D01*
X29091402Y-133556747D01*
X29111107Y-133542133D01*
X29132151Y-133529520D01*
X29154329Y-133519030D01*
X29177429Y-133510765D01*
X29201227Y-133504804D01*
X29225496Y-133501204D01*
X29250000Y-133500000D01*
X31750000Y-133500000D01*
X31774504Y-133501204D01*
X31774504Y-133501204D01*
G37*
D13*
X30500000Y-134550000D03*
D11*
G36*
X31774504Y-125901204D02*
G01*
X31798773Y-125904804D01*
X31822571Y-125910765D01*
X31845671Y-125919030D01*
X31867849Y-125929520D01*
X31888893Y-125942133D01*
X31908598Y-125956747D01*
X31926777Y-125973223D01*
X31943253Y-125991402D01*
X31957867Y-126011107D01*
X31970480Y-126032151D01*
X31980970Y-126054329D01*
X31989235Y-126077429D01*
X31995196Y-126101227D01*
X31998796Y-126125496D01*
X32000000Y-126150000D01*
X32000000Y-127750000D01*
X31998796Y-127774504D01*
X31995196Y-127798773D01*
X31989235Y-127822571D01*
X31980970Y-127845671D01*
X31970480Y-127867849D01*
X31957867Y-127888893D01*
X31943253Y-127908598D01*
X31926777Y-127926777D01*
X31908598Y-127943253D01*
X31888893Y-127957867D01*
X31867849Y-127970480D01*
X31845671Y-127980970D01*
X31822571Y-127989235D01*
X31798773Y-127995196D01*
X31774504Y-127998796D01*
X31750000Y-128000000D01*
X29250000Y-128000000D01*
X29225496Y-127998796D01*
X29201227Y-127995196D01*
X29177429Y-127989235D01*
X29154329Y-127980970D01*
X29132151Y-127970480D01*
X29111107Y-127957867D01*
X29091402Y-127943253D01*
X29073223Y-127926777D01*
X29056747Y-127908598D01*
X29042133Y-127888893D01*
X29029520Y-127867849D01*
X29019030Y-127845671D01*
X29010765Y-127822571D01*
X29004804Y-127798773D01*
X29001204Y-127774504D01*
X29000000Y-127750000D01*
X29000000Y-126150000D01*
X29001204Y-126125496D01*
X29004804Y-126101227D01*
X29010765Y-126077429D01*
X29019030Y-126054329D01*
X29029520Y-126032151D01*
X29042133Y-126011107D01*
X29056747Y-125991402D01*
X29073223Y-125973223D01*
X29091402Y-125956747D01*
X29111107Y-125942133D01*
X29132151Y-125929520D01*
X29154329Y-125919030D01*
X29177429Y-125910765D01*
X29201227Y-125904804D01*
X29225496Y-125901204D01*
X29250000Y-125900000D01*
X31750000Y-125900000D01*
X31774504Y-125901204D01*
X31774504Y-125901204D01*
G37*
D13*
X30500000Y-126950000D03*
M02*
