M48
; DRILL file {KiCad (5.1.2)-2} date 17/11/2020 23:24:36
; FORMAT={-:-/ absolute / inch / decimal}
; #@! TF.CreationDate,2020-11-17T23:24:36+01:00
; #@! TF.GenerationSoftware,Kicad,Pcbnew,(5.1.2)-2
FMAT,2
INCH
T1C0.0079
T2C0.0157
T3C0.0197
T4C0.0300
T5C0.0315
T6C0.0394
T7C0.0590
T8C0.0591
T9C0.1260
%
G90
G05
T1
X3.7106Y-5.3976
X3.7106Y-5.4488
X3.75Y-5.3976
X3.75Y-5.4488
X3.7894Y-5.3976
X3.7894Y-5.4488
T2
X1.2362Y-5.5433
X1.3898Y-3.8012
X1.3917Y-3.752
X1.394Y-5.6034
X1.4075Y-4.0059
X1.4114Y-5.6417
X1.4469Y-3.9665
X1.5069Y-5.4914
X1.626Y-5.622
X1.6713Y-5.6398
X1.7426Y-4.0743
X1.8209Y-4.1339
X1.8893Y-4.2032
X1.8898Y-3.9469
X1.8903Y-4.0743
X1.9827Y-6.0428
X2.2441Y-6.0433
X2.4114Y-5.1181
X2.4114Y-5.1575
X2.4114Y-5.1969
X2.4114Y-5.2362
X2.4114Y-5.2756
X2.4114Y-5.315
X2.4114Y-5.3543
X2.4114Y-5.3937
X2.4114Y-5.4331
X2.4114Y-5.4724
X2.4114Y-5.5118
X2.4114Y-5.5512
X2.4114Y-5.5906
X2.4114Y-5.6299
X2.4508Y-5.0787
X2.4508Y-5.1181
X2.4508Y-5.1575
X2.4508Y-5.1969
X2.4508Y-5.2362
X2.4508Y-5.2756
X2.4508Y-5.315
X2.4508Y-5.3543
X2.4508Y-5.3937
X2.4508Y-5.4331
X2.4508Y-5.4724
X2.4508Y-5.5118
X2.4508Y-5.5512
X2.4508Y-5.5906
X2.4508Y-5.6299
X2.4508Y-5.6693
X2.4902Y-5.0394
X2.4902Y-5.0787
X2.4902Y-5.1181
X2.4902Y-5.1575
X2.4902Y-5.1969
X2.4902Y-5.2362
X2.4902Y-5.2756
X2.4902Y-5.315
X2.4902Y-5.3543
X2.4902Y-5.3937
X2.4902Y-5.4331
X2.4902Y-5.4724
X2.4902Y-5.5118
X2.4902Y-5.5512
X2.4902Y-5.5906
X2.4902Y-5.6299
X2.4902Y-5.6693
X2.4902Y-5.7087
X2.5295Y-4.7736
X2.5295Y-5.0
X2.5295Y-5.0394
X2.5295Y-5.0787
X2.5295Y-5.1181
X2.5295Y-5.1575
X2.5295Y-5.1969
X2.5295Y-5.2362
X2.5295Y-5.2756
X2.5295Y-5.315
X2.5295Y-5.3543
X2.5295Y-5.3937
X2.5295Y-5.4331
X2.5295Y-5.4724
X2.5295Y-5.5118
X2.5295Y-5.5512
X2.5295Y-5.5906
X2.5295Y-5.6299
X2.5295Y-5.6693
X2.5295Y-5.7087
X2.5295Y-5.748
X2.5689Y-5.0
X2.5689Y-5.0394
X2.5689Y-5.0787
X2.5689Y-5.1181
X2.5689Y-5.1575
X2.5689Y-5.1969
X2.5689Y-5.2362
X2.5689Y-5.2756
X2.5689Y-5.315
X2.5689Y-5.3543
X2.5689Y-5.3937
X2.5689Y-5.4331
X2.5689Y-5.4724
X2.5689Y-5.5118
X2.5689Y-5.5512
X2.5689Y-5.5906
X2.5689Y-5.6299
X2.5689Y-5.6693
X2.5689Y-5.7087
X2.5689Y-5.748
X2.6083Y-5.0
X2.6083Y-5.0394
X2.6083Y-5.0787
X2.6083Y-5.1181
X2.6083Y-5.1575
X2.6083Y-5.1969
X2.6083Y-5.2362
X2.6083Y-5.2756
X2.6083Y-5.315
X2.6083Y-5.3543
X2.6083Y-5.3937
X2.6083Y-5.4331
X2.6083Y-5.4724
X2.6083Y-5.5118
X2.6083Y-5.5512
X2.6083Y-5.5906
X2.6083Y-5.6299
X2.6083Y-5.6693
X2.6083Y-5.7087
X2.6083Y-5.748
X2.6476Y-3.9173
X2.6476Y-5.0
X2.6476Y-5.0394
X2.6476Y-5.0787
X2.6476Y-5.1181
X2.6476Y-5.1575
X2.6476Y-5.1969
X2.6476Y-5.2362
X2.6476Y-5.2756
X2.6476Y-5.315
X2.6476Y-5.3543
X2.6476Y-5.3937
X2.6476Y-5.4331
X2.6476Y-5.4724
X2.6476Y-5.5118
X2.6476Y-5.5512
X2.6476Y-5.5906
X2.6476Y-5.6299
X2.6476Y-5.6693
X2.6476Y-5.7087
X2.6476Y-5.748
X2.687Y-5.0
X2.687Y-5.0394
X2.687Y-5.0787
X2.687Y-5.1181
X2.687Y-5.1575
X2.687Y-5.1969
X2.687Y-5.2362
X2.687Y-5.2756
X2.687Y-5.315
X2.687Y-5.3543
X2.687Y-5.3937
X2.687Y-5.4331
X2.687Y-5.4724
X2.687Y-5.5118
X2.687Y-5.5512
X2.687Y-5.5906
X2.687Y-5.6299
X2.687Y-5.6693
X2.687Y-5.7087
X2.687Y-5.748
X2.7264Y-5.0
X2.7264Y-5.0394
X2.7264Y-5.0787
X2.7264Y-5.1181
X2.7264Y-5.1575
X2.7264Y-5.1969
X2.7264Y-5.2362
X2.7264Y-5.2756
X2.7264Y-5.4724
X2.7264Y-5.5118
X2.7264Y-5.5512
X2.7264Y-5.5906
X2.7264Y-5.6299
X2.7264Y-5.6693
X2.7264Y-5.7087
X2.7264Y-5.748
X2.7657Y-5.0
X2.7657Y-5.0394
X2.7657Y-5.0787
X2.7657Y-5.1181
X2.7657Y-5.1575
X2.7657Y-5.1969
X2.7657Y-5.2362
X2.7657Y-5.2756
X2.7657Y-5.4724
X2.7657Y-5.5118
X2.7657Y-5.5512
X2.7657Y-5.5906
X2.7657Y-5.6299
X2.7657Y-5.6693
X2.7657Y-5.7087
X2.7657Y-5.748
X2.7756Y-4.2913
X2.7854Y-3.9173
X2.8051Y-5.0
X2.8051Y-5.0394
X2.8051Y-5.0787
X2.8051Y-5.1181
X2.8051Y-5.1575
X2.8051Y-5.1969
X2.8051Y-5.2362
X2.8051Y-5.2756
X2.8051Y-5.4724
X2.8051Y-5.5118
X2.8051Y-5.5512
X2.8051Y-5.5906
X2.8051Y-5.6299
X2.8051Y-5.6693
X2.8051Y-5.7087
X2.8051Y-5.748
X2.8445Y-5.0
X2.8445Y-5.0394
X2.8445Y-5.0787
X2.8445Y-5.1181
X2.8445Y-5.1575
X2.8445Y-5.1969
X2.8445Y-5.2362
X2.8445Y-5.2756
X2.8445Y-5.4724
X2.8445Y-5.5118
X2.8445Y-5.5512
X2.8445Y-5.5906
X2.8445Y-5.6299
X2.8445Y-5.6693
X2.8445Y-5.7087
X2.8445Y-5.748
X2.8839Y-5.0
X2.8839Y-5.0394
X2.8839Y-5.0787
X2.8839Y-5.1181
X2.8839Y-5.1575
X2.8839Y-5.1969
X2.8839Y-5.2362
X2.8839Y-5.2756
X2.8839Y-5.4724
X2.8839Y-5.5118
X2.8839Y-5.5512
X2.8839Y-5.5906
X2.8839Y-5.6299
X2.8839Y-5.6693
X2.8839Y-5.7087
X2.8839Y-5.748
X2.9232Y-5.0
X2.9232Y-5.0394
X2.9232Y-5.0787
X2.9232Y-5.1181
X2.9232Y-5.1575
X2.9232Y-5.1969
X2.9232Y-5.2362
X2.9232Y-5.2756
X2.9232Y-5.374
X2.9232Y-5.4724
X2.9232Y-5.5118
X2.9232Y-5.5512
X2.9232Y-5.5906
X2.9232Y-5.6299
X2.9232Y-5.6693
X2.9232Y-5.7087
X2.9232Y-5.748
X2.9626Y-5.0
X2.9626Y-5.0394
X2.9626Y-5.0787
X2.9626Y-5.1181
X2.9626Y-5.1575
X2.9626Y-5.1969
X2.9626Y-5.2362
X2.9626Y-5.2756
X2.9626Y-5.374
X2.9626Y-5.4724
X2.9626Y-5.5118
X2.9626Y-5.5512
X2.9626Y-5.5906
X2.9626Y-5.6299
X2.9626Y-5.6693
X2.9626Y-5.7087
X2.9626Y-5.748
X3.002Y-5.0
X3.002Y-5.0394
X3.002Y-5.0787
X3.002Y-5.1181
X3.002Y-5.1575
X3.002Y-5.1969
X3.002Y-5.2362
X3.002Y-5.2756
X3.002Y-5.374
X3.002Y-5.4724
X3.002Y-5.5118
X3.002Y-5.5512
X3.002Y-5.5906
X3.002Y-5.6299
X3.002Y-5.6693
X3.002Y-5.7087
X3.002Y-5.748
X3.0413Y-5.0
X3.0413Y-5.0394
X3.0413Y-5.0787
X3.0413Y-5.1181
X3.0413Y-5.1575
X3.0413Y-5.1969
X3.0413Y-5.2362
X3.0413Y-5.2756
X3.0413Y-5.374
X3.0413Y-5.4724
X3.0413Y-5.5118
X3.0413Y-5.5512
X3.0413Y-5.5906
X3.0413Y-5.6299
X3.0413Y-5.6693
X3.0413Y-5.7087
X3.0413Y-5.748
X3.0807Y-5.0
X3.0807Y-5.0394
X3.0807Y-5.0787
X3.0807Y-5.1181
X3.0807Y-5.1575
X3.0807Y-5.1969
X3.0807Y-5.2362
X3.0807Y-5.2756
X3.0807Y-5.374
X3.0807Y-5.4724
X3.0807Y-5.5118
X3.0807Y-5.5512
X3.0807Y-5.5906
X3.0807Y-5.6299
X3.0807Y-5.6693
X3.0807Y-5.7087
X3.0807Y-5.748
X3.0807Y-5.9843
X3.1201Y-5.0394
X3.1201Y-5.0787
X3.1201Y-5.1181
X3.1201Y-5.1575
X3.1201Y-5.1969
X3.1201Y-5.2362
X3.1201Y-5.2756
X3.1201Y-5.374
X3.1201Y-5.4724
X3.1201Y-5.5118
X3.1201Y-5.5512
X3.1201Y-5.5906
X3.1201Y-5.6299
X3.1201Y-5.6693
X3.1201Y-5.7087
X3.1594Y-5.0787
X3.1594Y-5.1181
X3.1594Y-5.1575
X3.1594Y-5.1969
X3.1594Y-5.2362
X3.1594Y-5.2756
X3.1594Y-5.374
X3.1594Y-5.4724
X3.1594Y-5.5118
X3.1594Y-5.5512
X3.1594Y-5.5906
X3.1594Y-5.6299
X3.1594Y-5.6693
X3.1988Y-5.1181
X3.1988Y-5.1575
X3.1988Y-5.1969
X3.1988Y-5.2362
X3.1988Y-5.2756
X3.1988Y-5.374
X3.1988Y-5.4724
X3.1988Y-5.5118
X3.1988Y-5.5512
X3.1988Y-5.5906
X3.1988Y-5.6299
X3.2136Y-5.7431
X3.5236Y-5.6299
X3.5748Y-5.2598
X3.622Y-5.2756
X3.7303Y-5.2559
X3.7303Y-5.2854
X3.7992Y-5.2559
X3.9567Y-4.8228
T3
X1.1949Y-4.8031
X1.2226Y-4.7363
X1.2226Y-4.87
X1.2894Y-4.7087
X1.2894Y-4.8976
X1.3562Y-4.7363
X1.3562Y-4.87
X1.3839Y-4.8031
X4.2067Y-3.1102
X4.2344Y-3.0434
X4.2344Y-3.177
X4.3012Y-3.0157
X4.3012Y-3.2047
X4.368Y-3.0434
X4.368Y-3.177
X4.3957Y-3.1102
X1.1949Y-4.252
X1.2226Y-4.1852
X1.2226Y-4.3188
X1.2894Y-4.1575
X1.2894Y-4.3465
X1.3562Y-4.1852
X1.3562Y-4.3188
X1.3839Y-4.252
X1.1949Y-5.9449
X1.2226Y-5.8781
X1.2226Y-6.0117
X1.2894Y-5.8504
X1.2894Y-6.0394
X1.3562Y-5.8781
X1.3562Y-6.0117
X1.3839Y-5.9449
X4.2067Y-5.9449
X4.2344Y-5.8781
X4.2344Y-6.0117
X4.3012Y-5.8504
X4.3012Y-6.0394
X4.368Y-5.8781
X4.368Y-6.0117
X4.3957Y-5.9449
X4.2067Y-4.252
X4.2344Y-4.1852
X4.2344Y-4.3188
X4.3012Y-4.1575
X4.3012Y-4.3465
X4.368Y-4.1852
X4.368Y-4.3188
X4.3957Y-4.252
X1.1949Y-3.1102
X1.2226Y-3.0434
X1.2226Y-3.177
X1.2894Y-3.0157
X1.2894Y-3.2047
X1.3562Y-3.0434
X1.3562Y-3.177
X1.3839Y-3.1102
X4.2067Y-4.8031
X4.2344Y-4.7363
X4.2344Y-4.87
X4.3012Y-4.7087
X4.3012Y-4.8976
X4.368Y-4.7363
X4.368Y-4.87
X4.3957Y-4.8031
T4
X1.5602Y-4.9228
X1.5602Y-5.0228
X1.5602Y-5.1228
X1.5602Y-5.2228
X1.5602Y-5.3228
X1.5602Y-5.4228
X1.5602Y-5.5228
X1.5602Y-5.6228
X1.5602Y-5.7228
X1.5602Y-5.8228
X1.5602Y-5.9228
X1.5602Y-6.0228
X2.1602Y-4.9228
X2.1602Y-5.0228
X2.1602Y-5.1228
X2.1602Y-5.2228
X2.1602Y-5.3228
X2.1602Y-5.4228
X2.1602Y-5.5228
X2.1602Y-5.6228
X2.1602Y-5.7228
X2.1602Y-5.8228
X2.1602Y-5.9228
X2.1602Y-6.0228
X2.2988Y-5.7949
X2.2988Y-5.8949
T5
X4.1654Y-5.7244
X4.2654Y-5.6244
X4.3654Y-5.7244
T6
X2.5079Y-4.4228
X2.9016Y-4.4228
T7
X4.0374Y-5.1083
X4.0374Y-5.4232
X4.3996Y-5.1083
X4.3996Y-5.4232
T8
X3.7205Y-5.9843
X3.3504Y-4.7244
X3.937Y-5.9843
T9
X4.3012Y-3.1102
X1.2894Y-4.252
X4.3012Y-4.252
X4.3012Y-4.8031
X1.2894Y-4.8031
X1.2894Y-5.9449
X4.3012Y-5.9449
X1.2894Y-3.1102
T0
M30
